<mxfile host="app.diagrams.net" agent="Mozilla/5.0 (Windows NT 10.0; Win64; x64) AppleWebKit/537.36 (KHTML, like Gecko) Chrome/131.0.0.0 Safari/537.36" version="24.7.17">
  <diagram name="Page-1" id="2YBvvXClWsGukQMizWep">
    <mxGraphModel dx="1075" dy="435" grid="1" gridSize="10" guides="1" tooltips="1" connect="1" arrows="1" fold="1" page="1" pageScale="1" pageWidth="850" pageHeight="1100" math="0" shadow="0">
      <root>
        <mxCell id="0" />
        <mxCell id="1" parent="0" />
        <mxCell id="9iWDFektB7QEEFaRxru2-3" style="edgeStyle=orthogonalEdgeStyle;rounded=0;orthogonalLoop=1;jettySize=auto;html=1;" edge="1" parent="1">
          <mxGeometry relative="1" as="geometry">
            <mxPoint x="125" y="190" as="targetPoint" />
            <mxPoint x="425" y="80" as="sourcePoint" />
            <Array as="points">
              <mxPoint x="425" y="135" />
              <mxPoint x="125" y="135" />
            </Array>
          </mxGeometry>
        </mxCell>
        <mxCell id="9iWDFektB7QEEFaRxru2-1" value="assert.not.ok" style="rounded=0;whiteSpace=wrap;html=1;" vertex="1" parent="1">
          <mxGeometry x="330" y="30" width="180" height="60" as="geometry" />
        </mxCell>
        <mxCell id="9iWDFektB7QEEFaRxru2-4" value="" style="shape=image;imageAspect=0;aspect=fixed;verticalLabelPosition=bottom;verticalAlign=top;image=data:image/png,iVBORw0KGgoAAAANSUhEUgAAA+UAAAIGCAYAAAAyZC4SAAAAAXNSR0IArs4c6QAAAARnQU1BAACxjwv8YQUAAAAJcEhZcwAADsMAAA7DAcdvqGQAAIfrSURBVHhe7P19eNTVve//v6zdaEsSUiQhCDaJjDfc7EIKSIGKQExLdmj3F4myhR+gR9IYhVo93qRAuLgI0qBuWwuapqGnVQ+0QIKnbXJCO0YoaigCO6EHodVBBgUJIdIkJK26a/n9MfOZ+czKTDIJCZOb5+O65rqY9V6fm0wmH+Y9673W54rExMSL8kpOTpbb7dbFi74mAAAAAADQTT5nNgAAAAAAgMuDpBwAAAAAgAghKQcAAAAAIEJIygEAAAAAiBCScgAAAAAAIoSkHAAAAACACCEpBwAAAAAgQkjKAQAAAACIEJJyAAAAAAAihKQcAAAAAIAIuSIxMfGi9SQ5OVlut1sXL/qaAABATxK9Vq/cPklR3qfNx57S3D/vNjr1Y9duknPySN9T1/505Xxo77BUhXPnyWE9PV2qtLc22zu0rd39A+jTuAa3adbNO/T9Ub5XR2+9eqdWXrD34BocDEk5epaUTZo8RzqWv0xNZsxu2FqNWTpJOvCU3t7Vvy+ECesOK2v0ERXfsVC1ZjCo+/Tj8js0UpLe26mM5T8zO7TjRg352YMaHu1vaTn0vFwb3rF36nZRTz2nkUluHb/rh2o2g+2yfoYmnd6Up/q9ZhwRleNUXqbvv2s17FuvjauKA7r0a9Fr9crto3S01QedyEspOqE5DsldkqyXC72NOU7lpdV14BrVVTwf/NTqA1uodq8Zd6vgofGK8T5tOvBT5a4/bnRS+/vpNj3hGuw9Bx3Ssfte0qdmuF3f0PDtGRqizl7D0Z2sv2OPJh0sGKcKZ2Cffq3HXoOzlL5zhSYOCvydJaw7rKy4CuVn55obdK+Qr1MY1857H9AL306UTvxODzzymhn1CmM/vUjfLF8ftlZj8nZo6DAz0EdM26obXvqThkwzA73FUiXlVSgpxWzH5fEzfTcjQxkZT+vAkDtUXv5j3Wd2CekbGr79QQ3/qFyH73rI9zA/DEY99ZzGPfWNgLaOuNTt2zX9a4rVIZ12xyh2yo1mNOIGPJGvcT9brAFmoK9I26LllYeVnmYGrIQ8XgcLkpWfmqz8gippygotX5dl9oycts4fUmOTYscXmK29xCw9+tB41f/mCT0w9wk98FyNNOk7evRes1+k9JFr8JIxGuI+pNMXkjRoiRmMvG7/+SMsYd1h5e3cogQzYCXkcVUqTvVcg4v3SRNze9b1rq3zh9TQKDlu60H/Z3bQ7Gc36IV//asOtDk61/f0zaQcfd+Z1Xo7P73fj5Jfmj1ac/dOHddIfXP1DDMY3PQEfUFNOl32ezNy2TU//pAOd3KEZcCUG6R3/qj6t90aeOPX+m7y2+tkKT3NoYZ9m/yjMs6F2rGvSbGjZ/ABrLc4d0SuuPQe9SE+XDetmKrrm2r02597G/b8UntOSNfPuFs3GX0josdcg99R/X0P6XCnRsmlqDFJqn/7JTW906QhY/pu8tvrpG3R1x1NOljor2qpXbVJBxtjenWS1+8cPaKGKXepV4593fuAZtT/VA888pYZ6fO6qXx9poYuf1xJsf6Ws2Xpcld7/n3V7B0aP8maayA120qQr5q9Q+Ov+Z1qPvqmv897pdq/xTbXIGWTJs/xzyVQwwHVbFytT7wlzf49+9mP0Z4BD/9Jo1OswjWppfpJvftDT+nkgIf/pNGDK3T0fLq/z4UqHX1wgf8/pgWvavxsf+ll/a4kndrqfTJtq27IjteZxYcU+9J8DZEkueRafLs/uTC218ltqsl7wrvtVA30R3xanWOI85c2aMRL6fq4aKO0YKVGREtSk04VfUX1b/o26SZLlZQ3T0PNZtl+x1b5epk0yvodW79fqdU+gv5eW70PjrdfDm+xyiyd8crylc+6VJaaJu/b11YeZD03S7vMuFHK2dF4Y5VR9tl6+9Z9wnffxnLdoTDL2KcvlmPZBA10l+vw460/FHpKys1WSQElimbppb+EPJztBzyRr1ETrPd3iNJH6zx9Da2Pf9Xeh3T6xGI5lt2gBqOE3TwPszS0Y/HAcxzwRL5GXfO6Dr89RuMyvJ28r2fgz2bXsTL7wNJD8/3VOm6Wh3csHvj34SuTq5ngL0F3bfOUzaVt0fLcqbL91+DTsG+9Nv5hhpbnjpXLLJVM2+Jrr77Ns//ic+nKmuJ9rcz3v1H+HvDzp23R8tx4vZF6SGMr58vzGzD+xo3twz5/72uUsO6w/9zM168zxzd/vpAlgf7XP+TrE8bx2zz/dq6RKUUnNEfbVHwuXXdqk2c7s3zdfB195+e5tg05WqXYKVMVK5fKSqQ5mY4gP4N/e/P96ReqtDFU+0jd++J3dNNfbOXqvlL2k/rN3Be0y9495H7C4Z1G1HRAT9+9RnvMcCg94Boc0OdCiPL1JQ/7r28y+31Dw7ffqk825ak++WGNy5BxHTfPT6ovf0inX+xk3DjHqKeeU8JHz+t9LfJdb61reDg/fzjMa2hPuQabf9t+ns8x1bcFnw7nnya3Ryk7V2iIc73q0/yfQ7rq/Czmz2+9fu2dv+f/DfMzkvEZLYxrYE++Bre9f8/P7ji6Xm/ErdDYGtvrZi9fN38+3+tfoEWV6arfV6eJUzzX3bKjYzVnSkzg76it/2PtQr5O4Vw7PdfjSR91snz9nmdU+q1ktRz8kRb/4HUj2DN1w0i5NyE/X6r9+em+R2BCflbHfLFStUx6XGNmz/Tv4vp5Gn/N7zzxzQfUfP08f6nzsLUaM2eo3Jv9+95vJWze0dP9mw+oWc0BfVolbiF4Eto6uRYnqWZxkmoWb9PfU1bqhodt3xAmztfowRW+eH30VCVa8QWvavzseJ0q8m5fVKUvzHZrxAL/5pJDjpfmS7s8fVwnHXLkb/DGNmjEqEPefXu2b0mc79n+zQV612pTk/8Yi5OMhLyd81eMRmSv1JdcT6pmcZKOVksjFmwNa7RwxurtKi8vb/345Rq1P9a6WW7v7/ys94sa3+/Q/qWLRmrU18+rxuobO0kO3/vD2sdTcjfYNvFZqqSlk9Ri33e4Cbll0FRlpdV5S7fW62CjQ3OK/KWYCevukgq9pbWpySpzxWhijr+MKqVohSae2+aL56ea/xm3Fff+Z2KLl52bqixfmVbrePG+Dv10hvs07nqp5Vyw+ZJB7H1JrnK3lJShcdtbl/d5Rq8f0nG3N9H0lVfak9IM6UV/2eVxd4yGL/GUaoez/acb8jxt5W7bkW28H1r/Xu4/RsCI+vSvKTbarcYXJe39oxouBJawD3giXyOvOaRjIUpD24tHPfVcQPzYocEauf3hwC8LkzK8H0Qf0uG7ylWflKHhS/w/27FDTZ4Pkr5jhJ+QK8epsTX+91bxviYlZTp935gnrDscUJqYn5oc8GGqvXjr0sZ4zan071+S5JivvEypLDVZ+anb5HbM16Icz6j3xlRPSXqDmvwl6gHHqFNte3MXHfM9HzCs/Q+aqjut8vYg5e+xmSc8x/fvQHMq50sl3r8xl/1vvECLxh/ynVd+QZUaOnD+ng9Tdd6f3XN+Da3K79s4ftoWLbeff2qy8jv6hVtbr4+nQ8jjh3X+7VwjJal2VYUaglY3ZCk9U9ph2795fklT4vVG6ja55dCctDoVF1SpYdBYpaT5E/IG77kHPb9LVH/Gcz28acUqvfDQl7TnuRo1abCGtf+fXPfrAddgq8+xQyH+71nysMZlDNbpTf5jBIyoLxmjIRfeVdNeSS++rXoFlrBHPdW6PN+fcLcX9ybktvjxjyZolDEdaOCEBzXqxnc919hNh6QJizRkeng/f7t68DW4dtU43zmp0X4MW9J67oN2rzdJmSs0xOndtsSl2CnLfJUxl3J+UtuvX/vn3/ozUn5JXZDy+9DXwF5xDW53/1J1SVWIaURt/B8nSYrRxNHWdXeq5sRVKL/EJTkmeH6HYf0fi87o+qQ8ZZ6SYo/rWECSZZmp2Bui1Hyg1JYkbdaZA82KumGmrrKaGg6oxtr+zG7VN0gDh9qSdkVpyDj7866SpRhHjFqqt9kuvk+orrpJAx0z/Rf0C1U6mvdEYHyw5xujqFEOtVRv9I86v7lAZ05KQ0ZZSbeHffT80/NN0uDrvPt/Qqd8+5b05m799YL0haHhfOAI8/yN0fNPz9ZJ0fFhJeV71t6ljIyM1o+OfNPfruM65hsZ36zz70lR19gqI8IwdPRSs6kDXCrzXYCLVeF0SXHX+T5c1q5KCxjFq65xSYPiFbCEgXXxCiVUPG2GHINcKrN9Y1xdYv9A2jreKbPWaHt5ucrL79DI93bqrrUd+O29+EPPhxTbB8PhHZgT+OmGHwYkmM1vu6Xoa8J6/4Ujao5nFMn+Ic5uwJQbNND9tvdv5B01vdPUuoQ9+gbFTLc3GELGv6FBSU06/aL/A+inG15v9aEzcNTFrU8uSF9I6KK57YVpAV8C1f7hiBoUrwT7BxLr/RRKyHiBxrYqbayQWw6NDfgP2f6t/3HVN0qxw8O5hoWpsUrFvr+BXDn3NSk2znONSBnfuvz9DZeUZHw4sX+zf+Zck+1vPFcv2/++nHvkCvv8s5QyOkYN+7bbKmu852ckqKGPL0mXWCraxutjCX78cM+/7WukR66OnJuqtFYf1IpVkW3/gJurIy4FnJ/9+G7nQtU6P5D1HWzCbWMV69pme48HO79LNVL3vrhBDw2p0gO+0fHzOtOBy2T7vGt7dOb/zh59Db5RQ6YnqeXQyyG/SIwak6SWd/7ovUb+Xo1utS5hTxoTtOrRJ1Tc+6XrcVsVQXPZIbWY12z76PneWv1dMboq2Ra/FP3gGtywb73/ZyzcroONMRriUNecXzivXyhpM+QY1KSDJbZruPf8zGtq8GugpXX/Dunua3AY+5dzT4hpRO3/H+d2Wr8/72vpqvNdg8P9PzbifvGo5s2b12tGydUdSflVQ4dKDee9CZVppL4QK7WcDRy1/uTsWSl2sD8pb8uZ1Xp78wFp0uOanFehyV26YJhDV0dLfz8bWAYXVtI6+DoNUJauHiwNTFmp8S+5fQ9Hotm5SR+f9D/79IdfUY2t/D0q37/t+JesEvNwhH/+AX223q4ae/l8Gy5tpPxy2Cx3fqnOXj/P9/4IqMLoLHvSnbZFyytPKM962EuAJFVne7/1tOLGYiRtxh3xipUtVnlCefYyT0d80NLZzjmunRkZ4ZWtB+P9YHjsUJOGZBgjwW2ZvliO7c95Rnm2PxdY4njJbtTV10gtH4UYRdeNirkxJiD+ae35gA+kn27I07FD0vBl1jkG/mxtxqcn6AuKscWe07jtGd5pKjYXPrKVe3rmZpoLNXVegRaFev94Rxo8C/dYfQJHMNqMp12nWMXYYieU5yu/s2ms0xnfk2JV3BE40tO2UB++2hlB936gSYiTYqessJ1fYBmkR5PqXf5ntavGBYyEpBTZfz5jqkibRmrIIKnhdODPWnu6zvjiro3jOxdqo3dxO+scumQEIuADZ6jjh3v+QQSJV9e4gn5QS1h3uJ3fT2jD4mI8o2y27YOXs3be9d/+jq7Z84S/ZDL5S76V2HuUHnkNTtJV0dLfa0Ndz76hQUmB8U8/apKuSfBdg5sff0jH3UkaaZ2fMcrdZjz5Gg2ULbb9OY0LmMrk9VGt7Rr8e502RuMvTS+/Brf6gs2rnRH02OFZXXR+bb9+bXLEK7bV/xXFqj0X+MVf6GtgL74Gt/q9Fav6aPAF3zr/f1y4/8eiM7o8KW87wT6uv7ca9W4vkQ/CKlPPT9f+suMaOqerVlp36eMgo9IDhsZLF+paz5nyGjA4Rjr/gT5VsT4+7xmF9pWfWw/76HcbBjz8JzkSXbby8yd1KuzbLXTu/Dvi8oyUXyqrxN0zlUGTHr+kL24Shsfb/gMp0KLcqdK+9bbSKNuV1as62yo7Wq+Dmqoso7QzZNxVpwa5bGVL1qOLb0fy2hrdlfFddTIdD/DpvnfVosG6OujIsekbGr5sgnToeX9ZYKgy9E55Rx9/JA28ptVHAI/pX1NstKd0MfADaeBItq9E/i7vhz/jQ2HI+N5a/V1NgWWbrcoru1OW0nfOV5LLVrpXUOX7httilQDmW2VzxhdHIePOD1qVbVuPoPPJOsq5R64gIxoJt41VbMCHuEDD4mK8Hxg9H74a7H+f1iPM6pKEdYc1x2H/G1yvg41mr1CCj0gFXkPCYJXJp3quL0mZZullx/hfn/Z07vxDxgu362CcURWU41TWFAW8h8paX0JDOnOuyTO30fz9drS8NKjjqvrLBcm+0Jukm4YNlk782ZhP3nP0rGtwO5U/S8ZoiKQhGf6kedSEmFbVR1YZ+eG7ntdpTdCoEGX6reInPlKL3N6pQfZHB6YAXZLefQ2u/cMRf2Wej3f0NuQ0N1siecnnF97rF5KrLsiouieRDH3+QfSya3Co/VvTiOwp0qX9H3fp/8citC5PylVdo7MaqVELg5UP71bDu82KmjTP/63zsLVyTIrS2TescuUOqj3feoT3zPtq6VSJe7GaXE0amDLf/43ztK1KTIlR/Zu2hdzspm3VsESp/pgn6W4+5tLAlOWdvl3ZgMExAQn0gIeXtx4pf/MD/V0x+tIt5rdfnTj/iPB8OXNpJeZhOvO+Wsw2+4j/xvZuBlagtCkxaji6x3OxS7tOsbJ/i1mgRcZIeSDPBSw0I+7cI1eQ+Zk+hYcCysDMxUDCZf38PzbfQp0QNWeCBlrzA70+/agpeHnh9AR9QfZRkm9oeJBRmpDbh6H5bU9JZ7ByzgFTbtDAgLnaVmIdpHzS69OPQsyb9AqM/16NtvmZneUZvQ9VIi/vIlHlKi/frjWz7O3eD0e+Dx9ZSs9pe5ThzLm2f77AeK6OGGsodIrzAzUELQ8sVvXRpoD5iUrbojunxNjK6QxpW/R1h+Su8XwgqK4JnN/YUcPiYgI+/CSsW9Z6FKHd87etetve+bfHVjbYKcbr07bOnL9xjQxQrOqj8Ro73t+SMDw+sOohx9mhUZbaPxwx5j92rb9UHVdTzHjdu8I7qjbjbt07KVrv/b9QCw11lvdvuAuqzHrWNdg7Jcg7R9sUNSbJmKvtTayNtT38PF+0hmbE9/5RDReSNPISb2fW/s/fu6/BnpFXM/n2fzFq37/nGujSGyFG2hPWpStJLh0pVBecX3ivX7vnn2lfB6jt829XT78Gt7n/XB05N1Zj4/wtYf0f14ZL/T/2srnnGZWWlqr0mSAfBnuoblp9vfUq2/bV12MWVmjU9cFjV83eofE3HLOttu1ZOG7Iu95Vts2V143tfYx+QVfpDiEqP7Dk3D7/e4CxsnnQlcvN1dPt+5i2VTdkj9VfzW18NmiEb1V2z8rrLs3XsPP2FdRbH8M+R7yt87f2r4C2CDBXSDdXX7ctzhazsEKjZI8HmV9ubW/uN8Tvfsbq7Xps8kDpPWPVcXNFyiCrSgYmwk06WHJEjsx4vZGapupWq36aq3a2Fw+jj/0cG6s8qyDbVzYOg/XzH/8/GfpuR/6fMlfUVeuVbT3M1XFDrZ7epNPl7yo24xrVtrn6rrW92W4xVidvdZ6e7eVddbdVqfgS/wrAarX6buCqu61X5229Km9bfQY8ke9ZYKjVaxYocB/m6uvelZvVogP/eZfW2POFVquibpMy01XvXX3WXNXWXPW1vbja6ZPgW6W3nfejcZ6tVpe1/43ZVs5t/UWUefeD1vuW/e/YtpJ78OqTAi2yl1u6tqlM8/X1c8YK322cv/n6tF79vY3jt3XulpAr2obx+rR3/PbOv53zS/Guvu4fNfG+nsbqwPa7S5QdHetZTCj7uG/l4I2rRmqRdyGklwu9KwJb52yu3h5k9WePUCvzhmr38q247vHeb57QM7aRc7929tOmTq6+3uradrmvwd/Q8GBTcoLdZcJ+J4kLh3Tsvj8qxrrzhVE55L8uevoEXOMDfj7zvMx4+32innpOIxV89Xo/cx/mdb73X4MD99HG6uUd/gxj7lsdO792Xj9L6PM3ruHm69feNbCda5wU2Wtw2/v3r77uux5a18uAFdZD/R9nu+66bOcpa8V47+sYzmuktl6nNq6dxvXXp6lGzy35pf4S0NjGfm5bqZe++1UN1An9Zt6juizFipeom5LyvmvAw3/SaMeRwFugoe/IcXpXBA38DxBAz9DuB7r+IOQHncvw+vSqa2SoD2yh2juqq/YD9BZBkr7+KILX4O7ef5cK+Tp11bWzrf3cqpU//56+GtN7kvKuL18HAAAAACASbpuum2KkloO/7hUJuUjKAQDojaJ0y+0Vcs6t0Cs3d3T9lD7u2k1yzq2Qc+48BRZYBnJM9rx+zls6uL5JmPsH0JdxDQ5l1s07PNfI2wOnk5q66xq85JlSlX73q9LBH/WqW6JRvg4AAAAAQIQwUg4AAAAAQISQlAMAAAAAECEk5QAAAAAARAhJOQAAAAAAEUJSDgAAAABAhJCUAwAAAAAQISTlAAAAAABECEk5AAAAAAARQlIOAAAAAECEkJQDAAAAABAhJOUAAAAAAEQISTkAAAAAABFCUg4AAAAAQISQlAMAAAAAECEk5QAAAAAARAhJOQAAAAAAEUJSDgAAAABAhJCUAwAAAAAQISTlAAAAAABECEk5AAAAAAARQlIOAAAAAECEkJQDAAAAABAhJOUAAAAAAEQISTkAAAAAABFCUg4AAAAAQISQlAMAAAAAECFdn5QPW6sxeRWa7H0kpZgd0CsMHaP//cjd+t8zY8yIR3txAAAAAEC7uj4pP7Nab+ena39+qc6asXANW6sxeTs0dJgZwGVztqnt3197cQAAAABAu7o+KUefcra+yWwK0F4cAAAAABDaFYmJiRetJ8nJyXK73bp40dd0CZYqKW+eVJYud7URStmkyXNG+p6etfoMW6sxSycpKqCzR/OBp/T2rt1ms6FAiyrTVb+vThOnOKTGKpUdHas5U2Ik1zblZ+d6uuU4lZfp8G3lLknWy4X+vZhxNVap+I6Fqu1s3H5sSQnrDitriln27VJZapqq1Xr7VufXG9zzjEq/layWgz/S4h+8bkYBAAAAABFJylM2afKcoXJvvlNnz/gT8RZ7v2FrNWbpKNVbfcJWoEWV85XUWKXiQunO3KmKdW1Tfs0E5WXKk/TmOJWXGa+DBeNU4ZSUtkXLc6eqwUp807Zoee5Yuay4qb24CrSoSHrZSsLN/ZvHz3H6z01B4ub27ZixersemzzQbJaaDujpu9doj9neXUjKAQAAAKBdl718PWb0SDUfeMGfbJ9ZrQ/ek4aOXmr07Dy30xq1btLBklzJVacGbyxlvEMN+zb5E2rnQr3hkpLGF/i2l2LkuC3L9tzUVjzXn5BLknOPXI1S7HBP/4Th8ZKrwn/8wkNyK14JaZ6n4Z1faHvW3qWMjIzWj8uZkEvSLx7VvHnzSMgBAAAAoA2XOSmfqS8MlqImPe5bnX1yXoVGXW/26y5ZSoiTYqesUF7lCd9jjq3SXM6F2lhQJdn6LMrpQFxSSpF/33mVKzRxkD9We7pOcqQr3ZuEJ6xLV5LqVOtUeOfXjhmrt6u8vLz145drNMPsDAAAAACIqMtevh6zsELXfdTO/PBLLF9XSbJedtnKzLVFy3Pj9UZqmlR0Ql8/t14bVxWbGwdnlpObjLhnvnidvxxdWUrfuUKOo95jmvPN1RSw75SOnh8AAAAAoNe6zCPlUtPR44qa9EDbtzs7875aFKUh42aakUtWXeNS7JRlvpHqdtlK34My4sPiYqTGOlnfJSSsWxYwUu4pT1+v/NRk7yMw2e/w+fVU9zyj0tJSlT6zxIwAAAAAALy6fKT8qtk7NH5S6/XTA1ZPN1Zfl30FdovRJ/zV19seKQ+2urnsK5y3FVMYcWuxOeupa5vKNN8/+u1duC3Wt7VHx47RC9y2Ui9996saqBP6zbxH9aIZBwAAAAB0fVKOthil7F6tS977glu18uff01djSMoBAAAAIJTLXr7ev43UEFspu8Usee8Tbpuum2KkloO/JiEHAAAAgBAYKb/cgpWvN1ap+A7rNm6935JnSvXtZHGPcgAAAABoB0k5AAAAAAARQvk6AAAAAAARQlIOAAAAAECEkJQDAAAAABAhJOUAAAAAAEQISTkAAAAAABFCUg4AAAAAQISQlAMAAAAAECEk5QAAAAAARAhJOQAAAAAAEUJSDgAAAABAhJCUAwAAAAAQISTlAAAAAABECEk5AAAAAAARQlIOAAAAAECEkJQDAAAAABAhJOUAAAAAAEQISTkAAAAAABFCUg4AAAAAQISQlAMAAAAAECEk5QAAAAAARAhJOQAAAAAAEUJSDgAAAABAhJCUAwAAAAAQISTlAAAAAABECEk5AAAAAAAR0uuT8lk379ArN880m9Gdrt0k5y1LzdaOu3aTnHMr5Jy7SdlmDAAAAAD6ge5Lyket1dbsF7V+lBnwW5jxorZmW4+1Wmh2aMesm3fo+6POatefd5uhkK6avUOTl6/VVWbAlLJJk/MqlJRiBqAPS/VWzLxL/DJkqQonj5Rrf7rSXlmmIjMMAAAAAP1A9yXl7Zg2rVAZI06qvGiJFhQt0YKi1dpidmpL9FotHyW99WqQhG7YWo3J26Ghw8wAPAq0qPKEFuWY7eHarZX7D0ijHlfhtWYsTNFfVoKOq+ZDMwAAAAAA/Uf3JeXHVmtB0RKtOGYGPJJivyidOtqxRNwme9QkRZ3+nVZeMCNdpHqZ9ueny11tBiBJurBaG481yzF6rWaZsXBED1aU2QYAAAAA/cwViYmJF60nycnJcrvdunjR19RxcY+o+I5xGuh96t4bPDFfmPGiMlShBeW/MkNhWKrCud/U+VfvDEzKh63VmKWTgiZ7zQee0tu7duuq2Ts0/oZjOvbuKI2a5O35Xqn2b9ns+bexj7NlQRLzlE2aPGek/3nDAdVsXK1P7H1CSFh3WFlxFSo+l66sKTGeRtc25Wfn+julbdHy3KmK9T5t2LdeG1cV++M5TuVlOvzPJUlNOlgwThXO1tursUrFdyxUrQq0qHK+kgI39LCfQ3vHt0Sv1Su3j9JR8/cQjms3yTlZKqF0HQAAAEA/1vVJuc9/aH12uhSQlHvagiWFLUd+oqw395nNwbWX0A1bqzFLR6l+8506eyYwdNXsHRo/KcqfiHuT8JZWyfdSJeXNk8z2NvYdjoR1hz3JuJUEexPghpJkvVzoT4h9z72JdKyVGJvxtC1anjtWLishV5bSi2aoOnuhahVke1ubfMewMfcfdHvLTD15++MafDRdOR0sQ5918w59P+Z3SnvL+2UIAAAAAPRD3Ve+HtSvtMI7h7z8lKRTFd755EvCT8glzYoZKl04r3fNQLgaDqjGGhk/s1v1DdLAoR1ZtCxKQ8Z1pL+hsUrF1qi0c49cjVLs8CxJUsJtYxXr2mZLlnPl3Nek2NEzlCBJjnjFNlbJacWde+RqjNEQ38B5sSp8Cbln+yMuKTbONrLfhnaPH0RCTAdeC++K68v1Agk5AAAAgH7vMiflfcCZ1Xp78wFp0uOanFfR5Su0D4uLkRzzlVd5wvfwlblLkqtODYOmKs1apC3nLk0c1KR6l79LwrrDAdvPMSvd29Du8S/Vh8uU9kq6NuqBrrmtGgAAAAD0Yr0yKX+t6awUPVg3mIHL5cxqvZ2frv356dpfdlxD53TdSu9nzjV5SttTkwMfd9hHv6WkTG/SnOmQu8QqXffMN8+aIh0s8G9bZkvY2xPu8e1qm8K/JZ3ltaaz0vDx3J8cAAAAQL/WK5NyfVgjl0ZqfKjbcZ15Xy2XWmIertrzajbbJN23sVzl5eXavnqGGWpT7R+OqMExP+TtyqzycnvCbJ8XnjA8XlKdam1JeuuR8uOqb5SSxheYgXaPHyB6pkZHN+t8Rxd5AwAAAABI3ZGUT5tWqK3ZL2qrd0G3pOkvamv2iyqeNsXsegk2q+a05BgRqvx5s9xlxxVlKzEfMzu8BP2q2Tu828zTUElD5xjbp2zy7XNyXoUmL52klrLOLfoWlHOhNhZUKdYaCfc+lq/zzDmvXVUht1FeHhjfpIONDs2xYml1KtvXZBykWBWFVWqw76fIm6C3c3y7WcNHKerCMVWSlAMAAABAp3Tj6uvdLHqtXrl9kmr3d3zl794speiE5si4hVqOU3mZ8f5bol0Ol3I7NFnbD9auUCvoAwAAAEA/0OUj5ZfNhdXaeKxZjsmb+tG85CwlxJltQUrWu91MPTl5knTshc4l5JJ04X3VtjUFAQAAAAD6gd47Uu416+YdWq4XNPfPHV9srHfy3Dc88F7vLpWlpingNuvd6dpNco6oufRbml27Sc7JIyUdD33PeQAAAADow3p9Ug4AAAAAQG/Ve8vXAQAAAADo5bo0KU9OTtYVV1xhNgMAAAAAgCC6NCkHAAAAAADhIykHAAAAACBCSMoBAAAAAIgQkvL+augY/e9H7tb/nhljRnqH3n7+AAAAAEBS3o+dbdJZs+2yuU7/+cjd+s9/Nds7IKLnDwAAAABdg6S8nztb32Q29Sq9/fwBAAAA9G9XJCYmXrSeJCcny+126+JFX1OHXOr2UoEWVaarfl+dJk5xSI1VKjs6VnOmxEiubcrPzvV0y3EqL9Ph28pdkqyXC/17MeNqrFLxHQtV29m4/diSEtYdVtYUs2zapbLUNFWr9fatzi8cs9Zo+/8craP/eZfWvGYGI+hfv65XJv9VP9z/JT2cdp2nrelP+uHmt7XX3seKSdLJNzS39APvCPnXdb0/4ufr00XueUal30pWy8EfafEPXjejAAAAANAj9MCR8hhNHF2n4oIqNQyaqjlxFcovcUmOCUqRlfDG62BBsvJTk5VfUKXYzBNalOPdPG2LltvjqcnKtyfc7cVVoEXjD/ljBVVqcMz37z/Hqawp8m9f4gqSkLdxfpfovo3lKi8P8th4n9m1+8R8RQ9P/qt++OwvNffZN/RezFf0HWtu979+Xa+kDdKhLb/U3Gd/qbnPluvQl76uV+ZdJ+kD/U9rG0nvOa0+v+zahBwAAAAAeokemJRLbqeVJDfpYEmu5KpTgzeWMt6hhn2bVOH0NjgX6g2XlDS+wLe9FCPHbVm256a24rl62TYqLuceuRql2OGe/gnD4yVXhf/4hYfkVrwS0jxPwzu/zvvZ8gxlZAR5LP+Z2bUbfaBf+0bGP9D/OykNHDxIknTPjddJJ/+kdb4J301at/8DKTFR9/h30P1+8ajmzZvHKDkAAACAHq1HJuWhZSkhToqdskJ5lSd8jzm2SnM5F2pjQZVk6xMwSt1eXFJKkX/feZUrNNGTb0qSak/XSY50pXuT8IR16UpSnWqdCu/82nSffmyNfP/PSRqogZr0P63R8B/rvp4yUh5SjEZ8SWo53xjYXPdXtWiQRgwNbAYAAACA/q6XJeXFqj0nNexb7y8vtx4Bo9sLtdFqL3EpKfOwL4luL56w7rDmOFwq8+17vQ4aOaYUo4m5noTbU8ruLV0P9/xC+pm+a418/+cBtahFB/7TGg3/rn7WY0bKQ2nSqb/6R8194r+kgWrUKZZLBwAAAIAAvSwpl6prXIqdsiwwyW6LrfQ9KCM+LC5GaqzTGe/zhHXLAkbKPeXp9qR7nL9UvTPn18f84p0PpMSvaJVvVPw6/WfadWqp/pN+4evVqL82SdffaFsMrqvd84xKS0tV+swSMwIAAAAAPUavS8pVmKb8kjrfSHWrEvQcZ0B7Xu5UNZTYEud24tXZ2+QeNFVZ3nhWXIXKXNbBpeqSwNL3Vsdv7/z6uv/3hn5YLU1YeLdeeeRuvfLI1zW0ulz/v932W5c1ad1v/6SWxK97+9ztXQiuC534q1okKflfRVoOAAAAoKfqYbdE6+mylL5zhRxH12vjqmJfq+cWaXX+FdjRA9yqlT//nr4ac0K/mfeoXjTDAAAAANAD9L6R8ogaqSHGdGkFKXlHD3DbdN0UI7Uc/DUJOQAAAIAei5HyjkrbouW5UxVrb2usUnHAvc4RSUueKdW3k6WWgz/ilmgAAAAAejSScgAAAAAAIoTydQAAAAAAIoSkHAAAAACACOnSpPzEiROUrgMAAAAAEKYuTcoBAAAAAED4SMoBAAAAAIiQbkjKl6pwboWccyv0ys0zzSAAAAAAAPDqhqR8s3JeSVfaqwekUQ/oyWgzDgAAAAAA1D1JudeF3Tp6IUqDScoBAAAAAAiq+5JyAAAAAADQJpJyAAAAAAAipBuT8t16v0lyjFhqBgAAAAAAQPcm5VLRW+lKOzVezrkVKrzWjAIAAAAA0L91a1KefUuFnCNqlPZKunI+NKMAAAAAAPRv3ZiUz9SXYyTXqc1mAAAAAAAAdG9SDgAAAAAA2kJSDgAAAABAhJCUAwAAAAAQId2XlEfP1OjoZp2/YAYAAAAAAIC6JylfqsK5FXLePkk69oJWkpQDAAAAABDUFYmJiRetJ8nJyXK73bp40dcEAAAAAAC6STeMlAMAAAAAgHCQlAMAAAAAECEk5QAAAAAARAhJOQAAAAAAEUJSDgAAAABAhJCUAwAAAAAQISTlAAAAAABECEk5AAAAAAARQlIOAAAAAECEkJQDAAAAABAhJOUAAAAAAEQISTkAAAAAABFCUg4AAAAAQISQlAMAAAAAECEk5QAAAAAARAhJOQAAAAAAEUJSDgAAAABAhJCUAwAAAAAQISTlAAAAAABECEk5AAAAAAARQlIOAAAAAECEkJQDAAAAABAhJOUAAAAAAEQISTkAAAAAABFCUg4AAAAAQIT0+qR81s079MrNM81moBdbqsK5m5RtNnfYUhXOrZBzboUKrzVjAAAAAHqCKxITEy9aT5KTk+V2u3Xxoq+p80at1dbpiXLvXaIVx8ygx8KMF5Uxwnp2UuVFq7UlsEubZt28Q98fdVYlryxTkRkM4arZOzT+hmOq2bhan5hBu5RNmjxnpM6WpctdbQb7sgItqpyvJO+zhn3rtXFVsdEngnKcysuUylLT1Gt/LTPuVsFD4xXjfdp04KfKXX88oMusm3fo+yOO6QevrtZrAZHwZd9SoUyVKu2tzWYIAAAAQA8RsZHyadMKlTHipMqLlmhB0RIt6GBCrui1Wj5KeuvVIAn5sLUak7dDQ4eZAbQvVy+nJis/db0ONpqxy6VAiypPaFGO2d4XjNS9947UX557Qg/MfUIPPFcjTfqOHr03sNdrf35Bb2mSvn/L0sBA2GbqyzGS6xQJOQAAANCTdV9Sfmy1FhSFHiVPiv2idOpoxxJxm+xRkxR1+ndaecGMdJHqZdqf399GydH9juvnS9bp53u8T/f8UntOSNf/6yyj326t3H9AzcO/qSejjVBYRmpwp7YDAAAAcDl1ffl63CMqvmOcBnqfhipfX5jxojJUoQXlvzJDYViqwrnf1PlX7wxMyoet1ZilkxRla7I0H3hKb+/a7StfP/buKI2a5O35Xqn2b/GOKBr7CFq+7i1t92k40H45vF2OU3mZDv9z1zblZ+d6nxRoUWW66gs2STkrNHGQJDXpYME4VThDbC+jT9oWLc+dqlhfzNWJcu8spe9cIcfRIOXrxv4DStxznMpLq1OxM15Z1jk2Vqn4joWqtbYPef4VGpLrL50PYL1GVvl6iTQn1P57mdnPbtC39Ts98IhZqD5TT97+uEafekpz/7zbiLVnqQrnzpP2pyvnQzMGAAAAoKfo+qTc5z+0PjtdCkjKPW3Bkq6WIz9R1pv7zObgrt0k52SFnks+bK3GLB2l+s136uyZwNBVs3do/KQofyLuTcJbWiXfS5WUN08y29vYd3gKtKhIetlKwr0JbkNJsl4u9Ma9c7qtZDdh3WFljT7iSTzN/mlbtDx3rFy+pN2zvXz766wQSbl5fO/xYq3E3Eq4fYmyETe3b3X+/n0G/Rna2387ZqzerscmW18Z2TQd0NN3r9GeWWu0/X9O8n2p5NeiA/95l9aonbiZV7fHO7+8/jdP6Jmfm0Hv3PKY33V8Xnj0Wr1y+2DtCvU3AgAAAKBH6L7y9aB+pRXeOeTlpySdqvDOJ18SfkIuaVbMUOnCeb1rBsLVcEA11sj4md2qb5AGDu3ICu5RGjKuI/3tcv0JuSQ598jVKMUOz7J3Chh9rj1dJw2K1zBJcsQrtrFKTitZde6RqzFGQ4yB56TxBYENXSThtrGKdW2zJcu5cu5rUuzoGUrw9XKpzDdynasjLik2zltZEOb5t62N/bdjz9q7lJGR0fpx9xrtkaTX1uguM5aRoYwMb8LdXrxDRuree8crpqlGvw2SkPvEfFlmcXto3hXXJ0sbScgBAACAHu8yJ+V9wJnVenvzAWnS45qcV6HJeRVKSjE7tS2l6ITyKq2HVaIeqOG0bdS3ME35Vvm5q04Ng6YqzVoELecuTRzUpHqX1TlXL6duk9sx33eM5esCE/5LMSwuRrLtO6/yhLKmWOuIh6Hd8+9eM1ZvV3l5eevHL9dohiTNWqPtZqy8XOXl27VmVhjxsI3UvS9+R5NiTuo3S36pv5jhTtusnFfSlbZfWt4lt1UDAAAA0J16ZVL+WtNZKXqwbjADl8uZ1Xo7P13789O1v+y4hs4Jf6X3hHWHNcfhUllqsvIvYZXzpExvUpzpkLvEXvot2wrqycovqJKmrOiylczPnGvyzO/2nb/30cE53W2ff/fpKSPls5/1JuRzX9AuM2hqer/jt0W78L5qNVLjuT85AAAA0KP1yqRcH9bI1VbCceZ9tVxSiXkH1J5Xs9km6b6NnhHU7atnBLQPi4uRGutkTUdPWLcs6Eh5KFb5uD0hbjXv2s75gRrMNvuI8cb7zFCbav9wRA2O+Z1O8sM7/+Oqb+y+EvxIu2nFKn07+YIOPNdeQj5TqSOi1NwUeA9zAAAAAH1Hlyfl06YVamv2i9rqXdAtafqL2pr9ooqnTTG7XoLNqjktOUaEuofzZrnLjivKVmI+ZnZ4CfpVs3d4t5mnoZKGzjG2T9nk2+fkvApNXjpJLWXhL/pWnb1N7kFTlWWVfsdVqKwDpdu1qyoCStNblainbdHygJhnEbTWiW8IOc6AsvrYKSs8z4u8CbJzoTYWVCnWGuk2j9+Ods9fklSsisIqNdj7Wcfv7WbcrXsnRUuK1qSHNuiFV6zHKt0b+P2NFD1To6ObdfR0R1deBwAAANBbdOPq690seq1euX2SavvZLZ9Sik5ojuy3ULNWJI8PvG1aD9Xbz//yuZTbocm3/eCj/evvAwAAAOhtunyk/LK5sFobjzXLMbk/LWaVpYQ4s01KGB4vqU61PT6h7e3nf/nMuvkB3aID2tiphFySduv9praqSQAAAAD0BL13pNxr1s07tFwvdHI0sTfy38fcz6Uya3X2Hq+3n//lsFSFc8er5pJvabZUhXPnySHJ1c8qSgAAAIDeotcn5QAAAAAA9Fa9t3wdAAAAAIBejqQcAAAAAIAI6dKkPDk5WVdccYXZDAAAAAAAgujSpBwAAAAAAISPpBwAAAAAgAghKUfPNuFVfbxog9mKXm2D/rHmVf3TbAYAAAD6oV6XlF81e4cmL1+rq8yAKWWTJudVKCnFDKBtqSqqfFqV3sev1znMDh5pC/TrtuJdYcKr+vhb8fqXyifMiHTvA3rhlQ164dlZZuTSzbhbBa9s8Oz/lQ0qWDHS7IFL8oSu3B+vT7+3Vdx8EQAAAP1dz0zKh63VmLwdGjrMDKD7VSo79TGlphZpf6MZu5w26B/fcujzv/2KrvwwMDL72Q164V//qgNNge1dY5YefWi86n/zhB6Y+4QeeK5GmvQdPXqv2a9vi8p3a3x+91UoXFGxUf+iqfqEKggAAAD0cz0zKe8K1cu0Pz9d7mozgC7h3Kp/T31M/77KZUa6xMX0dP2joUpXHjIC9z6gGfU/1QOPvGUEusZNK6bq+qYa/fbn3oY9v9SeE9L1M+7WTUZfXIpiXbm9SleOTNdn15oxAAAAoP+4IjEx0VdBmpycLLfbrYsXO1dUeqnba9hajVk6SVFmu6TmA0/p7V27ddXsHRp/wzEde3eURk3y9nyvVPu3bPb829jH2bIgiXnKJk2eYytJbjigmo2r9Ym9T1tynMrLtJVtu7YpPzvX8++0LVqeG683Ug9pbOV8JXk6qCw1TdZpJKw7rKwpMf7tzT7m/hurVHzHQtXaercpbYF+nZtiex1PakfqJv1EknKWqTLtvNY7B2tFZmLruI9D63dma8zRIiPxTlVR5WxZZ9e8z4x73F/0tO60/QgB/Yzza72PLH32vZW6+HqSPm8m5T4jde+L39Gkj36nBx55zQx2kmefN/3lp8pdf9zTNONuFTw0XjE6qd/MfUG7zE06ZYNGvDRfQ3zPXXItvl3Nvli6Pi6q0NXZ/j71u5J0aqvVP0tDnl+pEdHepxeqdPTBBfrU+zQq361h55/USS3X6BTP+6yl+km9+8Pi4NurSaeKvqL6Nz3bOqy3RQDzHEOdfzjHt3h+z//8y5P6lwoztkTPlH5byU3/pR/d+6ReN6IAAABAX9GzRsrPrNbb+enav/mAmtUs9+Z07c/3PN7etdvfL3aSRl3zO09s8wE1Xz/PP3fc2kd+qc76t/AbtlZj5gwN2Pf+jiTkKtCi8YeUn5rseRRUqcExX4ty7H0cmlM5Xyrx9ClzOTSnqMATynEqa4p0sMC7fYkrMCFP26LlmfH+eGqy8juSkCtVRbkpqi15TKmp1sNIuAelaEXaea33lakn6s6iVHuPNrRf3n5/0dO6M67au3/Pw0zI/ee3S7VTsgPnpl87U/+MbdIVZ/xNl1P9GU9CftOKVXrhoS9pz3M1atJgDZth9uwMT0L7heonVbM4STWLk3S0Ol6Ol161fYkSoxHZ6fq4yIo3achsK+5NqM9v823vOj9Vo5/fqgG2owxMWanRjiM6ujhJNUVVUspyDZnmiQ14eL601bNtzeIkuU7GaMQCz/bNeVabpJP+Y9QYCXnb59/28f2K9bm/NOmzId24LgEAAADQw/WspDxcDQdUY42Mn9mt+gZp4NCZZq82RGnIuI70t8vVy9aouCQ598jVKMUOz7J3krskWS8Xev595lyTFHedEiQlDI+XXBWqcHo7Fh6SW/FKSLNvHSPHbYH76yjH+LaS7JPaccdWVUqSXFrhPCnFDVVbW4QtbYHSHRe0v9Daf6DU2xyKcu1Stve1kSq1fd8FRY2+xX/8YfH6THW6wphLfvmM1L0vbtBDQ6r0gG90/LzO7DH7dcKCCRoil87YRo0//WGF6uVQ7AJ/t/pdnpFrfzxeV0+TNG2mvhTtkivPv/hd864qtUSPVYw96bWPnr/5gf6uGF3tHQH/9Ie3+/YtSc3HXFJ0fEBSH1KY59/W8Vu55rogC769qEfnzdM8RskBAADQx/XOpPxSnFmttzcfkCY9rsl5FZ1aoT2l6ITyKq3HCk0cZPZoUr2tGrt21TjfaHft6TrJka50bxKesC5dSapTrZWkOxdqY0GVNGWF7xiBo/DtqVR26i65HLPbX0HdbtBg3WC2dYZjsKJ0Xu9bP4/hhrhoyXZulZVPa8UUXx11j3D9t7+ja/Y84S+LT/6SzMkGnTVgaLx0oc5Xau7h0scXpC8MbeuLGG9SmxivgXLI8ZJb461H9lQNNLuf/8B2jCd0arGt/H3aVt1g3352GO8Pr7DPv63jAwAAAPDpf0m57CXu6dpfdlxD54S/0nvCusOa43CpzCotT12vgyHKuEOL0cRcT8LtKWX3zzeXvIm5tf8Sl5IyD/uS+PBYJeaPKbWgWpqSraI2EvvU4YOlxvN61wx0huu8mjVYXw5xvu+euyC5dtlK670P38i9pDN1ulLxunjZFwA7rqq/XJDsC71JumnYYOnEn7tkPvmnZ+uCjEo7dHW09Pez5rxqr2nX6Qtq0scnJZ2sU4tccvnKyq2Hf2S9bRs0InuqZCs/r9nVek2AUDp1/u356ANdYbYBAAAA/UTPTMrPvK+WSyox74Da874Fquzu21iu8vJybV8dOJF4WFyM1Fgna7pzwrplQUbKQ0sZ71DDvvX++eKp4/yl7MG46tRgtrVxfq04z7YzHz1Vd02JVvPRt4KWm3eY8y293RityTkLgpbDV/7BpWbH7Da/JNCHu/W5hhj9c1xbI8dtu/X7L6m0tFQvff9WM9Smv1QdV1PMeN1r3Zt8xt26d1K03vt/xmJyt63US6WlKv35SnXoCFsPqV4ODXvY/7NF5c/XkAtVqgsxkhw1e6oGXjiipjclvblbf73gkKOztyubdp2+IHsCvUEjgoyUf3q+SUqc0HrRxU6cf2hZ+udNMbrSXlbis0TPlJaqtPQZLTFDAAAAQB/Ss1ZftzNWSDdXX/evlj5TQ5c/riHv2uLWquw21vbmfhVihfb7Npbrjuullv1P66619snEBVrkW1Xds/J6mebr6+fWa+OqYu/q62PlKgiRbKdt0fLcqYo1mn1z0M2V14356ZaQ59dq5XVjdfOcZar0rbru4Sp5zD/HO0hckmd0O7uy/bjkW7l9su3LirZWX28Vl3Qx/U/65KYjuupHCwJHUX2roRuaavTckl/qL9bz21bqpe9+VQN1Qr+Z96heDOzdNuMY7/3mCT1jGzn3uFUrf/49fTVGOvHbeXr0F2a8DdO26gZ7yXnA6unmyubeBddsc8hbr54euI+ofLccMrfxG/Dwn3yroktNOrXriL40O15nbCuotz6GbYX1Ns+//eP7XLtV//2dsfrcT1vfi/6SXl8AAACgF+m5SXmflKX0nSvkOOpN4L08t0irC7htWrfJWabKTAW5BVpPs0H/WDNfF/cHu11WOLxJnbrvllq3fv8lfW+i9F8/Xqwn/2BGO8uTlCvgFmh9UVu3Q/PwvL4DScoBAADQp/XM8vU+a6SGBCl1N0viIUlP6PO/demzycv1WWfmlt/z7/pqjNTyzt5uScilJfr3iQOlpr9ob5cl5P3HxfTl+m9V6fMhEnLpVk2/caDU9F/6NQk5AAAA+jCS8ssqVy8bK6vnVZ7QnLgqFXfoXuT9xKHbdfVv6/TfqR2ZP32rVv68VKXfStaJ387T4h90fUruma/+bSWf+A237OqUDfpscp0GmFMTLPc8o9LS7q1yAAAAAHoKytcBAAAAAIgQRsoBAAAAAIiQLk3KT5w4wSg5AAAAAABh6tKkHAAAAAAAhI+kHAAAAACACOmGpHypCudWyDm3Qq/cPNMMAgAAAAAAr25Iyjcr55V0pb16QBr1gJ6MNuMAAAAAAEDdk5R7XditoxeiNJikHAAAAACAoLovKQcAAAAAAG0iKQcAAAAAIEK6MSnfrfebJMeIpWYAAAAAAAB0b1IuFb2VrrRT4+WcW6HCa80oAAAAAAD9W7cm5dm3VMg5okZpr6Qr50MzCgAAAABA/9aNSflMfTlGcp3abAYAAAAAAED3JuUAAAAAAKAtJOUAAAAAAEQISTkAAAAAABHSfUl59EyNjm7W+QtmAAAAAAAAqHuS8qUqnFsh5+2TpGMvaCVJOQAAAAAAQV2RmJh40XqSnJwst9utixd9TQAAAAAAoJt0w0g5AAAAAAAIB0k5AAAAAAARcsXNN9/sq1VPSEjQ2bNn+2z5+j333GM2BfjFL35hNgEAAAAA0G36XVK+eetms1mStHTBUpJyAAAAAMBl1a8WesvJydGm/7XJbJYkLfsfy1RYWGg2AwAAAADQbfr1nPJUx0699m+/12vT1+k6MwgAAAAAQDe7/El53CMqzn5RW72P9aPMDpdJ1Do9dKO0f+83NGvvKn1gxgEAAAAA6GaXPyk/96yyipZoQVGF3Gbscho4WFHNR/VqsxkAAAAAAODyuPxJeQ+RGp1gNgEAAAAAcFl1T1I+aq2vPL1TJerG9lsXPKJpbcQ7vH8AAAAAAHqArk/KR63V1ulxqtm5RAuKlmjBzsOKm96BxDnuERXbty9aogVbn9WbVvxS9+91Q3SUmj98TZVmAAAAAACAy6TLk/KF1yeq5chLeuqct+Hcs9pzSkq6/j+Mnm35om64cYrZKHXB/q0V11M+/Ia+7XrNDAMAAAAAcNl0cVI+RcMHSQPH3h9QXp4xwuzXhnPPKmvnYcm2D/8o+KXvv9J1h2b932+o+trf6zeOWWYYAAAAAIDLpouT8n063Si1HPmJv/TcepT/yuwcmm+F9iVasPekkqYX6vE4dd3+Jb17oVlR185SqhkAAAAAAOAy6eKkXNry3kkNHLvYm0R3gfoGtdiedvn+AQAAAACIkCsSExMvWk+Sk5Pldrt18aKvqXNGrdXW6YkBTe69S7TimDRtWqEeHPvFgJjkGf3OenNfm9v6hNMniJycHG36X5sk79zyldce1ZN7V6lS0rL/sUyFhYXmJgAAAAAAdJvuScp7KHtSrqEv6LWbzpOUAwAAAAAipsvL13uNlvNqjhqt26PMAAAAAAAAl0f/TcqbV+m5d6TJ03+v16av03VmHAAAAACAbtZ/k3Lb7dFm7V2lD8wgAAAAAADd7Iqbb77ZN4E8ISFBZ8+e7bNzyu+55x5t3rrZbJYkLV2wVL/4xS/MZgAAAAAAuk2/S8rbQlIOAAAAALicunT19blz5+o3v/mNPvvsMzMEAAAAAAAM/XpOOQAAAAAAkURSDgAAAABAhJCUo3tNeFUfL9pgtvZzG/SPNa/qn2YzAAAAgH6n1yXlV83eocnL1+oqM2BK2aTJeRVKSjEDuCQ5y1RZuUz3m+3BTHhVH38rXv9S+YQZ6eee0JX74/Xp97aqc6s3AAAAAOgremZSPmytxuTt0NBhZgC9xwb941sOff63X9GVH5qxnm6DRrzk1ogFZnvXuaJio/5FU/UJVQQAAABAv9Yzk/KuUL1M+/PT5a42A7gcLqan6x8NVbrykBmBR7Gu3F6lK0em67NrzRgAAACA/qJn3RJt2FqNWTpJUWa7pOYDT+ntXbt11ewdGn/DMR17d5RGTfL2fK9U+7ds9vzb2MfZsiCJecomTZ4z0v+84YBqNq7WJ/Y+bclxKi/T4X/u2qb87FzPv9O2aHluvN5IPaSxlfOV5OmgstQ0WaeRsO6wsqbE+Lc3+5j7b6xS8R0LVWvrHVLOMlWmndd652CtyEz0Np7UjtRN+okVz5T/uaT7i57Wndql1OxKT0PaAv06N8X2ewiyfYl0p7X/xmqtv2OrvFtLytJn31upi68n6fPBkvIFr2r8bNvPd3KbavK8Je4LXtX4aXU6+ma8Rvv6uORafLuarf7TtuqG7Kka6H3aUv2k3v1hsffZBo14KV0fF22UFqzUiGhJatKpoq+o/s3g2+tClY4+uECfaoNGvDRfQ6x2O/McQ51/OMf38bxO//zLk/qXCuv8LUv0TOm3ldz0X/rRvU/qdSMKAAAAoG/oWSPlZ1br7fx07d98QM1qlntzuvbnex5v79rt7xc7SaOu+Z0ntvmAmq+f5587bu0jv1Rn/Vv4DVurMXOGBux7f0cSchVo0fhDyk9N9jwKqtTgmK9FOfY+Ds2pnC+VePqUuRyaU1TgCeU4lTVFOljg3b7EFZiQp23R8sx4fzw1WfnhJuSWQSlakXZe61MfU2pqkfY3JurOolSzVwipKspNUW3JY0pNtR7+BN4jUXf69r9LrkEp+u46W5J67Uz9M7ZJV5yxb+O14FWNnx2vU0VJqlmcpJrFT+rU4Pkan28r446eqtHT6nTUil9wyGHFvQn133dZ22/T31NW6oaHs/zbK0YjslfqS64nVbM4SUerpRELtmqAJClLQ2ZLJxf7t6+PnqrEh7MkPaFTVpuket8xkoyEvJ3zb/P4dsX63F+a9NkQ22sHAAAAoF/pWUl5uBoOqMYaGT+zW/UN0sChM81ebYjSkHEd6W+Xq5etUXFJcu6Rq1GKHW5PCiV3SbJeLvT8+8y5JinuOiVIShgeL7kqVOH0diw8JLfilZBm3zpGjtsC99cxJ7XDN3Lt0grnSSluqMJNyyXJMb6t3vb9V6raJUXFWaPykobF6zPV6Yogc8mjRjmkkxW2UeNi1b/pkhIn2EbmXXI9uECf2uODr9MASQNuGauBJ7fp1Far7xOqq27SQMfMgKTXPnr+6dk6KTreGy9WfZ61b0l6Qg0npYGDw0uMwzv/to4fxDXXBVnw7UU9Om+e5jFKDgAAAPRpvTMpvxRnVuvtzQekSY9rcl5Fp1ZoTyk6obxK67FCEweZPZpU7/I/q101zjfaXXu6TnKkK92bhCesS1eS6lRrJenOhdpYUCVNWeE7RuAofCcNGqwbzLagKpWduksux2xVVj6tysqn9Wv7KPglydLVg6WW87YXR5JO1qlF8bp6WmBzAG9SO2BwjJQ4X+Nfcvseo1PMqQDS38/aysG33q4aW/n7gIf/FLC9w/Z9QtvCP/+2jg8AAAAAlv6XlMte4p6u/WXHNXRO+Cu9J6w7rDkOl8qs0vLU9TrYaPZqT4wm5noSbk8pu3++ueRNzK39l7iUlHnYl8R3RurwwVLjeb1rBkKqVLZVul5QLU3JVlFHvhg4U6crFa+LrRYwK9bH54OMSifGa6Dq9HGrOdceA4bGSxfq9KmkT883eeZw+8rPvQ/fyHo7Fryq0SmylZ8nyXXS7BRK586/XR99oCvMNgAAAAD9Qs9Mys+8r5ZLKjHvgNrzQUcw79tYrvLycm1fPSOgfVhcjNRYJ2u6dMK6ZUFGykNLGe9Qw771/vniqeP8pezBuOrUYLa1cX6tpequKdFqPvqWp9zcdV7NGqwve5P81HWrdWdbA+HOsx2bzy5JH+7W5xpi9M9xrUvwm4+5pMR0DfGNKm/QiNkOtVRvC/p7kDYoPiVGLa7dnqT8rSNqSZzf6duVDRgaL9kT6AWvBhkpd+njC9KQUa1vV9bx829Llv55U4yutJdV+CzRM6WlKi19RkvMEAAAAIA+o2cm5dosd9lxRdlKzMfMDi9Bv2r2Du828zRU0tA5xvYpm3z7nJxXoclLJ6ml7E6dDbYoWRDV2dvkHjRVWd7S8qy4CpUFy6lCqC4JLE1vVaKe4wyM5U5VQ0k7iXsribrTW3peWTlbKnlM/77Ke5LOrapwRWtyrie+Iu5Nrd93wb9p2gL92retZ/uEfUXK9s6PD493AbObZraeK731ds/CZ9lW+fh8fSFg9XRJcsjhKy+fL+1K8sffXKB3i6r0hdn+8vPxL7mNhd5C+/SHGz0Lx1nbTquTq7rJ6FWs+q1VarGXyVsLuYV1/mHyLoj3ucPBtn1Pf22SpGT96z1mDAAAAEBf0bNuidbnZSl95wo5jq7XxlX+RMxzi7S6gNumdVqQW55Fxgb9Y818Xdwf7HZfbVjwqsbPVuAt0Pqktm6H5nHr91/S9yYO1InfztOjvzCjAAAAAPqCHjpS3leN1JAgpe5mSXzf8IQ+/1uXPpu8XJ+1mluOi+nL9d+q0udDJOTSrZp+40Cp6b/0axJyAAAAoM8iKb+scvWysbJ6XuUJzYmrUnFH70XeGxy6XVf/tk7/ndp6bnb/tkGfTa7TgB8tCL7A2z3PqLT0e/qq/ks/4pZoAAAAQJ9G+ToAAAAAABHCSDkAAAAAABFCUg4AAAAAQIR0afm6JOXkWPf2Cq6wsEP31gIAAAAAoM/qlqR80//aZDZLkpb9j2Uk5QAAAAAAeFG+DgAAAABAhHRDUj5GRf/2e732b7/XbxyzzCAAAAAAAPDqhqT8bWX/329o1t63pBuX6QdRZhwAAAAAAKh7knKv5tf0dnOUBg80AwAAAAAAQN2alAMAAAAAgDaRlAMAAAAAECHdmJS/ppMXpBuu/Y4ZAAAAAAAA3ZuUSz+p/oZmfTher/3b71U01IwCAAAAANC/dWtSfn/K7/XatTWa9X+/oeyzZhQAAAAAgP6tG5PyWUqMlt798KdmAAAAAAAAdG9SDgAAAAAA2kJSDgAAAABAhJCUAwAAAAAQId2XlEfN0pioZp1vMQMAAAAAAEDdk5SPUdG//V6vTb9FemeTvt9sxgEAAAAAgLonKX9b2f/3G5r1f7+hb7teM4MAAAAAAMCrG5JyAAAAAAAQjisSExMvWk+Sk5Pldrt18aKvqcNycnLMpgCFhYVmEwAAAAAA/VKXJ+UAAAAAACA8lK8DAAAAABAhJOUAAAAAAEQISTkAAAAAABFCUg4AAAAAQISQlAMAAAAAECEk5QAAAAAARAhJOQAAAAAAEUJSDgAAAABAhJCUAwAAAAAQISTlAAAAAABECEk5AAAAAAARQlIOAAAAAECEkJQDAAAAABAhJOUAAAAAAEQISTkAAAAAABFCUg4AAAAAQISQlAMAAAAAECEk5QAAAAAARAhJOQAAAAAAEUJSDgAAAABAhJCUAwAAAAAQISTlQEQtVeHcTco2m+GVpc++9yd9dq3Z3p911WuSpc++59bHa9z67/QsMwgAAIDL5LIn5VfN3qHJy9fqKjNgStmkyXkVSkoxA7gkKZs0OW+TYsx207C1GpNXoTGzZ5oRdJmlKpw7TwnHSlVkhuT/HUz2PnrW72Kmhi6vCO9vudOy9Nn3Vuq/P6rQlR+asf6sWFe+Xqf//s6r+qcZ6oCL6cv136rSVWuS9C8VxWYYAAAAl0n3JOXD1mpM3g4NHWYGcHksVRJfaPR42bfMk+N0qeb+ebcZ8vwOl06SDjyl/fnp2p+frrd3BevXPWIWVmjywqVm82XlSxpffsIM9XkJ6w4rb+cWJZgBy6HbNeC4Q59+b6sumrEwXRwSoyv/sltXmAEAAABcVt2TlHeF6mXan58ud7UZwGVxZrXevsyJYL8SvVazhzfrrWObzYjHsC9roJpVf7invv67dXZjuvZvXK1PzFCX2KDPJsfo868vIGkM4XMvb9PnY6fqswlmJBxZuniN2QYAAIBIuCIxMdE30JKcnCy3262LFzs59jJsrcYsnaQos11S84Gn9Pau3bpq9g6Nv+GYjr07SqMmeXu+V6r9W7zJibGPs2VBEvOUTZo8Z6T/ecMB1XQkOchxKi/T4X/u2qb87FzPv9O2aHluvN5IPaSxlfOV5OmgstQ0WaeRsO6wsqaYBeC2Pub+G6tUfMdC1dp6d4+lSsqbp6Fms2yvccomTZ4jHSuTRlmvYcDrF7gP6/cWoNXv+biO5S9TU0CnNqRt0fLcqYq1nge8PgVaVJmu+oJNUs4KTRwkSU06WDBOFU5vf/P1ldHH3L/x+2tL6rrVWhHn0v64FE0eJLlKdkmZs+XQBe0vWKsVTklyaP3ObE0eZG1lj6WqqHKaPip4U9fkzpZ1lq6Sx5RdaPWXZt28Q9+P+Z3S3gqVlK/VmKWjVL/5Tp09Yw94fj+y/11Yv9P8ZWrSUiXlfVN/3/w7fWGp9XtsltvcT4i/oasWVmjU9bZ+Pv7fcYy9T9C/PfN9aH9/hHl+E17Vx7fW6aofBU/KU4pOaI7tLeAuSdbL3tc3Yd1hZcVVKL9mgv99Yv8bV5bSd1rvLRvXNuVnH1f6zhVyHF2vjau8Jd1pW7Q8d6xcBeNU4XAqL61OB89N1USH1LBvm1yj52vioMBzCDw/+/vPc+whzvWqT/Ofg7Vt8GuLWv8NeP1zkVufapuu7nA1gWdqwD//8iSl6wAAABHWtSPl3tHV/ZsPqFnNcm/2lN22Kr2NnaRR1/zOE9t8QM3Xz/OXWlv7yC/VWf8WfsPWasycoQH77thoXYEWjT+k/NRkz6OgSg2O+VqUY+/j0JzK+VKJp0+Zy6E5RQWeUI5TWVOkgwXe7UtcgR+607ZoeWa8P56arPwOJOT3bSxXeXmQx8b7zK5BbJbb9tqdLbO9RtaXHpKkkRr19fOqsfrGTpLDN1/Z2sdTcjfYNvHxlFW32PfdkYRcWUrPlHZYr03qNrkHTdWd6+wLTcVoYq4nMcpPTVbxPmlijreUN22Llmc65Pb+bvILqtQQkLAUaFHuVDVY8dRk5YeZkPs4UnSN8zHtcEmOzGn6qKBI+xujNeY2T5aVum62VPiYUlM9jx2uaE3OWaBU3w6iNTl3mj4q8MTX77sgR+Yy3e+Lz1TqiCg1Nx33tViumr3DM4d86SRFKUpJS6055WGsA+ATpaSl39TfvX8jx96LUlKmbe53yiZNDvE31LTF2sb7RU6Q37HVp+ZAs/+QPp6EfKCt7L7mwFCNCjj/ds5P0j9HO6SPPgiakCvHqbE1/t9v8b4mJWU6FTBbwzFfeZlSmfUes/2NpxSt0ERVqdi7fZnLTNrbMWiqHOfWq3hfk2KnzNcQp2cfSeM914iUohOaE+fff/G+eM2pDDy/pMwVGuJsff61q8b52tTo30d+auuEXJI+d9QlXXNdJ0rYHboY26TPHSYhBwAAiLSuTcrD1XBANVaSeGa36hukgUM7sohVlIaM60h/u1y9bP/w7dwjV6MUOzxw9WH7qNeZc01S3HVKkJQwPF5yVfg/IBceklvxSkizbx0jx22dW834Z8szlJER5LH8Z2bXS3Bcx3xfZGzW+fekqGtso6ZhGDq6s/ONi1WRbf+SIldHXFJsXODxG/b5RyprT9dJg+I1TJIc8YptrJLTGnV27pGrMUZDjIFzK0HqlMZqbbf273pTK5wuvX/OH65ctck7Ku7xk5qT0qDBusHfJFeJNXIuVa56Uy4N1pd975GRGhwt1Ta1Lk3/ZNednmS21RdbHfniQzpb5h95bjp6XIod7E16Z2ro10eq+cALxgh8F0kZr6E6rg9sX8J9sut3OquRGmzLSkOfn3yl1VfWu/wb2BWm+f42Jan2D0fU0Opv0D46fVz1vr/xLCXESW6n/z1YXePy/X2Hx6U3rFF073vxzDnrt1OgsY4mHSz07792VYXccmis7Yu/hn3rfT9D8PPvgNj4DiTl1orrE/S5NV9hAT0AAIAeIDJJ+aU4s1pvbz4gTXrctyp1Rxc0Syk6obxK6xGkjFVNsucDtavG+Ua7a0/XSY50pXs/QCesS1eS6lRrJWnOhdpYUCVNWeE7RuAofNsubaT8ctgsd36pzl4/r9OrgiesO2x7/QPLkC0Np20jeIVp/tFuV50aBk1VmvWa5tyliYPsv69cvewdGbX2vzxgFL4LpC3QryufVqX1yEw0ewQRrWuC/JyX30h9IVZqOdv6C4GucNXQoVLDeaNy5bj+3uEv3tpSoEW2909ewFQFr8Y6+b9zKFbFHcneL3mKVXtOSkqzFlHLUnqaQzr3QdjVLG1Ku06xitHEXPs1xpoG0xMU68ofJenqNYf0zzVdcVs1AAAAXKrel5TLXuKerv1lxzV0TvgrvSesO6w5Dpe3rDVZ+anrdbDR7NUe/4duTym7UR7tXKiN1v5LXErKPOxL4ttzeUbKL5VV4u4Z0dWkx8P/YsQs/7fKhzsoKdOb8GQ65C4xS3tz9bL1+nu/IOnIFyNtS1VRboq0r8hXvp5actLsFChtqBJ0QR/5fs7jOn9BSojpqiS1I7o6QQ70ydmzxqi3OvFFQLGu+Ej6zCx/kLxzsucrybXNPz2hoEpBZ1q0ZdBUZVlfyqlKxeGWrrfH+YF3OoX//W097KP7XaqhLniZf5tcuqIhRv8c18VfWAEAAKDDuicpP/O+Wi6pxLwDas8r2MxWa8R5++oZAe3D4mICRtES1i0LMlIeWsp4hxr2eeY6tzXX08dV1/GE4ZJ5Eq/Ol5h3wJn31WK2SZqxenvQEf6E4fGSvbIgxxl0pDyUhNvGKtaekLWX7Dg/CPr6hzq/dqUNVYKk2tNWhp2qonZGyu/PTFFUo0uVvvfJblWealbUiJmaFdg1DEZSPWytxtgXbGvXbjW826yoSQ+0+UXWJx81S9eP78A8dq/qGp3VSF1nq56IWThPQxsO6EwHJvZ/7qhLGjkhyH24R2rIIKnhnDUfP0vpOUFGykPylpeHXPPBM5Lun07hWaMg/P3n6ogrxr8GQid5pmyMVUo7X+a1OfceAAAAvUL3JOXaLHfZcUXZSszDLXH2LXTlXb156Bxj+5RNvn1aC2K12Oantqc627OwmGeU7ISy4io6NFJbXRJYmt6qRD3HGRjLnaqGViO53W23zpZ4FtDzvU7h3nPa9/o+rqRY+X+H1vbD1mqM/fX3LurVaoX8EGpXbdLBRofmWK9PWp3K9oU/W7p2VUVAabr18JWop23R8oDYfMXa5u9eMudW/XjfBTkyrfL1afqopLrVF0P++NO6U7uUesdWVdrir50+puboUUqNtjWGZbfOvmH721o6WB9sPtDq+G35ZNedqjkg2yJyFZq8PHChtU92vSB3w0iN8v2erYXalirJ2zZ+UpQUO0njA+Kb5Taml4waHGyF9nYcOqTPy6F/trrdV65eLnEp1vc3uEJDnNvkNruFlCvnPhnl5SeUZ1uIrbrEs/ijpz1d9QUd2b9UnZ2ssnP+a4y5/7AUpqnMZS+DD1Zts0H/HCl9/mhHV14HAABAT9K1t0Tr8zy3Mwq4XZLvFml1Yd92C52XUnRCc2SslJ3jVF5mfNBbRl1+qSqqnC0Zt0ALJvuWCmXGHNAPXl2t18wgdDH9T/pkcp0GrLm96749tN/ezPde8d4i7VwHVmDvATp/OzSPfy5y67N6bokGAAAQaV32Wbd/8JTOmsySeHQXz8rZplYl8b1E0VulckVP0vKbw6si6W+uqNiof2lw6NNFG8xQ5znig5SimyXxvcCEV/XpSJcGdDIhl6Qr6pv02U0zO7ByOwAAALoDI+UdlbZFy805po1VKu7AvchxKQq0qNVq1vbbX0Va+CPlHktVOHe8al5ZpiIzBO8tvJZL27vu9l2eypbA2fL2W/D1fF31mmTps++t1H/HSlfuZ8QcAAAgUkjKAQAAAACIEMrXAQAAAACIEJJyAAAAAAAipEuT8uTkZF1xBXfMBQAAAAAgHF2alAMAAAAAgPCRlAMAAAAAECH9PinPWnNOf1rzmdmMvuLaTXLestRs7eeWqnDuJmWbzT6f6NVdjbr0u4N/old3nZR710m9+h0zBgAAAEA9OikftVZbs1/U+lFmwG9hxovamm091mqh2aEdWWvOaeXXBqhizZXelhs15GfPyfHEjQH9BjyRr3E/W6wBAa3tWPKwxm1/TsOXGO3TF8ux/TmN8z5axbtK2gL9uvJp/Xqdw4y0z7ttpfUoSvXHcpapsnKZ7rf3DylVReb2l9O1m+ScPFRvHdtsRvq5zdpxbKgyb1+rWWZIknSVtv3xU83f3qIsM9QBG56vleN4gpJmJ+r2n5pRAAAAAOrRSXk7pk0rVMaIkyovWqIFRUu0oGi1tpid2pLaouVfk6qeHqQnzFh7pi+WY3u+hkw3A2HY+5Jcdz2kw3eVq96M9QRpC/Tr3BTVljym1NTHlJq6Sy7H7Mgl1kF5kv2iHLPdbqkKJ4+Ua/+dWnnBjPV9KUUnlFdUYDb7vPbnF/SWJun7IaoIitcMVpXqtfL5T8xQmD7TdXGS6/BVZgAAAACATc9Nyo+t1oKiJVpxzAx4JMV+UTp1tGOJuM2GO+oVczxGCyrNSBd58Yc6fNdDOv2iGbhMnFv176mP6d9XucxIm+7PTFGUa5eyC62WSmWXnJQco8IcHberVHbqY0rN7q4XObRZN39TjgsHtONDMwKP3Vq5/4Cah39TT0abMUm6UguKhqhpZJO2dur7mH8oPsZsAwAAAGC6IjEx8aL1JDk5WW63Wxcv+po65FK3lyTFPaLiO8ZpoPepe2/wxHxhxovKUIUWlP/KDIXhE726q0l1T8cZSfmNGvKzBxX7zvNybXjH1zrgiXyNuvFdHXtR+vKyCb5zs2s55N1m+mI5bH3qy0Ml5t/Q8O0ZUrD4koc1LiPJ//zCIR277yV9au8TUqqKKmfLKlpv3lfUOjH3joZH+RpOakfqJv3Eu61KHrMl5fLtUyWPKVvLVJkp7SiR7sxMNLb3lrf72r1cuwITc+P4wc7x/qKndaet8t7TJzHgZwsQcIyZevL2xzX4aLpygiXlaVu0PHeqYq3njVUqvmOhaiVJBVpUma76gk1SzgpNHCRJTTpYME4VTm//HKfyMs2zsPoUaFHlfKkkWS9br2GOU3mZUllqms6sO6ysuCM6GDdVEwdJ7pJtUuZ8JQUcI0vpO61jhzq/Cg3JnS/Pu8S/bUrRCc0xT02S5FJZapqqA9o8r9PoU09p7p93B0Q8PtPW7ac09ugIfcU3xSNcn+jVXbXSTkrXAQAAgLb0vJHyc88qq2iJFhRVyG3G9B9a751DnjFC0oh035zy4mlTzM6hfedjOTRAH3R0ANcqPd90SC1q0ulND+nwXZ6HL4m/1PL06YvlyBgcsO/DYSfk8o9OpxZpf6MZkyfBDihPf0ypVkItSbqgj9odXE/UnWnntd53nETdaZW3F26y7fcx7TD3FaQ8vnZKdsDc9/uLntadcdXe/XsenqTd+tl2ySXJZf8Z7El/9EyNjm7W+aBl61lKz5R2pCYrPzVZ+anb5B40VXeus8+ejtHE3BVyHF2v/NRkFe+TJuZsUYK8CX2mQ+4S7/YFVWowk/b2OKZqiDNZZS4pKTNd9QXrdbAxRo7bsvwJ+blt3vNLVtm5qcra6T2+5D2/dNUXeOOuGN/5VWdbbZJc/n3kt0rIJWm3Kk81KypmpBnwulK7j35RMXH/MAPtS/2H4hWrQyTkAAAAQJt6XlLepl9phXcOefkpSacqvPPJlyjrzX1m55Cyrv1Uavq8zHyx54hR7JTAxea6mmN8p2qSvU5qxx1b5UmDXVrhPCnFDVU4e0y9zdGqPH77vguKGn2LZ/u0BUp3XND+Qmv/nRA9WFE6q/eDJuXFqsi2Rp0lKVdHXFJsXGBi2rBvvTauKpYk1Z6ukwbFa5gkOeIV21glp3X+zj1yNcZoSNDR6RDs27sqVOEsVu057/O0GXIMcqksO9fXvbqkSg2Dxiolzdckd4n/S4DqGpf//Doj5sshFnzzivtHBxZ88664ni1tnN2J9RoAAACAfqaXJeX9wN6X5Np0SJrwYDet0F6pbGvxNu/q6oErtEfrmqAJZjsj6IMG6wazLYgb4qIl27ErK5/Wiim2Sc2OwYrSeb0f7qhzJySsO6y8yhO+R7By74bTnoRcklSY5h9pdtWpYdBUpVmLzOXcpYmDmlTf1mvTEY54xcqhObbzy7OX2vd4V+n22YlKKpKWd8lt1QAAAIC+rV8m5cUfDpBi/hF8bnIoH9V2oIT8EvlK4B/S4XK3hmR0cqX3kKwy8MeUWlAtTcn2rmReqWpXkFH0nFFytJEopw4fLDWe17tmIIh3z13wzP+2laanpj6mVGvk3XVezRqsL9tGhTvswnk1a6i+HGwBsxynsqZIB72l375S7w5KyvQmzJmOgFHrS+aqU4NcKvOVnVuPLjyGqel9vWa22Z37vGxfUYSn8vOqU4MmcH9yAAAAoE39MinXT6+WK2jC8I6a3mnSwAkZ/kXQpi/WlyfEqP7t3/u77a3V3y9Dibkk6cRHajHbJM1YvV3l5eUq33ifGeoY51lbKbf0k5qTkmO27XZjqSrKTFTzvl22eed2qbprSrSaj74VVrl55R9cag7Yv8H5lt5ujNbknAVtlMOf1EeNQb48sFzYraMXojR6+EwzooTh8ZLqVGtbtC3YSHkoCbeNVWzAXG3bgm6SpOOqb5Rih3sLvr1z0MPm3CNXo0Nz2ridWTjOnGuSHBOUYgYCzFTqiCg1Nx03A16faebov6np3OfNAAAAAIAu0uNWX582rVAPjv2i2ayWIz8JmDd+aauvSxueP6n5SlDSg63voxz11HMaaVv8POgK6sYK6dbq6wOeyNeoCa3vBRVu3NyvQhx/xurtemzyQOm9ncpY/jN/INjq57KtTt5q5fUgq58b+3DZV2MPsn1A3HB/0dO6U22vvq5W5+DQ+p3ZmmytPt4qHmQfxgrvs27eoe+POKYfvLraGAVuvbJ52dGxmhNXofzsXO/q5sbq6QE88cDfUOAc9MDV2V0qK6jT13Pj9Ya1+vroIyq+Y6GGFZ3QHG1TfnauUopO6OvnrH0Y5yj7CuxBzs+2urt/MTdzH0FWX49eq1duH6Wjr4a4l3tqi/702N90pNVdCsLB6usAAABAOHpcUn7ZpLboT4/Vq46koVsFTcovi6UqnDtPCcdC3e6rc1JsibRPjlN5mfEdW4E94rrzdmjybR//Kn9fAAAAQFv6Z/m6JFUO1MY/flGOO1iMqiulrlug+60naQuU7pBcNZc7IZekzcrZf1xRox7Qk8HmlndKlhLizLYgJfG9wKybH9AtOqCNQRNyKWvNeU3VEG3sVEIuSVfqg3OSY9wnZgAAAACATf8dKffKWnNOyzW4k6OBaC1VRZWzfYvotVXafllcu0nOETVKe2uzGemkYOXrQUrDe7SlKpw7XjWvLFORGZK8pecf69Al39LMU8LukOSiIgUAAAAIqt8n5QAAAAAAREr/LV8HAAAAACDCSMoBAAAAAIiQHlW+fqnbo39LHfI3s6lPqaxvfatAAAAAAL0bI+UAAAAAAEQISTkAAAAAABFCUg70aktVOHeTss3mfo3XBAAAAL0HSTkiY/piObY/J8cTNxqBb2j49uc0zvtoHQ/T9Hv0yLbn9cjjN5mRPmSpCufOU8Kx0hD3G++vNmvHsaHKvH2tZpkhAAAAoIchKe+N0rZoeeVhpaeZgZ7Ck1gPX2K2h+P3On3XQzp81/M6fcGM9R+pG57Xig2zzeYA2bfMk+N0qeb+ebcZ6vNSik4or6jAbPZ57c8v6C1N0vdvWWqGAAAAgB6FpByRsfclue56SK4N75iRrrH3F3p2/oN69qm/mJG+IXqtZg9v1lvHNpsRSJJ2a+X+A2oe/k09GW3GAAAAgJ6jb94SLcepvEyH/7lrm/Kzcz3/Ttui5bnxeiP1kMZWzleSp4PKUtNU7e2esO6wsqbE+Le39Tmz7rCyRh9R8R0LVStJylL6zhVyHF2vjatGalFluur31WniFIfUWKWyo2M1Z0pM4DkY5+cuSdbLhZ5/J6w7rKy4ChWfS/efg7Vt2hYtz52qWN+Wfg371mvjqmKzuesteVjjMqTjd/1Qzd6mqKee00iV6/Dj0vDtGRpibCJJcpfr8OO/946i+/u0HHo+RGJ+o4b87EHFvhMq3prnlmizdd+2b2mot+3jQz8OTMwXP6oV0+v1671D9O8ZyZ62Cwf066W/0NtWn+n36JEHJ+lq30YntH/+M6oMtb09HmT7Vucg73582/vPIWHD85rseVMaTmhH6gv6iffZrJt36Psxv1PaW8GScs97cuIg63mTDhaMU4XT8yyl6IS+fm69dmiZ7z0W+P4p0CLf34afp89ILaqcL9nes573s/x/H3FHdDBuqiYOktwl26TM+UoKOAfj/BqrbH9PBZ6/oYIKDcm1zsG/bUrRCc2x/Wn7Bf4Ne8zUk7c/rtGnngpSTXCrVv78e/pqzAn9Zt6jetGIAgAAAJdLHxwpL9Ci8YeUn5rseRRUqcExX4ty7H0cmuNNLPJTk1XmcmiOVQqb41TWFOlggXf7EleID/yhxGji6DoVF1SpYdBUzYmr8OzDMUEpshKYeP/+C6oUm3ki8Pwc85UVV9H6/J0LtdFqU5N/H6nJYSfkM1ZvV3l5eevHL9dohtm5w6zS83LVS6ovf0iH7/I+Hv+90ae7ytN36WfzH9T6+T/W8VD7j56kf59er1/Pf1Dr5/9WZ6Mn6Zu+ueezdd+Dk9RY/qDWz7cetoS71fY/1vELyZpslZp7E3L/9r9V44TvBs5tX/yoVmRco+PP247h/VKg8gnP8/1uSe7fBpyDlZBLM5U6IkrNTcf9+7RJWHeXVOh/b5S5YjQxZ4sSbH1ip6zwfLnkfT9pyjLvdIgspe+cryTXNu/263Ww0Uza2+GYqiHOZJW5pKTMdNUXrNfBxhg5bsvyJ+TnrP0nq+zcVGXttJ9fjCbmpqve+/62n391ttXm/bLK+jsP+ve5W5WnmhUVM9IMAAAAAD1GH0zKc/WyNSItSc49cjVKscOz7J0CRqfPnGuS4q5TgqSE4fGSq8I3qqjCQ3IrXgkdmL/tdlqjfk06WJIruerU4I2ljHeoYd8m//6dC/WGS0oab5sf21ilYutnCHH+nbVn7V3KyMho/bh7jfaYnfusE9rvGxnfJbdbuvoa26i1pKFj2prPbd/+L9q294R0TYLGSBrztZt0tfu3+tlLVt9d+uOhJl194xSNkSTdpPnTk/XxoV9o217/HjtmpAZHS7VN5uivR+2qNP/7S1J1jUsaFK9h9k720WnnB2pQjIY4JGmkhgzyvm8lScWqPtqk2LgOJLaNVXJao+iuClU4i1V7zvs8bYYcg1wqs/2NVpdUqWHQWKXY/sbcJf6R/aDn3xExXw6y4NvrevLeeZrHKDkAAAAirA8m5d5FoCqth72M19Kkepf/We2qccr3Jii1p+skR7pvEbWEdelKUp1qbUlO52UpIc4zSuk/v1DluN2je0fK+4Jd+tn83+ps0re0YtvzWhHuCu7RQzxf6lwTI9m2XbHtef37BPtUiGRFRUuNtd041z1ti5bb3l8BUzks5z7wfnEkzxdZqdaXVMdV3xijiZnWl0QFSpsSo4ZzwUflO8wRr1g5NMd+fiGmZAAAAAD9QZ9LyhPWHdYch0tlvrJWT/ltx8RoYq4nYfCUsgcrje0Mz4hhw771trJb78M+ut+NGCkPh1UC/6DWP39AmvBd3bfY7OM3JuEa6UK950udj5qMsvPA8nTphJovSIMSwkj0Qzqu8xekhJiZZsAzfSN3qmR/j5XYvoEKl2O+N2n2lLKHXbreHledGmT/+7Qe/pHxLtf0vl4z2wAAAIAeos8l5cPiYqTGOp3xPk9YtyzISHlonvJye9IcmCzUnq4LKKVNKQo2Eh9adY1Lsb75u53kLTf2zNG9zE58pBYN1tXTPU8HPJGvkeaKYHLrkwvSkDHfMANdxjfiv/E+M9S19taq7e90ZutrE2L08Tv79Lakt//4F32c9K02kvi/6Mg7Tbp6wj2a730Ng6n9qElKGqtUMyD550qPmNm6LDvtOsVKajhtW7Qt2Eh5KFZ5ecgvjI6r3j6dIm2Llndk/849cjXa1nDopDPnmvzrNITU1tz7W7Xy56UqLX1JK28zYwAAAMDl0+eS8ursbXIPmqosb2lsVlyFZ1GoMFWXVElGeXlepW0htsLtOtjoL7/9+rn1Hdq/CtOUX1LnG4lvtf+w5OrlEldAGfzydZcpQd/7kmrdMRq+7DmN2/6cRl3zuo4dajI6vaP6Fw+pJSlD47Z7+o17ypugL3nY2/aghkdLAyc82LF4exY/6i0b/65GRktXT/iu53k79/z2mX6PHrGVnq/Y9i0NOvRj2xxxSUrWZFtc5bZbr+39hZ59/oAGZdj3EVgC//ZT39evD0kjH7T12XyPd8651ecXngXkfPt4VPfb4q+dPqbm6FFKNW/35VyoHfualJRpvbfSVV9S5VvToF3OhXrDZZSXV55Qnm8htmJVOG3vvdx4vVHQgf2rWBV3rNfBOGsk3tx/eGpXbQr4O8yrdLZO0KNnanR0s46eDjb3/nWd+kiSBuqmqbeaQQAAAOCy6Zu3ROs0++3N/OW6nluk1XVgBXZEgueWaN1s8aNakaHAW6BdJpX1Xwx4nn1LhTJjDugHr67uuvJs2+3N/O91zy3SYjuyAnvEtXU7NK97nlHpt5LVcvBHWvyD180oAAAAcFn0uZHySzNSQ4KUopsl8UBPUPRWqVzRk7T85mBzyzsnYXi82RSkJL7nm3XzA7pFB7QxVEIuacnYZEknVElCDgAAgAhipNyUtkXLzdWg7bePQo/V30bKPZaqcO541byyTEVmqJNSilrfEcB+C8Ger53X5LaVeum7X9VAndBvuCUaAAAAIoykHH3GZUnKIyh4Ug4AAACgN6N8HQAAAACACCEpBwAAAAAgQnpU+ToAAAAAAP0JI+UAAAAAAEQISTkAAAAAABHSA5PyT/TqrpNy7zqpP635zAwCAAAAANBn9MCk/CrdPjtRSU8Pkb52XltTzTgAAAAAAH1DD0zKvSqv1pGmvyl+pBkAAAAAAKBv6LlJOQAAAAAAfRxJOQAAAAAAEdKDk/Ir9cE5yTHuEzMAAAAAAECf0IOTcumJBxOVdPhjuXed1KvfMaMAAAAAAPRuPTop3/D8SbnHXa2k2Ym6/admFAAAAACA3q0HJ+Wf6bo4yXX4KjMAAAAAAECf0IOTcgAAAAAA+jaScgAAAAAAIoSkHAAAAACACOm5SXnqxxob80XVHTcDAAAAAAD0DT0wKf9Er+46Kfdj9dIfB2tBpRkHAAAAAKBvuCIxMfGi9SQ5OVlut1sXL/qaOuRStwcAAAAAoD/pgSPlAAAAAAD0DwEj5QAAAAAA4PIJGClPTk7WFVdcYW/qkEvdHgAAAACA/oTydQAAAAAAIoSkHAAAAACACCEpBwAAAAAgQkjKAQAAAACIEJJyAAAAAAAihKQcAAAAAIAIISkHAAAAACBCSMoBAAAAAIgQknIAAAAAACKEpBwAAAAAgAghKQcAAAAAIEJIygEAAAAAiBCScgAAAAAAIoSkHAAAAACACCEpBwAAAAAgQkjKAQAAAACIEJJyAAAAAAAihKQcAAAAAIAIISkHAAAAACBCSMoBAAAAAIgQknIAAAAAACKEpByX5juNcj//idnav/GaAAAAAAgTSXkkLHlY47Y/Z3s8rCizz6XyHmP4EjPQhb7TKPcdn6pq51VmpH/7aZSq4mr1pzWfmREAAAAACNA3k/K4R1ScXajH48xA5A14Il/jMgbr9KaHdPgu6/FDNds7TV8sx/Z8DZlub+xpPtGrdzTItTNOCyrNWF9XoEWVJ7Qox2y3XKkFRUOkr53Sq98xYwAAAADg1zeT8h5swDUxkvt11e81I13sxR/q8F0P6fSLZqBrZK1pkqNpiLb91IxAklQ5UBv/+EU5bm9RlhkDAAAAAK8rEhMTL1pPkpOT5Xa7dfGir6lDLnV7yTvKfUes9hQd1ZjsdCVJkk6qvGi1tlh9Rq3V1umJvk3ce5doxTFr23Ea6Iv4tRz5ibLe3Kdp0wr1YOK7en7rs3pTkjRFjy+4Xzec9MTbO/60aYV6MPYPer7hNj049ouenZ+q0ILyX9kPF1LUU89pZFKTTm/Ka52YT18sx7IJwc//0PNybXjH2+ca1d71tgZtz9AQSZJbx63RdmMf9eVGYr7kYY2b/pGO7b1GozI8P50uHNKx+17Sp/Y+VszHfs6faev2U4p/NVG3B0vK07Zoee5UxVrPG6tUfMdC1UreUeZ01RdsknJWaOIgSWrSwYJxqnB6++c4lZfpsLb28vZxOJWXKZWlpqnaG0kpOqE52qb87ONK37lCQ45WKXbKVMXKpbISaU6mI/AcjPNr2LdeG1cVe57kOJWXVqdiZ7yyrHPwbVugRZXzve8Jg2ub8rNzA9tSW/Snx/6mI08HqyZYomdKv63kpv/Sj+59Uq+bYQAAAAD9Qg8dKU9URna6tHeJFhQtUfmpRGVk/IcnNGqttk6PU81OT2zBzsOKm/6i1o+SdO5ZZXnbWvQ3f5+iJZ6EO2xtHF+SRqTrwdg/+I7fMiLdc/wwND/+vE5fiNHwZc9pnFmivvclue56SIc3HVKLmgJK3F0b3rF1TNLI7RlSuSd23J2kkU99I3Afd5Wr3rZFgOgJGjX9Ix2z+kVP0JefuNETm75Yjowk1Xv37T8X25cIqR9rbMwXVXfcvlNLltIzpR2pycpPTVZ+6ja5B03Vnevs48Uxmpi7Qo6j65WfmqzifdLEnC1KkDdhznTIXeLdvqBKDWbS3o6kKfF6I3Wb3HJoTlqdiguq1DBorFLS/Al5g7X/1G1qmLJCy+3nN2iqstLqVNzq/HP1stUm+c8xNbl1Qi5JlVfrSNPfFD/SDAAAAACARw9Nym2j35LcDX+TBl2raZIWXp+oliMv6alz3o7nntWeU1LS9bakuQuEOr4k6cJhPW+NjJ/bp3cvSHGDp1jRdryj+vse0uG7bMn5zxZrgNmtHfYR8E8/apKuSejAPtw67hsZ/70a3dLAa7zjv8nXaOCFQzpnja7v/aMaLsToqmT/1hr5D8VogD5oNforScWqyLZGxSUpV0dcUmxcYGZqH52uPV0nDYrXMElyxCu2sUrOQm9H5x65GmM0xBw4b0PDvu2+UXS3c6FqnR+owfs84baxinVt08vW/pUr574mxY6e4flSQJLkUplvZD/4+XdE/LXBFnx7UY/Om6d5jJIDAAAA/VoPTcr/pgbbMO+bb+ZowdZn9aamaPggaeDY+7U1+0XfI2OEfduuEOr4XclKzo2R6rA06ZMT/mefbsjTYXv5+aU48ZFaoicozlq1fUmGhkcHHq89CesOK6/yhO8xJ0hC3XDaWy4uSYVpyrfK0V11ahg0VWnWImo5d2nioCbVu/zdL8WwuBjJMT/g/LKmxJjdAAAAAOCy6KFJeSj7dLrRMz/cKkv3PcKc093zGCPVPcSQDO/t2jKSVF9uzH8//nk16VNdl2prs+Q4lTVFOljgL+0u60RCnZTpTZozHXKXhF+63p4z55o887995fXeh29kvOvVfXil2QQAAAAAUu9LyqUt753UwLGL277d2bkPdU5f1A03ti4pf/P8OSk61rdY18KM+zU+2uh0OU1frIQkqf7t3/vb9tbq74pR7JSOjJ53jQFTbtBAd7ntdm1BVnD3zpUee2vrsuyE4fGS6lRrW7Qt2Eh5KFZ5uT1h9peae0fSFa+ENG//dYc7tP/aPxxRg2N+G7czC8dx1TdKSeMLzECgNufeL9EzpaUqLX1G3XkreQAAAAA9W69LynVstRbsPafxd/jL17dmexd68/mVVuw9GVDmXjzNm6Afq1DNhURleNtnNPxE5afs23anGzXkZ94RaOuxbIL+bq6Qrt/rdLlbAyc86OvnCLO8fcAT+d5tPCuzWyPe4W7/6YbXVZ+UEXiOrba/UruPflExoz9udbuv2lWbdLDRoTlWeXhancr2NRm9QqtdVSG3UV6eV3nCvxCbc6HecMVoYq639DyuQsUd2L+cC7WxoEqx1ki8uf+wFKuisEoN9vMsap2gZ936N8U0fVG7g869f09/bZKkZP3rPWYMAAAAQH/R826JhoiKeuo5jVS5Dj9uG7lf8rDGZQw2buP2iV7dVav4P47QV9Z0XXm2//ZmttXMc5zKy4zv0ArsEdfm7dA8bv3+S/rexIE68dt5evQXZhQAAABAf9D7RsrRjW7U1deYbdKAhMGSzuvjgPuqX6Xbd8Yq5mvntTXY3PJOyVJCkGkJrUrie7zPtDW7Xvrj4JAJuXSrpt84UGr6L/2ahBwAAADotxgph+EbGu4tffdz6/hdP1RzQJvXdxrlHne1kh68yox0UoEWVc73zfn3cKnMWp29N2jvNbnnGZV+K1lq+i/9iFuiAQAAAP0aSTkAAAAAABFC+ToAAAAAABFCUg4AAAAAQIR0aVJ+4sQJStcBAAAAAAhTlyblAAAAAAAgfCTlAAAAAABESDck5Rv0jzVufbzGrf9OzzKDkqRZN+/QKzfPNJsBAAAAAOhXuiEpf0KfX5Okq39aJU1ers+uNePSa3/+nWpHPa7CIDEAAAAAAPqLbkjKvT7crc81xOjiMDMgSZuVs/+4HJN36MloMwYAAAAAQP/QfUl5ez5cppLTUbpl1FIzAgAAAABAvxC5pFxS0anj0vDxyjYDkm79/ksqLS3VM/eYEQAAAAAA+oZuTMqLdcVH0j9GbzADfh/WyKWh+jIl7AAAAACAfqgbk3Lpcy8n6eqjE/TxGrf+McGMWqI0OEhS/voPFmvevHl69BdmBAAAAACAvqFbk/J/LnLr49GHdPWaJH3+kBkFAAAAAKB/68akPEsXr5E+f/QJM2Bo1vkLZhsAAAAAAH1fNyblYbh2vBw6q/eDJOXWQm8vff9WMwQAAAAAQJ8Q0aQ8e8RI6XSNisyApNfP1EmSBt44XaTlAAAAAIC+KHJJ+bWblDn8uEre2mxGPH7x/3TCbAMAAAAAoA/pvqT82pn6Z2yTrjhjBiRpqQonj5Rr/7Kgo+SSpHv+VcmSTvzhSb1uxgAAAAAA6AO6ISnfoH+scevj70yV9m/UlR+acWnWzd9UwrGnlBMkJt2qlT8vVem3knXit9wSDQAAAADQd12RmJh40XqSnJwst9utixd9TQAAAAAAoJt0w0g5AAAAAAAIB0k5AAAAAAARQlIOAAAAAECEkJQDAAAAABAhJOUAAAAAAEQISTkAAAAAABFCUg4AAAAAQISQlAMAAAAAECEk5QAAAAAARAhJOQAAAAAAEUJSDgAAAABAhJCUAwAAAAAQISTlAAAAAABECEk5AAAAAAARQlIOAAAAAECEkJQDAAAAABAhJOUAAAAAAEQISTkAAAAAABFCUg4AAAAAQISQlAMAAAAAECEk5QAAAAAARAhJOQAAAAAAEUJSDgAAAABAhJCUAwAAAAAQISTlAAAAAABECEk5gEuwVIVzNynbbO5WM/Xk7Tv0ZLTZDgAAAPQ+JOXoWVI2aXLeJsWY7aZhazUmr0JjZs80I/3K/UVPq7Jyme43A+1yaP3Op1W5c4FSzVDYlqpw7jwlHCtVkRlSjFYtvVuvLB2j6WYoTPfMu1uvPPJ13WMGtFsrj57VLbdf7i8DAAAAgK7XM5PyuEdUnF2ox+PMAPqGpUrKq1BSitmO3iT7lnlynC7V3D/vNkOSmnTqr2Zbx7x3vsls8vtwmUpOj1Tm7Ws1y4wBAAAAvUjPTMqB9pxZrbfz0/X2rmAJYf/xk+zHlJq6ST8xA+1yacUdjyn1jq2qNEPhiF6r2cOb9daxzWYk0F+btNds64imv+o9s82r6K1SuaIn6c5rzQgAAADQe1yRmJh40XqSnJwst9utixd9TR0X94iK74jVnqKjGpOdriRJ0kmVF63WFqvPqLXaOj3Rt4l77xKtOGZtO04DfRG/liM/Udab+zRtWqEeTHxXz299Vm9Kkqbo8QX364aTnnh7x582rVAPxv5BzzfcpgfHftGz81MVWlD+K/vhQijQosp01e+r08QpDqmxSmVHx2rOlBjJtU352bmebjlO5WU6fFu5S5L1cqF/L2ZcjVUqvmOhajsbtx9bUsK6w8qaYhaAu1SWmqZqSUrbouW5UxXrjTTsW6+Nq4oDu7frPv24/A7p/2Tou2FvulRJefM01GyWpPdKtX/LZk/5+hzpWJk0as5IT6zhgGo2rtYnUqt9NB94qnViPmytxiydpChfw3Edy1+mNsZdAxmvj/n6pxSd0NfPrdcOLfO9zoGvYYEWVc73vvf8/H2ylL5zhSYO8sdavUdCSlVR5WzZfvuSTmpHQGJu9gmM31/0tO60go3VWh+QmKeqqHKaPip4U9fkWvu4oP0Fa7XC6eukWTfv0Pdjfqe0t9pJyrtZ9i0VylRpkPO4VSt//j19NeaEfjPvUb1oRAEAAICeoptGyhOVkZ0u7V2iBUVLVH4qURkZ/+EJjVqrrdPjVLPTE1uw87Dipr+o9aMknXtWWd62Fv3N36doiSfhDlsbx5ekEel6MPYPvuO3jEj3HD8sMZo4uk7FBVVqGDRVc+IqlF/ikhwTlCIrYY7XwYJk5acmK7+gSrGZJ7Qox7t52hYtt8dTk5VvT7jbi6tAi8Yf8scKqtTgmO/ff45TWVPk377EFTQhbyix9r9NDVNWaPm6LN8Rus9mufPTtT+/VGclnS1L1/5872OLPakaqVFfP68aq2/sJDl8c8etfTwld4NtE5+lSlo6SS32fXckIVeW0jOlHdbrm7pN7kFTdafx+sROWaGs0UdU7P0daMoypad5t985X0mubd7t1+tgY2DSnlK0QhPPWXHPI7yEXJIqlZ36mFKtR8lJI+5JyBP2Ffn6rN83WHfa5p17Rtcf0/p9F4xtLdGanDtNHxV4+u1wRWtyjn3u+UyljohSc9PxgK0ioejUcSnmy5SwAwAAoNfqpqTcNvotyd3wN2nQtZomaeH1iWo58pKeOufteO5Z7TklJV1vS5q7QKjjS5IuHNbz1sj4uX1694IUN3iKFW2X22klyU06WJIruepk5Ycp4x1q2LdJFdaoonOh3nBJSeMLfNtLMXLc1lYS3FY8Vy/bRsXl3CNXoxQ73NM/YXi85KrwH7/wkNyKV0Ka52nCbWMV69pmSwJz5dzXpNjRM5RgNUXccR3zjYxv1vn3pKhrvKPmYRo6eqnZFKZiVWTbvwTJ1RGXFBtnHN8+eu78QA2K0RCHJI3UkEHe94UkqVjVR5tab299idPVckbJoZOqWOXyNVWuelMuJSrF+uImDK4S/8j4T2pOSoMG6wZfdKQGR0u1TT1k6kC0/dwsr+vJe+dpHqPkAAAA6OG6KSn/mxrq/c/efDNHC7Y+qzc1RcMHSQPH3q+t2S/6Hhkj7Nt2hVDH725ZSojzjKLmVZ7wPebYa42dC7WxoEqy9fGNcocT95ZP+/cfWAZde7pOcqR7R22lhHXpSlKdar0J1rC4GMkxP+D8Wpe6hzJDa35ZrvLycpWX36GRkkb+f9bz7VrTI4YrN8udX6qz18/T5LwKTe7ECu0J6w6H/v1Zzn0QkLi/7BvtPq76xhhNzLS+hClQ2pQYNZzzjypXZyerzOXQHOsYO7d02RciqcMHS43n9W5A60l91CglDA/2gwAAAACIpG5KykPZp9ONnvnhVlm67xHWnO6erli15zylyvbS5PzU5IA533Iu1EarvcSlpMzDviS6vXjCusOa43CpzLdvT3l0oBhNzLUSbulggbd0XdKZc02eOejm+QWUyIeyR2vuzlBGRoYyMnbquKTj/8d6fpfWvGb2jxSrxD1d+zcfkCY9Hv5K72b5f2qyyvyDzuHzffHhKWU35+xXZ9t+f5qqrCJ7JUXnVZ4+b4xqS1Kirhkk1Z7uzA8SzHGdvyAlxHTsy45uc8H8EgIAAADoPS5zUi5tee+kBo5d3Pbtzs59qHP6om64sXVJ+Zvnz0nRsb5FtBZm3K/x0UanCKqucSnWN784DLbS96CM+LC4GKmxTme8zxPWLQsYKfeUz9u/FBjnL2WXVPuHI4Fz0CPiuP7ecCkl5h1w5n21mG2SZqze7hnh33hfQHvC8HjJVlmgHGfwkfJQ0mbIMcj+pYnxhUwrni9yWpm1RtvLy1Ve/mMFnmE7Co/JpUSlr/Of9P1Fs+VorNb2sOett2e3Kk81K2rEzIjP5c4eMVJqel+tvw+6VSt/XqrS0pe08jYzBgAAAPQclz0p17HVWrD3nMbf4S9f35rtXejN51dasfdkQJl78TRvgn6sQjUXEpXhbZ/R8BOVn7JvG2GFacovqfONVLcqQc9xBrTn5U5VQ4ktcW4nXp3tWXgsyyo9j6sIGMmtLgksfW91fG95fGxmYPzyLPRm2a2zJQfUbCsxn7wwzAQ9ZZN3m8eVFCtFTXo8cPthazXG2mdehSbnzdPAA0/JbZUKtKN21SYdbLSVlqfVqWxf+MvEedYQsG1vPXwl6llK3xkYmxNXpeI2E/eOqFR2QbU0JVuVlU+rsvJp3RlnX2E9VUXe9hVToqVBKVpR+bQqbQvBheO108fUHD1KqRH9Qmypxg+XXKfMldcl6XWd+kiSBuqmqbeaQQAAAKDH6PpboiGCPLfachwNvMWZ5xZpdf4V2NF9cpzKy5TxWntukRbbqVvPtSNnmSozZdwS7fLIvqVCmTEH9INXVwcZqe5+oW+H5nXPMyr9VrJaDv5Ii3/wuhkFAAAAeoTLP1KObjRSQ2yl7Baz5B3dx1P+bki7TrGSGk53QUKetkDrfVMPHFqflii5jl32hFySit4qlSt6kpbfHIG55dduUubw4yoJlZBLWjI2WdIJVZKQAwAAoAdjpLyv8d6HPNbeZr99F7pdSlHrFdvdJR25F3nb7i96Wnda+3ftUmq2pzA9MpaqcO541byyTEVmqNvM1JO3PyDtv1Mrg91q/baVeum7X9VAndBvuCUaAAAAejiScgAAAAAAIoTydQAAAAAAIiRgpBwAAAAAAFw+jJQDAAAAABAhJOUAAAAAAERI66T8O41y7zop965z2ppqBgEAAAAAQFdpnZT/dJCSZifqyT9KU7NblGXGAQAAAABAl2idlHsVv/5FNcX8Q8btlgEAAAAAQBcJmZQDAAAAAIDuRVIOAAAAAECEhE7KKz+vOjVownfMAID/f7t2jAthGEVh+EgkEgUa2s8OFGoVxdRKPVuwBrEDK5mCVjeFXjGzA6OQSCTU88unmX/c5nnKe1bwJhcAAGAM/SjPTi4mLbOTRebTZe6GMwAAALCWP6L8M4/TRU5fWo4n+7kdzgAAAMBa+lF+/pWjHGT2MBwAAACAMfSjHAAAANgoUQ4AAABFRDkAAAAU6Ub59dlH9t638zocAAAAgFFstda+Vy43y8wv35Ls5vn+MFdPKysAAAAwkt9RDgAAAPyL7vs6AAAAsFmiHAAAAIqIcgAAACgiygEAAKCIKAcAAIAiohwAAACKiHIAAAAoIsoBAACgiCgHAACAIqIcAAAAiohyAAAAKCLKAQAAoIgoBwAAgCKiHAAAAIqIcgAAACgiygEAAKCIKAcAAIAiPyM9NIkotVM+AAAAAElFTkSuQmCC;rotation=0;" vertex="1" parent="1">
          <mxGeometry x="20" y="190" width="134.82" height="70" as="geometry" />
        </mxCell>
        <mxCell id="9iWDFektB7QEEFaRxru2-6" value="" style="shape=image;imageAspect=0;aspect=fixed;verticalLabelPosition=bottom;verticalAlign=top;image=data:image/png,iVBORw0KGgoAAAANSUhEUgAAA3QAAACjCAYAAADCQ1yxAAAAAXNSR0IArs4c6QAAAARnQU1BAACxjwv8YQUAAAAJcEhZcwAADsMAAA7DAcdvqGQAADsKSURBVHhe7d1dbBvZYh/w/1r2em/MXEuJl/WDYieMCtpNBBSgi2KTDHBrqektML3MbmBcod0GMVq2aLRQgeaBQBeFzBaLgm3TFISFFiDaRYttwYWKe8GASW4LcRGADwu05pMebAHeQbxRixvuTeRN6K69tuQ+zAw5czgz58wHyRn5/wP0IJ7h8HzNOXPmnJl57fLlyy9BREREREREmXNG/ICIiIiIiIiygQM6IiIiIiKijOKAjoiIiIiIKKM4oCMiIiIiIsooDuiIiIiIiIgyigM6IiIiIiKijOKAjoiIiIiIKKM4oCMiIiIiIsooDuiIiIiIiIgyigM6IiIiIiKijOKAjoiIiIiIKKM4oCMimqIXd9/Gi+vyz4iIiIiieO3y5csvxQ+nS0OtVUUp5/zMQFvfQtP50QxUGh2UC/P57SAv7t7Gi/vfwxs7X4pBiTjZfBtfvbVo/fcIF979RNhCoN/Ekw3It3tFhM6/kKZd/hOE8p12+rLu+M5tPEUXF+58LgZNeHH3Np79yGNbHlNmPq6wfhEREcU1txm6Yb8OXdeh6zraRgHlVg2auBFNxZmd7+PCux/iQuuRGESWk8238eTuqvgx8Ark32lIX1D5zcrJ5tt4hnuTgzkA6HyCNx5enXscpyUN+U9ERPSqmNuAzqm5bwC5JVwTA6asuaVDT9nsHBGdBlfw4q1FnPvBvhgwsnCni3OLN/C1Loa8GhbufMjZOSIiogTMbcll8aCOje3eeAnmoA19q+kRDkCroVUt4qC+ge2eGb7UreNobbx002jr2GqO9+8fDmi1FqqjNZ/ikkv5972XjQIw7DTImcuNxv8vfDpeYmcuuevi7PU1PLNWvp1rfYjXO+PtX9y9PQoDHuP8B9/H2fvjMNeSveurePr+Cs46tgGCl32J8Qu99O76Kp6+fwPHow/c3w+K/8nm2/jqzT4u3FvBk42r5ocPx8vWZOGYiL9H3H3i515u6OSOI+CTf/pNPNm4OLHtRJkEUCl/sXyc4S/u3sbJD76HM99+R/n7nnnklT6LNH9jUIm/X/0JVX4B/PYPjyWXdl644qjfxJNvf4EL7/kP6OCxL1Vi+Yn5I4Y725fw4e7yDTr+VPJfZUlvUP6r1A9Z+gDgW7/2Hn7+m/8He3e/jweuECIiomyZ2wxdrlRFp9NBp+MczKkrlKtY6ppLNuv9IQrlBiqK4b3tDXO5Z9twfMMt6PuVRhUl9FEfLRkNN5g72XwbTy/dM5e1WX/iycbxW2s4+YEZ9o1PH+P5xs1R2Oi+HPv7rS/x7P3kHrJwfOe2O35hl95Zg6UzrXH6JgZzsvivrFmDiQ9x4d0uzq2suWcyAsLF+H/j04t48tE4/4LiZy83/Manj4HHzjJSHAx0PsH5x4t4cfPi+DP9Jp4tPpoo4yBB5Q/9Jo7vjeM+EQ7g+cY7vt8X8yds+Yrfn8jfBATFP6j+xC4/yf5FzrxwDShuXAV+JC/vhXuPgEuOuqJCUv6y9kUWrlS+PsefSv7LlvSq5H9Q/ZClj4iI6LSZ24DOvocuYEwVaNivj2bMensHGCKPZcdNeLJwGf/va1jOA0Z3G9b8oblkNL8c7h7AxRXPE0TbwqffG50gnvnkIRZw0dz++ipeLD7G+Y8dV/S9BhGRXcHxymOc3wmeWQhy/N0bOH7YdZ3gjijH33nl/nOceQycXFUJn4z/mZ0+zuHqeMAXFL8EnLn/GMfXr4z+P75xFXj40LWNjG/5w8wvZ9wnwgO/P5k/4Ux+X8zfJPjGX7n+RKS8/4t4cdca+HjMwr28BCx8oTiIWHxT/CSYQvnL2hf/cNXy9Tv+YlLMf9/6YfNN39gf/Je7uMvZOSIiOgXmNqCzNXf7GBZWXbNr6dbD4QAorNkPcdFQWysAg8PRAE/mzM738Y1PgWfv38aTj25PXv0O8rNv4hhfTsw2vPYj4PjNJE6oLuJE/CykwJNZ1fg//sIZjLPvCVfZ/cKvX8QJFh15extPPlrDc8e2gfFLwJmdPs6NTiitE2TnCWpsV/D1KG238cS1dFQibvkq5O9UqdafqFT3v3IDzxYReI/c9ASXv6x9CQxXLV+/4y8u1fwPEJg+IiKiU2juAzr0ttE1ClirhZrfmr9cCVV7ySj6qCsut7SNlh29+2G4p9199sXk1egZDFLCCDz5mnb873+JM3iM8x+Ml1vZf/YV/cD4JeJzLDy0ZhT0FTx/2J84QY3jxd01PH/oWJL2wT0siBtNi0L+TtW064/q/h92ceGDezjZuO05MxmqjgmDIxmV8pe1L77hp6R8fdNHRER0Cs1/QGctWcyVblmzdOYMWG7JfuZlBY1qCeLzR+angtXCEP26ef+cruvQN8bLL6N47YvH4kf+7u/j7ONFPPvueEnfyebbrnu03CeTV/B1mBkca/+j5U36zfGDDxQt3HsEiPe82RTiH485mHq26X8CFxg/y5lHXyot2/Kz8PE94K2bePrti4nPzp0suk9uX2zOsnzl+avGnmXyvjfNl2L9kZefz+8r7h8wt32j9QjPPQZ1Zh1zPXXGk+q9dmPhy1/WvrjDkylfef77CJP/ivzS/61few/vvff2zJ+uTERElLRUDOjQ3EV/WEC5YQ7pzGWYZeuhKWs4qrcR8VY7DxpqrY6573IBQAHlTgedTgtqk4RN7PaBUtXax+jP/VCWIMd3nMuZbuOrt770vA/Hz9n3zIcQuL7veOjIwsf3sDAKL+HMB12cc3z/xV3rtzeuArhqbTc+sT27cw946x1rG+ANjxmAQJ1PcME60R2nc7zsSRb/uBbufIg3fnTDlceuZVeS+NnbvPHQufRsnD+y/APGJ6bHeJjo7BzwOV5vPcKxXT4f3cbJD9zlKyMrX1n6pPk7ZUr1J6D8ZJT2b+t8Yj2U4zae3BkPQtB56HHfmegKjleAc/fCDPjl5S9rX2ThiZRvQP7L6leo/PcgSx8REdFpM4fXFmSc6xUKow+FVy8QmSeuqq8qoNPHfDy//2Ak6isLiIiIiJzSMUOXJdeWPJZ/XsNSDhge8XlpZDrZfBvPcI+DuVfYmZ3v4/zjq+6ZO5t+E09XHnEwR0RERLFxhi4C94vJTcO+40Xo9Moav9DY+4XJ9Op5cfdtYEd80fzkZ0RERERRcEBHRERERESUUVxySURERERElFEc0BEREREREWUUB3REREREREQZxQEdERERERFRRnFAR0RERERElFEc0BEREREREWUUB3REREREREQZxQEdERERERFRRnFAR0RERERElFGvXb58+aX4YZDvfOc74kdERERERESR/M7v/I74EYUQekBHRERERERE6cAll0RERERERBnFAR0REREREVFGcUBHRERERESUURzQERERERERZRQHdERERERERBnFAR0REREREVFGcUBHRERERESUURzQERERERERZRQHdERERERERBnFAR0REREREVFGcUCXUlqthU6nY/21UNPELbJMQ61lp62DTquGU5U8IiLAautOW/t92rHMiCh7Xrt8+fJL8cN5OL5zG0/RxYU7n4tBAg21VhWlnPOzIfr1DWz3nJ+lSKWBThlo61toimE+tFoL1eIB6hvbSGuy/FQaHZTRhr4lT23i6aw00CkXxE9NhlqcklJpdFAuGKHKffrM46d4UMdGSg8YrdZCdXSApy3/4kp//mdbmvLX6qsGs213klNBo1PGqDVVbD/Tfvwq9U8R+mwionlKyQzdFRyvAOfuyQZzY8N+HbquQ9d11PtAqcoramFotdbpnBlrbjnqxRAY9lG3/g/swENKe/6lPX5BetsbZnm1DTFoZrKcf0mIm/6435eZ9v6ToNU2UUIf9QTbHVXx80dDrVVGwWiP2lPV9jMNx29szS20jQLKsfKQiGh20jGg01fwHI/wekcMUNPb3kF/mENxnU0vpUdzS4fOK7xEr6AKbpVyMLoJrTyYuWtYygHG/qvbejW32jByJdyqiCFEROmTiiWXx3du4+mle7jw3r4Y5MFrSY25NCTfH39mLncbf8to63BeYBTDh47vhg+fXFYift9rmyD+SxHN9C916zhaGy89dadPXJY6XpLqXg7jFGbZqv/+4bGkxc4LsQygkM5SLly+OfnvWyyfyd8Qy88uf5X8C15yFKX8LApLnuTxs4+fNg6KZZ/fF9MvpiFApYFOOS/UpcmlZ2L+ir8P+C178jj+tRpa1SIOxDoYIf7y/INH+YQ/dsT8D9u++ItSv/zqrpNaGlW+r9VaqC51oe+vjpdHj+p2cPnurcv2752/o/QH1E93nxKz/ak00Fk78mx7gs23/MbMPhVex+VE/RTjZ/E8fu0g7/bVOzxsGfjnD+x9K/ZP4rZERGk1+xk6/SaefHTT9dHLS8DCffXlliKttoYCDHTHLTZW961lItbSu0K5AftCm1ZroZx3LMXTdVdnIguvNDqu8Ho/j3JnvH8xfBpLTwrlKpa6XulznDyPfn8wWpJqL4eZWI6oq3b2wfsXOfMiLX2iWD5i+QWVv0r+qSw58i8/oNKomku1rH23DbXBHBTjBwC5Ujng94PzJ1Bzd3K2XFtHMTdEf9eKv+T4jCtO/OX5F67++3Hmv942kCttjr4fJ/42//oVHH95+oMpf79Qtk72deh6G0ahjIZCAlX371u/vepn5RZKOUf/kYDKagEYHIYczI3Nq/xQaVgPqzLvnSuUPR7MFfP4DWpfEbv+B+ePSNY/NfcNIL/MZZdElHqzH9B99gUWcBVPNy+a/19fxYvFxzj7yZfiloFyperoKYnV4gHqzit4zS1X49zbO8AQeSw7W+VcEYErNH3DK1gtDNHfGV957W13YaCA1Yp3+DQM+/VRGl3pE0+e4XMSE5Xy/pdRa1mdZeir1ADQw/aGPoUli5Pl4y4/i2/5J8O3/KBhOQ/XUq1pnFT4/75i/vjqYe9giFxxfRRfbb2InNEdn1CqHJ+RxY2/hHL9D+bMf/v7S9eQWPx9yzeh+MfnnHV5gKMhkE+mAgBB6feon5XVAmDsC+1MnPbHPIaHRw/EAGW+8Z92+Y3uQW7DvI7kMSBM4vj1bV9j1n/l/AnRP+WWcE38jIgoZWY/oLu/j3MPgePrVwAAJzdXcPz4Ic7eFzcM5nwoij7RIFfQGD3yv4NOtQTnIpTe9ob1IBV7G/fVv8BwbRl55Bxh46uZ4/A5uraEHAY4dGVID4cDIGeeMcajuv9CCaWce2CSCrLyk5X/1Jl5WVizb8bXUFuLd7U/FIX8keltd2GMTtg0rBdzwr04wcdnLAnEP5Bq/Y8gv6xlOv6hDI8wHu6Yg6dZPZXSXT+tAYRzAJBmqSi/eMdvYPsat/6r5k9a+ycioohmP6ADsPDxPSws3sDX+kWcXF+Mtdxykjb5dK56H0Nhq9GyOF33fJqVb3jvEAMM0a+Pl4vYf15LNmbuwZHH1dL4V4xHVPdvtKHX+8iXO0pLqWZGsfx8y39WciVUOx10Otbyy1lVLsX8CdbEvmFdEdfWUUQf4/NlteMzskTiH0C1/odiPoBicNjLaPyzxlE/K6soOGePE+ExgEjK3MsvmePXt32NW/9V8ydM/+S6+EBElE5zGdDZs3TPN97BswjLLYOZJ0fjxltDbTP4CuKDo+DuyB1ungyUNn1O8Ht7OHAu7wh6L9o0WL9fcjyaS6ttTtwj0jscBCx7geMqrHDvgeL+AQC9bWy0DRRUOs0JmvXy8aRnxyTl58GrfsjzLyprxsB5QjMxAy0XPX7h88dLc7cPFNdRWS8CB3uO+Ic/Pt3Ek+UKGq4ZgmTi75t/Yeq/IvseYHMSM5n4+1KMv2/6FUX/vqx8ra0i79/U3O0DpU201vI+s3Px2p/mvgEUViN9N9CMys9f3ON3Uqj+VUYxfwC1/inuvZBERLMynwGdPUsHABGWWwZrYqttOO6xq2Kpa94PYKs0nMs5OqiWBmg7Tppl4c0tHe2BPYNi/9kdfw/bO33A/v0y0I5wBTO6HrY3zIcMuOIv3gvS3ELbcC5t8b5pfJLi/m3NLeum+Q46fr3mjAWXn7z8rZ345J99ItixBvIFlEPlbxO7ruVIk/FT4hs/OVn+KOnt4QAllEsD4URKdnzK86+528dwVP/WcFR3H9+JxN83/0LW/wnWgCXgHuBE4u9LMf6+6VcU4/uy8jU3ir5/YHzin8MB9qZxtt7cV7/vK5QZlZ+v+MevrH2NV/8V88cW2D9VYN5e6flNIqJUScVrC2hS0CP3T5NXJZ3KPB7Bb54kuR/7T0RxmMeU+1UFyTJfIRAwmKBU4ysLiChL5jZDR0Qeri15LF8SlzkRURxabRMl9LEzpcEcAPS2d9AfFlCemPmh1Ks0UC4YaHMwR0QZwRm6lHK/IDbsS2HTzppxGiVP4dHRrxCvlwOLL94lovDsl0iHf1l1VBpqrU1g5zS136cdy4yIsocDOiIiIiIioozikksiIiIiIqKM4oCOiIiIiIgoozigIyIiIiIiyigO6FJKq7Uc7+BJ6h1CaeF4V1Gng04r4ktkiYhSTUOtddrabyJ6dbFNS6vUDOiO79zGkztXxI89CIOBLAx4Ko0QL0Z1GPZR13XoeraetlVpeL2k1amH7Q0duq6j3k/4leuVhlA3HH+BcUqe+QLdCOU+Vebx00rxAeO+mJG2/Isr/fmfbWnKX/v9kd1Mtd9xyY5fWXhc8v4ngFZDa+Iio1mnVHcpS58sPJ7p1//Q8Y96/jMX08+/+UoifT1sdwcoVbNSpq+OlAzoruB4BTh373MxwNewX4eu24MCoFRN+aAuZbRa63TOjDW3HPVi6BgU64m+IDbt+Zf2+AXpbW+Y5dU2xKCZyXL+JSFu+uN+X2ba+0+C/a67eoLtjqp55o/s+JWFz98QQxSxHjHzZOmThaddFuI/z/qvYtrxm/b+0dxC2yigPM3foNDSMaDTV/Acj/B6RwxQY77ANYdi1BaYaAqaWzr0mbzriojSpYJbpRyMLt+vmUUHBwOUbnH+gchPc6sNI1cCD5P0SMV76I7v3MbTS/dw4b19MciDuYyleOB80XIFjU4ZecfLl8cvkDUZbR3OC6ViuPji5nDhky+pFb/vtU0QrdZCtXjg8cJtM/1L3TqO1sYv53anz1rqM3o39fjF5JrHS6vFbeT89w877WiPZsTsvBDLAArpLOXC5ZuT/77F8pn8DbH87PJXyT/3NuK+o5SfxRjnqR95/Ozjp42DYtnn98X0i2kIUGmgU84LdcleejZZJ2zi7wP2vuCZf67jX6uhVS3iQKyDEeIvzz94lE/4Y0fM/7Dti78o9cuv7jqppVHl+1qthepSF/r+Kjp2Ikd1O7h899Zl+/fO31H6A+qnu0+J2f5UGuisHXm2PcHmW37y3/fIK4/jD/A7fh1k4b7804+Q/c+EUVq6WKquYl/fQnOUJzq2mmlIv9g+ONsPSf0HJPmXTPrE+Km3YbL6N97GK/5J1X8x/5Jqn1Xil4320SQeazRfs5+h02/iyUc3XR+9vAQs3FdfbinSamsowEB33KJjdd9aZmctvSuUx+t9tVoL5bxjKZ6uuyqqLLzS6LjC6/08yo414mL4NJYmFMpmBzOZPquxG7RHcdfbg9GSVHu5xMRyROX79IL3L3LmRVqOebF8xPILKn+V/FNZkuJffkClUTWXaln7bhvOBj2YSvwAIFcqB/x+cP4Eau5OzpZr6yjmhujvWvGXHJ9xxYm/PP/C1X8/zvzX2wZypc3R9+PE3+Zfv4LjL09/MOXvF8rWyaAOXW/DKJSV7lFS3b9v/faqn5VbKOUc/UcCKqsFYHAYcjA3Nq/ys/n//rwFp18Uvf9pYrefx2o6Eu0S1D/ZfOt/yPyLQmy/gvpBP/71Lzj+SdX/abXPyvHLSPvY3DeA/DKXXabE7Ad0n32BBVzF082L5v/XV/Fi8THOfvKluGWgXKk6ujG3WjxA3XmFpLnlarx7ewcYIo9lZ63LSdbI+4ZXsFoYor8zvvLa2+7CQMFq/CfDp2HYr4/S6EqfePIMn4M0KuX9L6PWshq+0FepgfGDU9SufKmbLB93+Vl8yz8ZvuUHDct5uJZqTaPR9P99xfzx1cPewRC54voovtp6ETnD8WAIleMzsrjxl1Cu/8Gc+W9/f+kaEou/b/kmFP/4nFe1H+BoCOSTqQBAUPo96mdltQAY+0I7E6f9MY/h4dEDMUCZb/xnVH6+vz9vyumP2/+Y6c6vpfQeIUn/5Ft+yvkX1WT7FcX84m+advssl/b20SG3hGviZzQXsx/Q3d/HuYfA8XXziZYnN1dw/Pghzt4XNww2dDwURZ9osCtojJ7C1EGnWoJzErq3vWE9SMX7SU2B4doy8sg5wjrodMoYzb5ry8iP9jQH15aQwwCHrgzp4XAA5MwWKR7V/RdKKOXcA5NUkJWfrPynzszLwuhEQkNtLd7V/lAU8kemt92FMTrh0LBezMHYd3YHwcdnLAnEP5Bq/Y8gv6xlOv6hDI8wHu6YgydxlmFa3PXTOkFzniCmWVrKb15U059E/9Pbw0GMh6NMS6z+STX/opr2+c+04x9gJu2zje0jRTD7AR2AhY/vYWHxBr7WL+Lk+mKs5ZaTNNRaZRQMx5R8vQ/x4fijZXG67vm0Ht/w3iEGGKJft6eyx3/hlnRMyYMjj6up8a8Yj6ju32hDr/eRL6s/7nkmFMvPt/xnJVdCtdNBp2Mtv5xV5VLMn2BN7BvWFVNtHUX0Me4P1I7PyBKJfwDV+h/KNSzlgMFhL6PxzxpH/aysouCcPU7EFE8wX/XyU01/Iv2P+Xj24voUyjGmyP2Tav6l1VziP8P2ORVCto+uwSfN01wGdPYs3fONd/AswnLLYObBNz64NdQ2g2cAHhwFn066w83KXtr0aUB7ezhwTv9XGuMbW2fB+n3nE7q02ubEGuje4UCybMOeRRHW1ivuHwDQ28ZG20AhUqeqWe8bDHH1UYmk/Dx41Q95/kVlXRFzdhgTM9By0eMXPn+8NHf7QHEdlfUicLDniH/449NNPFmuoOGa4Usm/r75F6b+K7LvATYnMZOJvy/F+PumX1H078vK19oq8v5Nzd0+UNpEay3vc/U5XvvT3DeAwmqk7waaUfn5UyufqVFMPxC3/7E09zEormJp9MGc0+/Bq3/yJc2/mOmb9vmPNP7WZgnW/2m0z9Hjp1Y+0fdvkrePprj3ClOy5jOgs2fpACDCcstgTWy1Dcc9dlUsddtw3pZbaTinyzuolgZoO06aZeHNLR3tgT2DYv/ZHX8P2zt9wP79MtBOcgZCqoftDfMmWlf8xXtBmltoG86lA6o3RSvu39bcsm66jfGy14QFl5+8/K2d+OSffSLYsTqyAsqh8reJXddymsn4KfGNn5wsf5T09nCAEsqlgXCiJTs+5fnX3O1jOKp/aziqu4/vROLvm38h6/8Eq0MOuAc4kfj7Uoy/b/oVxfi+rHzNjaLvHxifGOZwgL1pnI0096dwXw1mV34BgstHdvzKwmUU02+L3f80sXuQR8Fxxjzf9Cv2T77k+RcvfdM+/5HHH4hT/2fUPkeOn6x87I2i7x9QbR8rMG+v8zzyaA5S8doCmhT0yP3T5FVJpzLPR0Q7nux1etZ1EM2ReUx5PYo7KeYjyj1ONomIUk3ePvKVBekztxk6IvJwbWli+cTkMkUiikOrbaKEPnZ8TlaS0NveQX9YQDnSzBAR0XxI28dKA+WCgTYHc6nCGbqUcr+AUvWlmFlhzTiNkhf90dKnkdfLR8UXmxJReJXRC4HVXwYcj4ZaaxPYOU3tNxGdRmrtI9u0tOKAjoiIiIiIKKO45JKIiIiIiCijOKAjIiIiIiLKKA7oiIiIiIiIMooDupTSai3HO05CvkMk9Rzvsul00GnFe0knEVE6aai1Tlv7TURE0UyvT0jNgO74zm08uXNF/NiDMBjIwoCn0gj/4klYT3/Udeh6tp4mVGnIXuLaw/aGDl3XUe8n98pRwM5rsX5Yf4FxSp75AtgI5T5V5vHTSvEB476Ykbb8iyv9+Z9tacpf+/2R3Uy134mL2v+hgkZA+z2z9jVy/L3J+8cAWg2tifOdmHU+cvpOY/nEzEsFofu3RNM3bdPPv/lKIn09bHcHKFWTL9OUDOiu4HgFOHfvczHA17Bfh67bgwKgVBUbOQqi1Vqnc2asueWoF0PHoFhP9AWYac+/tMcvSG97wyyvtiEGzUyW8y8JcdMf9/sy095/Eux3OdUTbHdUZSF/gmmotcooGO1Re55k+01xsXyiSkP/JpP29mPa8Zv2/tHcQtsooJzwb6RjQKev4Dke4fWOGKDGfIFrDsX1JLOGKJ7mlg7d910uRHR6VXCrlIPR5fs1o7mGpRxg7Pu3nmxf54nlQxRHc6sNI1fCrQSn6VLxHrrjO7fx9NI9XHhvXwzyYC5jKR44X7RcQaNTRt7x8uXxCxJNRluH8wKSGC6+uDlc+ORLGMXve20TRKu1UC0eeLxw20z/UreOo7Xxy7nd6bOW+ozeTT1+MbnXS6vFbeT89w877WiPrtjZeSGWARTSWcqFyzcn/32L5TP5G2L52eWvkn/ubcR9Ryk/izHOUz/y+NnHTxsHxbLP74vpF9MQoNJAp5wX6pK99GyyTtjE3wfsfcEz/1zHv1ZDq1rEgVgHI8Rfnn/wKJ/wx46Y/2HbF39R6pdf3XVSS6PK97VaC9WlLvT9VXTsRI7qdnD57q3L9u+dv6P0B9RPd58Ss/2pNNBZO/Jse4LNt/w888J1fKnET6y/mKjD8vpt9unwaBfit6/y35fFP5h/+cDet2L/OMGjrXOXGSKkHxPpk+VPtstn8vvj9lfSfgCS8pUdP/Z37LZI7N/soKjpU8lf//gn135Mp39TiV82+heT2BbENfsZOv0mnnx00/XRy0vAwn315ZYirbaGAgx0xy0mVvetZQDW0rtCebxeVau1UM47luLpuiujZeGVRscVXu/nUXascRbDpzG1XihXsdT1Sp91sA4cSyHag9GSVHu6f2I5ovJ9esH7FznzIqE6G5tYPmL5BZW/Sv6pLKnwLz+g0qiaS7WsfbcNZ4MUTCV+AJArlQN+Pzh/AjV3J2fLtXUUc0P0d634S47PuOLEX55/4eq/H2f+620DudLm6Ptx4m/zr1/B8ZenP5jy9wtl62RGh663YRTKULmtSHX/vvXbq35WbqGUc/QfCaisFoDBYcjB3Ni8yk+Vf/wm66/YDorhrvo9uge6jAKAQtm+12h8fMVvXwN+3yM86HcmBZePaFr9Y5j0i+kTw09X+QT37zbf9iNk+UYRN30IzN/g+CfVfkyrf1OOX0b6l+a+AeSXE1t2OfsB3WdfYAFX8XTzovn/9VW8WHyMs598KW4ZKFeqjm4srRYPUHeO8Jtbrsaxt3eAIfJYduZarojAFZq+4RWsFobo74yvvPa2uzBQwKrZ4k2ET8OwXx+l0ZU+8eQZPpUsKuX9L6PWsg7c0FepgfGDU9Su3KibLB93+Vl8yz8ZvuUHDct5uJZqJX3QI/D3FfPHVw97B0Pkiuuj+GrrReQMx4MhVI7PyOLGX0K5/gdz5r/9/aVrSCz+vuWbUPzjc16VfYCjIZBPpgIAQen3qJ+V1QJg7AvtTJz2xzyGh0cPxABlvvFPSfn5xs+j/rpNhrvq9+ge6DbM61jeJ1QyYeKXaP+tXD5x+8dgYdLvNhl+qsrHJunffeOnXL5RJZO++cXfNO3+TS7t/YtDbgnXxM8imv2A7v4+zj0Ejq+bT7Q8ubmC48cPcfa+uGGwoeOhKPpEgyg8falagnMStbe9YT1IxftJQ4Hh2jLyyDnCxlerxuFzdG0JOQxw6MqQHg4HQM48ouJR3X+hhFLOPTBJBVn5ycp/6sy8LKzZN8tqqK3Fu9ofikL+yPS2uzBGHaaG9WJOuNci+PiMJYH4B1Kt/xHkl7VMxz+U4RHGwx1z8CReJZ8Wd/20TjCcJzhplpby8yPr/6Zdv2Vkvy+Lv4xq+cyrf5SlT5Y/0yb7fVn8FcTq31XLN6oE0hdo2vEPMJP+zfaK9i+zH9ABWPj4HhYWb+Br/SJOri/GWm45SZt8+lK9D/Hh+KNlAbru+bQZ3/DeIQYYol+3r0yN/5yzDnPz4MhjtiP+FeMR1f0bbej1PvLljtJU98wolp9v+c9KroRqp4NOx1p+OavKpZg/wZrYN6wrfto6iuhj3J6pHZ+RJRL/AKr1PxTzAQODw15G4581jvpZWUXBOXuciCmeIGW9/KZdv2Wm/fuq5TOF/nHgPkuPZtr5IzOj34/cv6uWb1rNJf4z7N9SIWT/4hp8xjOXAZ09S/d84x08i7DcMphZecaVU0NtM3gG4MFR8OmkO9wsrNKmTwPQ28OBc/q60hjfmDkL1u+XHI/O0WqbE2t4e4cDybIDexZFWBuuuH8AQG8bG20DhUidlma9bzDE1TMlkvLz4FU/5PkXlXVFx9ngTcxAy0WPX/j88dLc7QPFdVTWi8DBniP+4Y9PN/FkuYKGa4Yvmfj75l+Y+q/IvgfYnMRMJv6+FOPvm35F0b8vK19rq8j7NzV3+0BpE621vM/V03jtT3PfAAqrkb4baOrlp5b/vqT935Trt5Tk96Xxl1AsHwDR+seA/Qc8cHJMmj5J/kyd5Pel8Q/Pq3/3FZD/ZvlO+/iJSRp/a7PI7cekafRv0eOnVj7R92+S9y+muPdai+YzoLNn6QAgwnLLYE1stQ3HPXZVLHXN9d62SsM53dtBtTRA23HSLAtvbuloD+wZFPvP7vh72N7pA/bvl4F2kjMQUj1sb5g3gbriL94L0txC23BOfave1Ku4f1tzy7ppdPLFo/MSXH7y8rd24pN/9olgx2qICyiHyt8mdl3LQSbjp8Q3fnKy/FHS28MBSiiXBsKJjOz4lOdfc7eP4aj+reGo7j6+E4m/b/6FrP8TrA4l4B7gROLvSzH+vulXFOP7svI1N4q+f2B8YpPDAfaS6k2dmvtTuC8EMyk/pfz3Je//4tVvefsgE/z78vgHUywfW+j+MeT+J8jTF5w/MmkvH8X+3Zc8/4OPH1n+xE9fMHn8gTjtx4z6t8jxk5WPvVH0/QOq/UsF5u11akeuilS8toAmaQGP3D9NXpV0KvN8xLHjyVSnZ10C0RyZx5TXo6STYj5i2+NkiYiITjF5/1JpJPvKAsxzho6IPFxbmpj+n1ymSERxaLVNlNDHjk9nm4Te9g76wwLKSjMvRER0Gkj7l0oD5YKBdoKDOXCGLr3cL1BUfaljVlgzTqPkTefRzVnl9fLMofBiTiIKr9KwX2ir/jLbeDTUWpvAzmlqv4mISKTWv0yvT+CAjoiIiIiIKKO45JKIiIiIiCijOKAjIiIiIiLKKA7oiIiIiIiIMooDupTSai3HOzpCvgMj9RzvYul00GnFe8kkEVE6aai1Tlv7TUQ0L2xT/aRmQHd85zae3LkifuxBGAxkYcBTaYR/cSKspz/qOnQ9+afhTFOlIXtJag/bGzp0XUe9n9wrMwE7r8X6Yf0Fxil55gtMI5T7VJnHTyvFB4z7Ykba8i+u9Od/tqUpf+33R3Yz1X7HJW//g7mP/9PaDsT3qvYvofuHqOdfczH9/JuvJNLXw3Z3gFI1K2U6OykZ0F3B8Qpw7t7nYoCvYb8OXbcHBUCpmvJBXcpotdbpnBlrbjnqxdAxKNYTfYFj2vMv7fEL0tveMMurbYhBM5Pl/EtC3PTH/b7MtPefBPtdRPUE2x1VWcifQM52W9eh+z4CPJp558+8fz/L0tA/yKS9fKcdv2nvH80ttI0CytP8jQxKx4BOX8FzPMLrHTFAjfkC1xyK6yxaSo/mVvInIkSUBRXcKuVgdPl+TZoO9i/0KmtutWHkSrjFabqRVLyH7vjObTy9dA8X3tsXgzyYy1iKB84XLVfQ6JSRd7x8efyCP5PR1uG8UCqGiy9uDhc++RJB8fte2wTRai1UiwceL9w207/UreNobfxybnf6hBd3O15Mrnm8tFrcRs5//7DTjvZoRszOC7EMoJDOUi5cvjn571ssn8nfEMvPLn+V/HNvI+47SvlZjHGe+pHHzz5+2jgoln1+X0y/mIYAlQY65bxQl+ylZ5N1wib+PmDvC5755zr+tRpa1SIOxDoYIf7y/INH+YQ/dsT8D9u++ItSv/zqrpNaGlW+r9VaqC51oe+vomMnclS3g8t3b122f+/8HaU/oH66+5SY7U+lgc7akWfbE2y+5afG//cRsv33EtRu2/naH5RQKgDD/riczf17559y+31NtX4EE9s35d+XHh9iGYv10zv9wfXHotC/2PzS59e+Bf/+ZNvqd/y7st+zf7CDop5/Rcm/JI8/7/xLqn9QiV9w/Qsun9m1zyaxrXnVzX6GTr+JJx/ddH308hKwcF99uaVIq62hAAPdcY+C1f3xco16f4hCebzeVqu1UM67l3Q4K4osvNLouMLr/TzKjjXaYvg0lgYUylUsdb3SZzU2g/Z4uUp7MFqSai9XmFiOqHyfXvD+Rc68SMsxJ5aPWH5B5a+SfypLQvzLD6g0quZSLWvfbUO9s1WJHwDkSuWA3w/On0DN3cnZcm0dxdwQ/V0r/pLjM6448ZfnX7j678eZ/3rbQK60Ofp+nPjb/OtXcPzl6Q+m/P1C2ToZ06HrbRiFMlRuu1Ldv2/99qqflVso5Rz9RwIqqwVgcDg5IFE0r/KTC/59UeT2P1dC1XkPnXNpVa6E4lEd9f5wVM5tAyisjiuQM/+cx5c0fxKoH3H7DyD4+Jhn/wJJ+my+x1/I+hOF2H4G5ZMf//wLjr9y+UpMq39Qjl9A/Quiun/f+hHy+GvuG0B+mcsuLbMf0H32BRZwFU83L5r/X1/Fi8XHOPvJl+KWgXKl6qixrxYPUHdeoWhuuTqP3t4Bhshj2VnquSICV2j6hlewWhiivzO+etjb7sJAAWZ/Mhk+DcN+fZRGV/rEk2f4HCRRKe9/GbWW1fB4XWmVsh+conblSd1k+bjLz+Jb/snwLT9oWM7DtVRrGo2W/+8r5o+vHvYOhsgV10fx1daLyBmOB0OoHJ+RxY2/hHL9D+bMf/v7S9eQWPx9yzeh+MfnvKr8AEdDIJ9MBQCC0u9RPyurBcDYF9qZOO2PeQwPjx6IAcp84z/v8lP+/Zjtv3gPnWsfjpO7YR+7TeDBkfvhWv7Hl4xq/ZCI3X/EOz58609S/Yskfb6/r1x/oppsP6OYX/xN/vV3Mn1R+ge5ePVPxjd/oxx/uSUoHdqvgNkP6O7v49xD4Pi6+UTLk5srOH78EGfvixsGGzoeiuJu7AFzCabj6l61BOckcG97w3qQiveTkgLDtWXkkXOEddDplDGa/daWkR/taQ6uLSGHAQ5dGdLD4QDIqfVowVT3XyiZy2DSdg+JrPxk5T91Zl4W1uwr0hpqa/Gu9oeikD8yve0ujFGHr2G9mIOx72yOg4/PWBKIfyDV+h9BflnLdPxDGR5hPNwxB0/iVf5pcddP6wTJeYKWZvMuP9XfT2H7r3pCGrd+JNJ/TO34iN+/xEqfav2JatrnX9OOf4CZ9A+2qdU/ubjH36ts9gM6AAsf38PC4g18rV/EyfXFWMstJ2motcooGI4p8Xof4sPxR8sWdN3zaTm+4b1DDDBEv+64emj9Ka5YmK4HRx6zHfGvGI+o7t9oQ6/3kS93lKbqZ0ax/HzLf1ZGS46s5TGzqlyK+ROsiX3DumKpraMI8yq6Se34jCyR+AdQrf+hXMNSDhgc9jIa/6xx1M/KKgrO2eNETPEEb97lp/r7qWr/HceXkvj1Y+79h0zM/iVy+lTrT1rNJf4z7B9SIeTx5xp8vtrmMqCzZ+meb7yDZxGWWwYzK//44NJQ2wyeARCXa4jc4WZlK236NGC9PRw4p98rjfGNpbNg/X7J8egfrbY5sQa5dziQLJuwZ1GEte2K+wcA9Lax0TZQiNSpa9b7BkNc/VMiKT8PXvVDnn9RWVeknA32xAy0XPT4hc8fL83dPlBcR2W9CBzsOeIf/vh0E0+WK2i4ZviSib9v/oWp/4rse4DNScxk4u9LMf6+6VcU/fuy8rW2irx/U3O3D5Q20VrL+1z9jdf+NPcNoLAa6buBZlR+vhR/H4jb/ifHfXyZZPkjrx/qZtt/yCTTvzh5pc+XtP6oHf++pn3+JY2/tVmC5TuN/iF6/NTKJ/r+TarHX9x7lU+b+Qzo7Fk6AIiw3DJYE1ttw3GPXRVL3Tact8VWGs7p6g6qpQHajkZNFt7c0tEeCDdtjzr+HrZ3+oD9+2WgneQMhFQP2xvmTayu+Iv3gjS30DacU/eqNyUr7t/W3LJueo33stkkBZefvPytnfjkn30i2LE6kgLKofK3iV3XcpbJ+CnxjZ+cLH+U9PZwgBLKpYFwoic7PuX519ztYziqf2s4qruP70Ti75t/Iev/BKtDDLgHOJH4+1KMv2/6FcX4vqx8zY2i7x8Yn5jlcIC9aZwNNPencF8LZld+vhR/3xa1/RcfihKy/gcdX4BC/sSoH/H6Dxl5+xgsfv+ilD5f8voTfPzL0j/t8y95/IE45Tuj/iFy/GTlY28Uff+A6vFXgXl7nWfL80pKxWsLaFLgo5tPkVclnco8H9HseLLW6VlXQTRH5jHl9SjspJiPCPc42aMpSqpck9pPyrB/oUyQH398ZcGkuc3QEZGHa0sTyxcmlykSURxabRMl9LHjc7KQhN72DvrDAsphZqYoFWZRP+aC/QtlgPT4qzRQLhhoczDnwhm6lHK/AFL1pZRZYV0RHCUv4qOtTymvl3+KLxYlovAqoxfyqr+MNx4NtdYmsHOa2u80k1/ZDzL7+jF77F8ordSOP7apfjigIyIiIiIiyiguuSQiIiIiIsooDuiIiIiIiIgyigM6IiIiIiKijOKAjoiIiIiIKKM4oCMiIiIiIsooDuiIiIiIiIgyigM6IiIiIiKijOKAjoiIiIiIKKM4oCMiIiIiIsooDuiIiIiIiIgyigM6IiIiIiKijOKAjoiIiIiIKKM4oCMiIiIiIsooDuiIiIiIiIgyigM6IiIiIiKijOKAjoiIiIiIKKM4oCMiIiIiIsooDuiIiIiIiIgyigM6IiIiIiKijOKAjoiIiIiIKKNSM6C7/BML4kf46ctnxY+IiIiIiIjIkooB3a/8Ug7bv35J/Bjdf3sV//6f/AXxY6JXiIZaq4WaJn4+T2mMExEREdGr6bXLly+/FD+cJf2tC9j+9TfxEz++gI/2vsT2f/oRAGDrV5fwm9/9SZycvMTPbHwmfi3Qi7u38WzR+cljnP/g+zh73/mZvZ132PGd23i64vjgYRcX7nyuFH6y+Ta+essVAQCPcOHdT4Drq3j6/g0cO4OEfScpKI2nXaXRQblgoK1voSkGZoKGWquK0qANfUtMgRWWG6Jf38B2TwgGFLeJqNJAp4wM5y0RERHR6TD3GbrOp0/wvx98hT9+/AIf/t7j0ed/95cvAgDOnHkNv/ndJcc31Cx8+j1cePdDXHj3Q3zjU+DZ+2/jxXXHBtdX8QL3cP7hIl7cNH/L9uLubTy9dG/0/QvvfugacMnCAQCPhfB3P3EG4vwH47Dzl9bw5O6qIzwZJ5tv4xkeY3Ixa/ZptRY6rRpO8ySRVttECX3UxcGcVkOrswkcGO7PBeb3hxiKAUlobqFtFFA+5WVARERElHZzH9ABwL/5+E/R+O9/ij/84QsAwK1v/TjyS+P75/7OXxdnu8I5s/N9nH/sHrid3FwB7n+Os/ce4fj6FcfWV3CyCJz7wb7jMydZeHhn3+vi3OINPN10DyzjuYIXbwHnd/rpKOQ5aG7p0DM7g1TBrVIORncb7ok1DbXNJXT1DWwfugIEFdwqAf2dLgZiUEKaW20YuRJuVcQQIiIiIpqVVJzrG//3OVqf/DkA4Nf+xkX8y3/wpiv8J7+5gN+rL+Mv/fTrrs/VmYMwp5Prizjz6Evgsy+wsLjinr0D8PzbwTNmsvBwPsfCQ+D4zeQGdMd31vD8YT/yMstKo4NOZ/zXEE7axfCWcENVuPAGnLvXai10GhVzWZ+9jRUBrdZCp9NBtZQDciVUR/sY39Nlb+O1b2sL1FrO33feD2aGNSrubcKmP7bKKgrDPnYnRqM9bG/IB6mVRhkFozu5zLLSQKdVQ82Kf6tWGaXTmUa19DWxbwCF1ckcJiIiIqLZSMWADgD+8sp5/MG/u4J/8ffexLmzk9H6uZ95A7//r67gX/+jvBgkdbJZwnM8whs7X5ofXF/Fi8VHeL0D4P4+zrpm7z7H6x/cw8LiDTz56LbHUkhZuMUOt//8tnO6lNCA7voqnq88mlwGqqrSwOq+Dl03/+r9IQrl8cBIq7VQzvdRt8J1XceGY+QgC680Oq7wej+PsjjwKpSte7R06HobRqGMRgXobW+M4oSh8zfG94jZ2+htryWJjvvS7O+2ByhV3Q/5KJSrWOpGS38SKqsFYHAozM4p0mpYKxhoi0s1bbkSikd11PtD5EplLHV1tB0DszDpa+4bQH6Zyy6JiIiI5mRy5DRjP/XmAv7mX72An/vp8/ip/DkxeMIvrn7D8xUHouO33hkNpr66/tB1D9vJzRUcP3w4+v/M/cfuZZf39/HGux/igmPg5loOKQuHxz107yW3RFPmxeYN4NO++LG65hacY4He3gGGyGPZedaeK2I96CzeN7yC1cIQ/Z3xUsLedhcGCnBP9DgfZvIAR0Mg74pARNo6irkh+s6pr+Yu+sMcio4ID/v1UR5ESn8sGpbzwPDogRigQENtswT0dwNm8Qx07QGaNQv44Ei40y5M+nJLuCZ+RkREREQzMfcB3d//W+bTLP/r3p/hW//4D/G7n3o/wuHP/98x7nz4BX7hNx7hh3/qekakJ+dDUcTB1Mn1RSx8Yc3WAebSy0X3Mk/AMXBrPcLxWzcnlmVKw0N4eQnAj8Zxiky/iWe4N56NjKSChmO5XadaQs4R2tveQL0PlKr2Nu7ZtcBwbRl55BxhHXQ6ZRQc3wcADI8wHs70sL3hP0sUyrUl5DDAoWtXPRwOgNyS2rAkMH3zVrmFEvrYiZFXqU4fEREREbnMdUD3y3/lx7Dx176Jv7j8Oqp/+yfwR18c4zd++4f4j7975Nru2dcn+NV/dogPfz/OIMVyfRUvFt0zeE82rgK4iq91cWNL5yHOYREnPysGWGThMlaczt2LuETS4fjGVWG55xqeYxHP3ldc9gkNtVYZBcOxJLHen3hS4mhZo657Pu3QN7x3iAGG6NfHy/nsP78Vgol6cDQ52xZhRsw3fYkIN8B0qqwWhHsLyyjYA+hWTdzcV6j0uQbfRERERDRLcx3Q/covfRNvnDej8Is//2NYLZwHAPzz//wnGH41noXb/YM/w8EfPR/9H8fJzRUci8sh3/0QbzwEnt9wPu1yzL4H7/WOGGKShQe7gq/fv4Hjh13h+1fw9Ue38eQj4XULEgt33Om68G4X5+zXJCgt+7yGpZxzcGMu4XPO0IkmlusJ3OFN7Bs5lDYDBggKeoeDcMsCbb09HAxzKDkezajVNlHKOZYhhuSdfnuWM9oLuJvm00ZCz4yZT/Z0/rVh2APojW1xcyXe6TPFutePiIiIiGKb64DuN377h/gf/2uIP/nyBb7zTw+xbzwbhX30P/8MAPDy5Uv8h7Z7xi6Ol28uYuH+5EzYwr1HwMqK+eJv58NMPrqNr976cnwPnizcJj4U5aObzkBzxsyaQTv59HvRH2CSuCa22gZypao1w1PFUrcN5+NFxCcgVksDtDfG98TJwptbOtoD5yxShGV9zS20DefSTXvg5Hg6ZbkAoICyK7yH7Q3zISuu+IV4vYEsfYlo7nvcV2ga/X65ADiWr4pP4oxKPX0VrBYAY18154iIiIgoaa9dvnz5pfjhLL31c2/gF37+G/itjycHbZ/9t5/FXv8J/uFv/VAMIjr1tFor9GBzliqNDspoQ5/JWlkiIiIi8jL3AV0Q/a0L2Dee4dEfmy8cJ3q1OF6xkLZBU6VhvVYinYNNIiIiolfFXJdcynQ+fcLBHL3CetjeqKOfX4t0H970aKit5dGvczBHRERENG+pnqEjIiIiIiIif6meoSMiIiIiIiJ/HNARERERERFlFAd0REREREREGcUBHRERERERUUZxQEdERERERJRRHNARERERERFlFAd0REREREREGcUBHRERERERUUZxQEdERERERJRRHNARERERERFl1P8Hi1D/0kb1xegAAAAASUVORK5CYII=;" vertex="1" parent="1">
          <mxGeometry x="10.000000000000004" y="319.38" width="195" height="36" as="geometry" />
        </mxCell>
        <mxCell id="9iWDFektB7QEEFaRxru2-12" style="edgeStyle=orthogonalEdgeStyle;rounded=0;orthogonalLoop=1;jettySize=auto;html=1;" edge="1" parent="1" source="9iWDFektB7QEEFaRxru2-8">
          <mxGeometry relative="1" as="geometry">
            <mxPoint x="295" y="320" as="targetPoint" />
          </mxGeometry>
        </mxCell>
        <mxCell id="9iWDFektB7QEEFaRxru2-8" value="" style="shape=image;imageAspect=0;aspect=fixed;verticalLabelPosition=bottom;verticalAlign=top;image=data:image/png,iVBORw0KGgoAAAANSUhEUgAAAwcAAAIYCAYAAAA4r5C1AAAAAXNSR0IArs4c6QAAAARnQU1BAACxjwv8YQUAAAAJcEhZcwAADsMAAA7DAcdvqGQAAH9xSURBVHhe7f19fFT1nf//P21dURkmkasMFzaJGeVCLGGDULxCjPEjxm1/XCiLfK3tR1nKom2331YRhRs30Czabndb4UuzsV+rftFFLry5axo/jVERhQVJgYogZTCJGpNAwFwMFqyuvz/OOTNn3nORmWRCQnjcb7e53ZjzfuecM+ecGd6vc17v9/uc7OzsrxRHbm6uGhoadPLkSbMoZelclyTNmDFDW7duVXNzs1nUKf1u3qD8Kz3mYklS8J3H9d4rr4fex6zb8o72PLFMpyKXRteNUy+eCaU1unXINpXNnKfGhZVaOtuv2o25enbtfE3fvEQTZZdJklbpzqo5yjHWYdUPv59QWqNb/a4Kre512IrW6b7FVynTtchcj2TvQ4bzPqCXC6s1rmqOMreX6ImHyyRJvkf2av4Ur/sPLTG2G7VvkhRYr5ULFhsLz3TX6qGnfqy/9Uqq+U/N+unTZgUAAIDT7hyCA3QnJzCICiyc4KNPNvyTc+2Dz+jHE/ur5r9m6ae/M0sBAABOv6+ZC4B0GjbEKymgfRFPHCRVfqQWY9HZ5S59Z2J/qe2PeonAAAAA9BIEB+hWDUfbJPk1bmHk8gmlVvpT7Z6z7anBtXroqU3atOnbGrrr3zTr+49qq1kFAACgh5BWhG4Xu89BQC8XFmm3sRQAAAA9h+AAAAAAgERaEQAAAAAHwQEAAAAAieAAAAAAgIPgAAAAAIBEcAAAAADAQXAAAAAAQCI4AAAAAOAgOAAAAAAgERwAAAAAcBAcAAAAAJAIDgAAAAA4CA4AAAAASAQHAAAAABwEBwAAAAAkggMAAAAADoIDAAAAABLBAQAAAAAHwQEAAAAAieAAAAAAgIPgAAAAAIBEcAAAAADAQXAAAAAAQCI4AAAAAOAgOAAAAAAgERwAAAAAcBAcAAAAAJAIDgAAAAA4CA4AAAAASAQHAAAAABwEBwAAAAAkgoMYhvxEZQue1nMLVmieWWaYV/y0nlvgehX/vVklRfdo7YwKrR1uLu9Yv5s3aPLS1fKaBfFMWK3JSys0+b4V6meWoXOGr1bljNVaYC7vquGrVTmjQpWdvDYAAACSRXDQSfOKn1bxyM+0Z/NduqPUfpX/h1ktBdP06I2z5G9/Rxs+Mcs60fhHklbpzqoa3ffIfLMgdZ9s0s72PM2+cYVuMMs6a8AKvTg5T4Ed01X04nQtjHFtAAAApAvBgenoLzW/9C7dUbpM68yykL/X5SMlfbxFjx81yzpnwaT7NWnAYW18dZleMwu7w+57tWPldO14YplOmWXopNf10KubFBhwpR6cdI9Z2Ck3jBgjT5yAEQAAIN0IDrrgREuduahzBqzQzSOkwI57VWqW4QzzpBbuOCyNmJWWFKBLvR5zEQAAQLc5Jzs7+ytzoSM3N1cNDQ06efKkWZSydK5LkmbMmKGtW7equbnZLOqcIT9R2czx6u+8b9+rNc/9Um9H1rL9vUoWTNeQfb/R/Le3m4UpWzCpQrO97+ifo54a3KOcpbOUFbHM7bAOrLxXbXbaUf6VTTqwco8Guv4m+M7jeu+V18N/MmG1Jt+aF37/wSbtWPdk+L2Ld16FxlwSfh+1rqSs0p1Vc6SNuaocsVfzpziJUQG9XFik3UZt3yPuOlLL9hI98XBZRB0trNTS2f7IZVLUOieU1uhWd7XAeq1csFiKsR1T9Hatz5ETeh97/y3T9OiN92uSYp3T1MS/NgAAANKP4CCGecVPqzjDDA6m6P47fqD8ARFVXT7Tns0LO5FmdI/Wzpgl34HHNeP9+A3vcOPfCgZMVrl1l7np5emq3e0EAlmqffI2NTWYfzFNWffdr5zjsYMDKzAIBx/Wsg264LVY60rE1agONc7na/rmJZqobSqbOU+Ndk2rMe9qdBet032Lr5LcDXU7MKjdmKtn17rW3xq5Lt8je1VUP96uE15XpitAsFh/nxkVDLjE2I+ofTXcMHqDHhwj7Xz1Nj3UbpYmj+AAAACcTqQVJW27Hn/O6XxcoVpJJ/b9JtwZubQzgYGk4fnyK6j99fEDg1SEAgNJ2r1HTfJo8PhpRq2OTNMFAyV9sCciEGlbl2pg4NK6TWWhRnmZdu9vkzKGaphTXrRO1/il2o2uxnblPG3Y3qbMKbdrgr1oQr5fat2mSqfRr8Wq3N4mZYzThCJnmdT4sCswkLWutwKS/AWhdSVrwuyrlNm6TRtcwcPuBetVK7+uidOR+bX6AwrKo4Fxg0kAAIDeh+Cgh93gzZLUpA+7cHc57LCOx7qNnbLX9Zfjki6Zpcnz0tOxtmX/G6G7+rH4po5TpgLa527QS2qsPyJpqHxFkjRfviGR5WFH1FhpLovUcDTWM5eOrNI4f6z9P6zmVilziCtFy639QzVK8nlTDczc7lH+CCn48es8NQAAAKcFwQFials3XXveCVoBwtIKTV5aoctv7kpDN7FhQ7yS/Lq1qkZL3a+IvgVlqqgMSBlXqWihs2yViqZ4pUC1kd5jDVHqXleiPgZxFV2sTEmZU5ZE7lfVEk3MMCunizXfReWMfO15cXrCdDMAAIB0IjhAXKdeuc0a7nTl46ptkTxX3t9tAYJ1Vz+glwtztTLqNV4V9lMB34ihkqSc2U4jfY5y4vQjyGndpjLXesq2d+LJQeVHarE7KEfvV66x3XR5UgtfnK6iF/cof0aFXhzdPcccAADARHDQw15ra5KUpW90kJt+qsmqd0EoSf90el1NT9gBwqAYaTQ3LNcL5eUqL/+17jbLkhSZPhSP9ZQgqqFuNtAXFihHUm1luINyfB2kB3VYHseAb8gnqbGtK3f9n9Seeskzclr6JlUDAABIgOCgp32yRwF5NHZEB3eHG48rKI9ybkhPH4DE7lHOfSvUz71o2DQNzpSCxw67l0qSrr9mrD0EbJ7Gx+6f27G1L2hXq1cTF1cm6DCcZEM9cEQtknLyV4UWTSiNl1ZUpsajkvzTNT1mYGKnMvnnpDSL8g0jxsijoI6npS8JAADA6cFQprarr16rReMuNBdL9qhEkfMZnK55DgzmHAUx5zlwD3VqzZPQ3zU/gTl3gVvESEfDVujye66UewquiHK3G5brhf/7SvXXYW0u/qF+G1EYe6hQa56BI1FDgUbNTaDI+QlCQ5IaVaQ27VoVTj8y50Jo2V6iDbo35jZDQ6u6+hBEzXMQc7vGNkPseQ7aNqloZ/QwsalI+toAAABIA4KD3mDACr1445VSB3MdnPXizlXgNO7jzztwWg1frcrJWV2e40AEBwAA4DQjrag3aF+mV+olz5h/1KMd9D04q/mHKlNS7R6zE7CdGtQr3KO1k/Ok+v/T5cBAkg61Bc1FAAAA3YbgoJco3fm4drZ7NOnG1VpgFsISoy+BZKUQ3epXjOFMT7dpevTGWfK3v6N/7mI6keO1tiZpwJW6bbhZAgAAkH6kFfUq92jtjFnSjula+IlZBile7r9UuzE3ckbknjB8tSonSxtfvFelZllXDF+tyslWX5MA1wYAAOhGBAcAAAAAJNKKAAAAADgIDgAAAABIBAeW3NxcnX/++eZiAAAA4KxCcAAAAABAIjgAAAAA4CA4AAAAACARHACSdLH+5Sdz9eJPrtH3zKK+JOty/X8/masX77lc15llAAAABAdA73XdtOK+H7AAAIBeheAAUKs+bZPU9qk+MIv6kqY2NUnSp2160ywDAAAgOAAAAADgOCc7O/src6EjNzdXDQ0NOnnypFmUsnSuS5JmzJihrVu3qrm52SxKWXr3bb6mb14i//4SvTVkiW71Sy3bS/RE/e1aOtsvqU27Vo1XRaVTf5XurJqjnNDfB/RyYZF2h95bfI/s1fwp3vCCwHqtXLDYXSXGusxt2RZW2vviiLVN63NMzIhYKMn+PA+X2e/MenG2mYLrl72gn01u1ObiH+q3ZmFvlXW5/r95OXp/Xbk+vmauvpNtL2/7k/71yfeMO/UX619+co0uCb1vU/W6cj3SFKvM9JFe+uVb+p25OI3u+sUmfTv3hP746+/q0S1mKQAA6Mt4ctBdxt6ra46WqGx7mzLH3qv7ZksvF65XrbzyT51v1Slap/uq5ihze4lWFuZqZWGuXg74dWtVpSa4VmUFBtKuVVadlYW5Kjs6XXcudFVyAoPA+lCdlYUVGrxwnXzuakXrdF9+tatOiXa1mtu0G/zapjJne9vbJEm1G3NdgcEq3Vm1RBOPhrdZtl2auHivpheFVnYW8apg3lzdeLxcM375vGb88i194P2m/mnWxeEqV1yjF39yjbJ2O3We17/ulgrmzdW/XCFJH+n/Di1vs4MB672zzu4MDKS7dEWuJPXXqKuuNQsBAEAfR3DQTTIzjugtpxGd4VXLxvCd+cwheZKkCbOvUmbrNm0INbal3QvWq1Z+XfOIHUBIGjbEK7Xu027X3fjGh8fr2bXh9yq6WJmSave4nyYs1rMz56nRtUSV8/RExBOHMlVUBiT5Nc4JNoqulz9Dqq0M/23jwxWqlZSTvyr0l75HpitHAb3sWl/jw6u1q9WribPD9dLnbv26vFzl8V5P3G3+welX95b+r9etQEr6SO/WSbrIa48O5NXDky826khvvr5V1W3SJZN7wyhCT+vdGkk6oYPbtpqFAACgjyM46C6BaleaTpuaAxGlklZpnF9q2f9GZONdh9XcGg4gJKnhaJuUcZXmbzaeArhVfqQWSTmza4wnCkkIHFGL+71/qDLd711ajh62/zVfE8Z6jc8pSWVqPCppyMXx97XTfqsfFherON7rvp5PQvrgzx+Zi8KyLtZor3TieKtR0KY3D7dJ3osSpBOdPk//dJZmzSKlCACAsxHBQU+x7/RnTlmipVU1rld0nn/jw+O1cmPAChCceqXmnfnFerawRLtarQDBWlfs9J4Jpe7t1Wjp4qsig4G1L1jrKQoHI9ZTgjYFtjhPOfI0OEOSf46x/zW61d2dISmRTwR+Nrm/pDzNdC17Ydn15h+dsZqaw08NImVoZJa5DAAA4PQhOOgp9p3+Fld/g4iX2dl4bZGrX4LdKI8KEMpUMdP++1Xb1CJvVP7/hNIa3epvi+i/YNV1sxv+rmDE6vPg7mhsPeFQRB8H18tMZ0oo8onAz3eckHRYm13Lbl/xRlQQEfXqDWlFXdKqj5vMZQAAAKcPwUGPiU4fStbuBXaAkCh1p3KenrADhMGhO/lWKpMCFQlHEwr1JYho8JsjEHVn+lA8vT+tKKGmj/R+m3TJZa4OypIkr67L80p1dRGdjd9sbu2RpwnXPviMNm3apGcepEMyAABnG4KDHmN3BPbP0X2uzsfR5mv65sjRi0KN/KMfhe/OL6yMWo9v6jhlRvR3sO/2+wvC61tYGZVW1Fh/RNJQ+WKkJLnt3rhNLRlXaX7UEwzE1qZHdnwkZV9jj0xkuW7atSrwtqn6LaO/wpFPdUJeFVxjBhPd6Vpdd1l/SVL/id/RXWYxAADo0wgOetLaIq1ctU2K6nfgTgUqU8XMao2LKLeHP3WnHq0t0gbdG7Ge+VOO6OWIO/5lqphpjYZ0q1Ov6IjKzLSitUV6OeDVxMVG34Qqo69D5Tw9UbhetTH6HaTcKfps8e5bmlH5kS4pmqsXf2K9/mlCq176pTPPgUvTe/q/Kq1gwqn74k+u0feMaum1VY9uqbH/PVQjpxrFAACgT2MStG7YtzNduF+CkUpkT54WOQka+p679ItN31Zu2x/1b99/VAxoCgDA2YMnBzDMl2+IouZVkGIMeYo+6doHC5UrqWYLgQEAAGcbggMY7I7GGeM0IaLPwXxNX3iVMiOGM0Wf8r1faNOmTfrxxCP6z1mz9NPunYoZAAD0QqQVdcO+9QVWapGxsHWbylIaohQAAABnEoKDbtg3AAAA4ExEWhEAAAAAieDAUlNTw1MDAAAAnPUIDgAAAABIBAcAAAAAHAQHAAAAACSCA7d7tHZGhSpnVKhy0j1mIQAAANDnERyEPKmFL05X0YubFBgxiwABAAAAZx2CgyhPasOBoOT9hm4wiwAAAIA+jOAgngEDdam5DAAAAOjDCA4AAAAASAQHAAAAABwEBzG81tZkLgIAAAD6PIKDWNqPK6g83Tx6mlkCAAAA9FkEB7G0L9OMF6frFe/9qpxRoRcJEgAAAHAWIDiIZcAKvTijQvkfT1fRi9M14/3XzRoAAABAn0NwEMMNI8bIo8Pa84lZAgAAAPRdBAcAAAAAJIIDAAAAAA6CAwAAAAASwQEAAAAAB8FBlHt02xiPVL9HpWYRAAAA0IcRHITco7UzKlQ5Y5b87e/on3c+aVYAAAAA+jSCg5AntfBFa16DoleX6TWzGAAAAOjjCA4AAAAASAQHAAAAABwEBwAAAAAkggMAAAAADoIDAAAAABLBAQAAAAAHwQEAAAAAieAAAAAAgIPgAAAAAIBEcAAAAADAQXAAAAAAQCI4AAAAAOAgOAAAAAAgERwAAAAAcBAcAAAAAJAIDgAAAAA4CA4AAAAASAQHAAAAABwEBwAAAAAkggMAAAAADoIDAAAAABLBAQAAAAAHwQEAAAAAieAAAAAAgIPgAAAAAIBEcAAAAADAQXAAAAAAQCI4AAAAAOAgOAAAAAAgERwAAAAAcHw9MzNzubnQcdFFFykYDOqLL74wi1KWznVJ0pgxY/Thhx/qs88+M4vSZ1iWpv7wcg1ur1dDo1kY5ps7SVOnfqGGd07oc7MwGfnZKv7fo3TZNzteh2/uJE399ghddq39GtmuQ/tOmdVS4FXBkvEa3sFnjMVz01gVzblQ7VtbFTQLY3D2ffgFzao7/KVZDBfzPHs7cX56Upe/E32Mb+4kTb2iq9/VaNZ3MFeXXZuhrwJHdTyZLyIAAAnw5CABzxWD5Gmt08E9ZombVyNypca3m5JqIHeFb+4kFeQGdfCpnSovsV/Pt5nVUtBP/kWj5YvzGX1zJ6l4UZY8ZgG6XePz9vl9qq7br6vUeVWwZJKm3tTPLEAcjW/UKZg7Or3HLD9bUyfK/j3Yr0CDWQEAgNQRHMTl1aiJHgUPtSRsnHluGimfmlQfo3GdtD11VkNwTaIAwwpCVPNx2hoBvrnjNSqjSdUJt5s+ToN3yx/Se/cU6DlWoFTsehXkm3UkNTRpy++b5Jk4PnZ5J/jGZKX19wAAABEcJJB/kXwKqv7dRA3ZfvJd6pFqPtXpyvgIHku0PykYlqVRuVLj7+tO274DfYtXBUtGS78PP8nbsiso3y1xAoQ9daqukXy3ZMtnlqWsnzwDzWUAAHTdOdnZ2V+ZCx25ublqaGjQyZMnzaKUpXNdkjRjxgxt3bpVzc3NZlEa9JN/0XiNOv5+4rSd/GwV39JfB5/q5CP9/GwV35IVfl+TaHtWQ8Sza29a7rz75k5SwcA6bTGfGgzL0tTvZ8dPJWoN/43nprGaOvGEqks+1Yglo0MNnqCxj1Y6VOitGn+/U9VxnrSYdc11pcJcV9TxdZ2/4PXuuk2qLjGCJvNchUTWNbfZlf2XwucjmOCYWechfMbMbfrmTlKB3lf5GxdEnNtY58Hc/5Ca97Xl2MiI7Zjc2w1dX5ulgg622bdY31Ofea057POprl4Xyf5GAQCQIjokxzJssK74VqaOb/8gYSdQ37RRGv61Br33Wic7XTa26tDWeh3a2qyvvunT4L80Gx0W+8m/qEBTikbosmsHyyPpvOG+cGfkTndC9GrUtwdL++p0yOwYHDyhuq31OrS1Xu0jR2j41+q05Zd/1nv2skOuDqbn5Q1RzvCBGn7tYAV/v1NbNtTrUPu5Gjc1K2K/gvvsvw18oeETMvX5odida62GaZOqS/Zrt729U5NGyXcs9c/ouWmscuv2WPvkbHuaX+PcHbh9mbrs0oEaPGGEhre8r/K1H9jnIk9XTHJ1prUDg0bnM25tl/fawfK01mnLL+t13N5mOvc/ZIBHOR0csymXfxreZuAL5RSPUo6r07fnihEanjtYl004pXfteg0XZGjc1CER5ylq/9vP1WWXehTctVeVL32mzw8fta9X6/Nr115V/u5De1l9RCdzzxUjNNyXqZwJ56rmqT3aUeFsM/kO7Gemfhp+7WB5Wszvsi34hf7mmz4NH3Sqi521z9XASbF+MwAA6BrSimLoPR2RTymwxklZeF+N9t3ZUGfkznZCTCplKnkRd4P3fKpGeTTiilQ7XtppEkaKVuPznfuMwT/sj7xD3dCkgzWSci+KSukI7trruvt6So2HglLG+aG73b4xWVLE9dCmg7uCUsYg+YY5y9K7/0mJlRrW0KTqXUF5JvqMzxnUwafC9YLvHlNQHmWEHoZY13NwV2N4XXsadbBV8lyaGf9JUkLBiKdq1jazNCJWyk1c/eRfFJnTH/FyOsznZ0eXxegH4LlpbFRZ+DVW/tD57KRhF8iTMP0v+voCAKA3ITiIcho7IvcQz9D+kk4omJZGa7qOwSkFj0vKHa3iuV6zMC2Cx2Kf0eCRyIZc8A/7VR5KFUqU2+0+ht2//ybPFYPkiXH8g0dOSOovj7uh23pMjYnOt92ojen4XxJ+F+LqaJtJcQfIMV5OWpzTqT/OywkUrXMbXW69uhrI9ZN/ZrY8HQTeMc9PqoZlakSG1HiAlCIAQHoRHJjyL5JPTTqYMB/Y6ogccZcVXdb4vNWhU7mjQ3dzOz/0Y/QoMony5eM7pcDbTVJGtkaF7nhbAWT0U4J07n/HPIM8krKiPmfsvhEdsJ+sRDxxyPdpFA3QJNl9ADKkxt93NchIYFiWpi6ZpOKZUrUr6AEAIF0IDiL0k//qrKhGX5R8n0ZlJL47iM4J39nda6W0TBzfiQa23Sm0tU5bXHeGt+zq1P1v+0mL5LvFaYDH73Canv1PjvUkpEnVUXfAO3MX3HlC4go27H4WPdsAPTPSiqxhga0UtW49Xg1N1jW9WSqIN2wqAABdQHDgluSjeisHPR0pEz0j2bSG4LGezI0+pcAau4E9KEbj2mkMxpqkLd/qV5Ce/iB2mllEX49kJp/rYP+dO8BLOj+sZbLnMSl2wBsxwV7cO9On1Brvc6Vd708rckZ4MkeJiictaX0NLapvlXxjTk8KGwDg7EFw4OK7PrvjjshOJ9C0NDx7SJKdhq3GZ5ZGddOd70heFZgNfTtYi9W50zfGTp2J6BRsazqpoCIbTr65nU8rSq4hnNr+W/0FJKXcQddlT6MOtno06vudDzBCmk4aHZQTcfpXjOz0nfa+ItXAIDQ3Sqt1jQIA0Nswz0FIcvMIhMf27/rkYXHHlDdHAJKS3r9kxZ3nwGCOoR97ngP3sTD3007xCa/BxZhPIMYcC9HHwebMO+Dan5jltuCuvapWXuT+uoYojbkNR4z9skSOxhOrXtx1h+rGmFMhlWMW7zpypT3FPNcx5k+IOteOmMc4nGPviDnPQQfbPKPFON9uMc992o4B8xwAALoHwYEjP1vFtyiq4RXJ+g95xKH0NNB7VNomY+rjnAZgVB8Dp3Ec3Vg/EzmBQVSDNu7nR2fEDJo6heAAANA9SCuSzs6OyKHRafLO+tSQhLKsPhfR/VDs1Jo+whr5KHpYVDV0chhTRMvPVkHaUhL71vUHAOg9CA6kcKfHju7A7anrdKfF3qjx+b3py1nvq2L0X5DCDb0OA8ozhDXyUXT/B99cK70pOjhCSoZlaeotWWkdzSh4LEi/DwBA2pFWdNaz8ttlppMgLE5ueVQKzhkudp+DvpE21dN8cyepQOlPAQqfM6P/CwAAnURwAAAAAEAirQgAAACAg+AAAAAAgERwAAAAAMBBcAAAAABAIjgAAAAA4CA4AAAAACARHHRgWJamLpmkAmNiKJNv7iQVL8qKGge/N0ptX/vJv2iSipM4Bkgv31zruDuvxMe/J8+Tte2pN/UzC4DY8rNVvISJFwGgtyI4SMBzxSB5Wut0MOFEV16NyJUa325S0Cw67bwqWEJDrS9ofH6nykt2qvypul5wXcXnmzteozKadPAPp8winCE8N409vY31PY062JqlgqRvUgAATieCg7i8GjXRo+ChloSNM89NI+VTk+oTBhBnqlMKrLEaqX1pJuC+p2fOk+emsSrIDergUwlmUM7Ptp9+nJ7Gp9XQdT11mes1q6DHnVJgzftqzMjWVM4PAPQ6BAfx5F8kn4KqfzfRHdF+8l3qkWo+jd84AvokO3jedViBBrNMoadYxWM+VXWNWdY9fHMnaepE6eBTrqcuuaMJEHqlNlX/vknKHd0DqXAAgETOyc7O/spc6MjNzVVDQ4NOnjxpFqUsneuSpBkzZmjr1q1qbm42i9Kgn/yLxmvU8fdV/nybWRiWn63iW/rr4FP74zSQTg/PTWM1dWL8B/TBXXu1xU778M2dpIKBddqyWSr4fnbosX7j7913ne3PnxFaQ4LP6FXBktGuu8KJ6nbE3G7kviv0WU+ouqRRHnfd1jptWROZ2uWbO0kFua4Fjhr3eU3n/kdvM+b+X3pMW9b8RaNc2zXrhQzL0tTvZysYcX4c5vFKvO/mdRJzm/nZKr4lK/w+4liFhc9DrKcG1n5lvG3ts3VMmuLUTZN4x+k0fEfN42oes9TOuXk9msfNKvfs2qstR3wR5yryOxw+Jq4z7joO5nZMsbeb6HuSynfTYl+/ilfu+gxxrkMAQPp9PTMzc7m50HHRRRcpGAzqiy++MItSls51SdKYMWP04Ycf6rPPPjOLum7YYF3xrUwd3/6BGhK0ZnzTRmn41xr03msn9LlZeBp9fvioDm2t16Gt7fJeO1jatVeVv/vQXlavusNfhup6rhih4b5M5Uw4VzVP7dGOino1XJChcVMvVPvWVvs/6C91/B3rbw+1n6vLLj1Px/Yc1fGo/73tBkPN+ypf+4G9vVPKvStT7e+kfkx8c0fpvAprn5xtj5uap+EXNIc+w3l5Q5QzfKCGX+vT+fucz9kub5Ff40a269A+VxCU26Tqkv3aHfocHgV37VXlS841k+79N7a5tV6nJo2S71j42J2XN0Q5lwxVzrWDFfz9Tm3ZEP6c3vb66OttgEc5EzL1+aEYZUmfp37yLypQwSWf66B9zg9trdexvJH6xmetofqem8aqaOp5rjrt8n57tP7WdVyd9X3j5m9ocMPH2h2x3GHtl7O/nitGaPhFJ9QQur7Sz3NVti4b/qkObnBvo5/8s/I0+PzzdP6X4WsofZzj+qnrnNvH7JtfqMG+hpI+58OyNPWHfp3n+v62jxylgm+f6/pu9tPwawdr4HCfLrv0RGi71nd4iL4KOOffq4K7/kbv/vLPes++FttH5uqKaRl2nVNqsJc3XJChnOHuz1CvQ+5zlZ+t4v+dE/G70nDBEBUU50bsf7LfzbAv9flFGcq55EKdCu13JOu8nidd9KXrGAAAuhNpRTGceR2RUxV51y/47jEFlaURqT7eH3aBPJIaD7jv6LWpOt5dwA40Pm/c3d3TqIOtkufSzKiOi42/3+m669qm+hpJA639cc5NcFdj+M5nrHWldf/7yTNQUSlmUZ/JWe6+y2vvm29MN6W/5Ps0KiP6Tm/wD3Wu97HShJzUj5HyDwv9mTQsUyMyzOPWszyDPFLrSdd586pgyXiNOPS+dd4HdUMn/dBxdd9ht49ZRrZGGd+njs657/pseVrrVO16mtD4/PtqVJZGmYMMtNZpi+vOvvUd9igj9CAh+jpufKNOQXk04opUjkU/+a/Okmrej3jKEfzDYWv/r47uVJz4uxkper8jWeXR3ysAQPchOIhyFnREbj2mxhgN1pQ1/EVBSb5bumsIzVMKHjeXSVJQrU2RSxqf36lypzFkN/pjOm7ts5Tu/bf3Nakcd/O6sf82TgOqq3xjsjo+5/H62DSdjG68ZZ0vT4xz0GvkZ6t4yUi1PuVupKafb0yWpBMKmsd1j9WQ9Qx1N8I7Oud2QBv1u3NKrbGCG/d1LEkNTdrSUYd0+3pPiR0IBo+Zx/GUGg8FpYzzjWs2+rqI+G6a7H2KPFYu9ucipQgATh+CA1P+RfKpo6EZrY7IEXemz0ptqi7Za91BvMUZIWZs5F3mVNjzSkSM7x+rz0BHGpp0sEbyTPSFc6TzfRoVdbc7vfvf+PxObdkVtAIEe/97flhZ+4mG2Zg0eIb2l+TRqO9HHv/iiJz13s9z01gV3yJVl8R+YpN2EU8rIkU16BOxA1rPxPGRx39JZB+cVESN3JSwj0FiwSPxfg/7y9PJ7wsAoHciOIjgPELv4BG2nU4QdZf1rBQeRtMak9+jUd/vRAPb3fGwxF5fyc5OjnRjN4iVZY2Ys2SSim/Jiu6wKaVv/23BP+y3990KOjwTx/dwgGDeoY4teOSEnW4WPvYR5yHquPUuwWNBKSNbBZcei0i3kfopI+ad7+6X0jbtO+jBXXujjn15J+6cO52kG3/vXs/7iX/XOiXGkxMAwBmN4MAtyVzqpNI0ekScFITTpaFJW+wGdqwcYmfW31iNZc8Vg+RRUAffSHzskxLKBU+xgdvB/ofG7E9q8qZTCqyxA4QOz0e8lJL0sBrOg+RLFPDESh+KJ5W6Sen6DM9ObnpUH6B46VJp2GbjgabYxzXuNt3Mc57O7649xHKH/aYsVmAY5wlAQ4vqY/aHSdMwzvYTk/hPJuwhcU/TPBkAAIKDCE6HwIT/oQ7L0qhe2xHZyXs3OpB2l/zsqIa+08g3846dxpAUu4Ox1UBxd5a0Gm+dSitKtvGa0v47OeaK3SCUN3rG17j52pF8c0cnkcrWecE/fKxGeTTq+5ENLM9N2eHrxE7F8t2SxFOTuA3GzrLu7kuxO7gmJbT/rs84LEtTb8mKMxdDGra5p1EHWz0aNdP9914V3JIl1XwcY5th0ef8lAJvW+P+m9dk6uzfAfd1OixLU+OlFdnfl1HXxzqf4f1yB1Gem/KsALyLwXyi75vkBFqSYnXKBgB0C+Y5CHGNH56gkZZ4fPfewBz7Ps48B+4OguYY8VHjo7sYY5ZHjfEeNT56mDMHQOzx3aPX1fj7naofE7m/Vh1FjbxjMtcV0oX9D80BEG/c9hjHzUxlit5e9D6FhliNqORw7V+M7YVErTPxdeFIbv86/h6Y8z1EiDFmfWi7MbaVCnO7sT6jIz3b7Pi4JntMpXjnNMb8BDGOYSRzv5pUXfKpRsT7jTPntzC/Bx2Vp/DdDEtmPhnX5+jwMwMA0oHgwJGfbXdkjN3YsVj/UY04FOM/V/Qa7nzrmJNC9WAjo6NG9Zkj2UZqknri3Jymbfadc55mSU5QF/f7DADoFqQVSVajn47IfYZnkCfG0JGdHMoRcbTpoD0yU2dz9sP6yT8zWx41qbobG+mRemKbCEsu/coZWjrZ/hMAgK4jOJDCI9Z01EjYU6fy0zVEIjoteCwoxZjUzcrz7rjDOZIT/MN+VSfbTyEOz01jreE6FTmpV3fqiW3CrZ/8i0bL11qnLXF/c50O41YaVNx5EgAAaUdaEfqkmHneMfKkT7e+l2JCql1H+t4576KkUjgBAD2F4AAAAACARFoRAAAAAAfBAQAAAACJ4AAAAACAg+AAAAAAgERwAAAAAMBBcJDIsCxNXTKpw0mefHMnqXhRlsyBMztkr794ySRNvamfWQoAAACcVgQHCXiuGCRPhzNzejUiV2p8uxOT9DQ0aUvJTpU/VSdNHE+AAAAAgB5FcBCXV6MmehQ81JKw0e+5aaR8alJ9wgCiAw1NOlgjeQYRHAAAAKDnEBzEk3+RfAqq/t1Es772k+9Sj1TzaXpm+hx4QeqpSQAAAECaEBzE1E/+q7Okmo8VaDDLXPJ9GpUR1ME32swSAAAA4IxDcBDLsEyNyJAaDyRu9PvGZEmtx9SYKIAAAAAAzhAEBzF0e0fkGILH0rEWAAAAoPMIDqKcxo7ILsEjJ6SMbI3qYNhUAAAAoLsQHJjyL5JPTTr4h447Igd3NaanI7Ik7alTecletV5tzXvQ0dwKAAAAQLoRHERwOiJ3MPqQ3RE58UhGKcrPVvGSPGnzTpWX7FR1mp5IAAAAAMkiOHDrwY7I3bFOAAAAIBUEBy6+67M77og8LEuj0tgRGQAAAOgtCA5CrNGHOuyIfMUgedLYERkAAADoLQgOHD3VERkAAADoJQgOpJ7tiAwAAAD0EgQHkqRTCqzZqfLnE3dEtoYb3a9AujsN2/0YOkppAgAAALoTwUFPGpalqUsmqfj72fLUvK8tCVOaAAAAgO5FcNCTGpq0pcSa16DDpxYAAABANyM4AAAAACARHAAAAABwEBwAAAAAkAgOAAAAADgIDgAAAABIBAcAAAAAHAQHidjzEBTkmwWRfHMnqXhRljxmQZr45k5S8ZLwq6P96Rn95F9k72M3HgsAAAB0H4KDBDxXDJKntU4H95glbl6NyJUa327qttmNG5+350J4qq7bttFVvrnjNUp11rwNa7rvWAAAAKD7EBzE5dWoiR4FD7UkbOh6bhopn5pUnzCA6Ou6P0ACAABA9yM4iCf/IvkUVP27p8wSl37yXeqRaj5Vo1l0Nhl2AWlEAAAAfQDBQUz95L86S6r5WIEGs8wl36dRGUEdfKPNLEmBVwWu/gTFS7LlM6skzVzXWPmHmXUUo15XtgkAAIC+guAglmGZGpEhNR5I3Oj3jcmSWo+pMVEAkciwLE1dMlqeXXutPgUlO1Vdk6WCTjXWvSpYMlq+mvdD6yov+VgZM43OwWndJgAAAPoSgoMYTldHZN/12fK01qn6D+HUpcbn31ejsjTqpn4RdTtkp/ZEBjRtqjY6B6d1mwAAAOhTCA6inK6OyFZwEb2dU2ptlTyDUmyoN/xFQUm+WxINdZrmbdo8VwySp0vHAgAAAL3BOdnZ2V+ZCx25ublqaGjQyZMnzaKUpXNdkjRjxgxt3bpVzc3NZlHX5Ger+BapuqQuQSfjfvIvGq8Rh/Zqi+sOfEqGZWnq97Pjd+SteV/lzxtpTfbfBH+/U9UxG+LWfo3KcN4HdfCp/eF+E53ZZgKem8Zq6kSPgru6cBwAAADQaxAcRLAb18c7aCTnZ6v4lv6RDe+UWX0EPKk0rDsMDlxCgYA7QOjENpNgBQknOgioAAAA0NuRVuR2ujoiS11O5elQQ5O2PFWnoDzKyHIWds82g+8eU1BZGhE3nQkAAABnAoIDF6ezbsKOyMOyNKqLHZEtpxR4u0nKHa2p6egInJ8dtR6rL0BQrU3OkjRvEwAAAH0KaUUhyaXcpD2FJmY/gOhUoNjDjDZF7IfTByBeeUiH20xRKulOAAAA6LUIDhynqyNyX0RwAAAA0CeQViS5ZkT+NEFgEJ4Ruf5dAoMI9jCqAAAAOLMRHEhWLv6anYlHKJKkPXUqL+lk6k2fZnV09l1tzMYMAACAMwrBAdLglAJr9uqgsjV1ySQVLyJIAAAAOBMRHCBN7KcvJTtVvqarIzkBAACgJxAcAAAAAJAIDgAAAAA4CA4AAAAASAQHAAAAABwEBwAAAAAkggMAAAAADoKDRIZlaeqSSSrINwsi+eaeOWP7p7av/eRfNEnFSRwD9IAkr89oXhV06u8QZViWpi4ZK/8wswAAgDMTwUECnisGydNap4N7zBI3r0bkSo1v94ax/a1G39Sb+pkFgK2f/ItGy9fhdX1m8tw0VsVLsuUzC7pLQ5MO1ng06vuncZsAAHQjgoO4vBo10aPgoZaEjX7PTSPlU5Pq+2BDyz2xWXWf/HxnH9/c8RqV0aRqJqpLm8bn9+pga5YKkn4iBwBA70VwEE/+RfIpqPp3T5klLv3ku9Qj1XyqRrMI6G2GZWlUrtT4+zqu17Q6pcDmOgUzslXAUzsAwBnunOzs7K/MhY7c3Fw1NDTo5MmTZlHK0rkuSZoxY4a2bt2q5uZmsygN+sm/aLxGHX9f5c+3mYVh+dkqvqW/Dj61X4EGs/D08dw0VlMnxr9nGdy1V1v+YAU5vrmTVDCwTls2SwXfzw7d6Wz8vfvpgP35M0JrSPAZvSpYMtqVUpGobkfM7Ubuu0Kf9YSqSxrlcddtrdMW4264b+4kFeS6Fjhq3Oc1Tfs/LEtTvz9I9U/tV/B613aN/Qrvv7uBbu2DJ+ZndZ3XiP12tpmt4O93qn5M/G06Quc+Rpmjo216bhqrqZce05Y1f9Eo13Ezz5PFPLZN8T/3EZ+Kb8kKlURej+HPGt4z93kyt2Mytxt9bZj7n8p15rDWGb2tEOczmOcRAIBe5OuZmZnLzYWOiy66SMFgUF988YVZlLJ0rkuSxowZow8//FCfffaZWdR1wwbrim9l6vj2D9QQ8395i2/aKA3/WoPee+2EPjcLT6PPDx/Voa31OrS1Xd5rB0u79qrydx/ay+pVd/jLUF3PFSM03JepnAnnquapPdpRUa+GCzI0buqFat/aajd6vtTxd6y/PdR+ri679Dwd23NUx6NaRHajrOZ9la/9wN7eKeXelan2d1I/Jr65o3RehbVPzrbHTc3T8AuaQ5/hvLwhyhk+UMOv9en8fc7nbJe3yK9xI9t1aJ8rCMptUnXJfu0OfQ6Pgrv2qvIl55pJ4/4P8ChnwlANnzBCw1uc9UXvl7X/f1VD6FhLUj8Nv3awzvukKfQ5rcapdNA+R4e21qtheJ6uGHA0fE0O8ChnQqYGXhq9zRzXMbN4Nerbg6V9dToUsdzRT/5FBSq45NPwMdvaLu+3R+tvv/mFGuzjcV7eEOVcMlQ51w5W8Pc7tWVD+Dx52+vD+zYsS1N/6Nd5rmuxfeQoFXz7XNd1Zn3ugcN9uuzSE6HtWtfjEH0VcK45rwru+hu9+8s/6z37mm4fmasrpmXYdU6pwV7ecEGGcoa7P0O9DkUca68KlozXZV+r0xZnfYEvlFM8KsZ56vg6cwuee64uuzRLX3MfBxfPVdm6bPh50kVfuo4BAAC9C2lFMZx5HZFTFXl3PPjuMQWVpRGpjl4z7AJ5JDUecN8Fbet0Pnvj88Yd+z2NOtgqeS7NjMrlbvz9Tted3jbV10gaaO2Pc26CuxrDd3BjrSvN+y+Zd9rbdHBXUMq9KMFd7dg8gzxS6zE1uo5H8A/7Y/f9MLZZXxPjmHWUJpfv06iMoA4+5b7r3abq3zdJGdkaZVwbEXf27WPrG+MNlfuuz5antU7Vrrvxjc+/r0ZlaZSZetNapy2uu+3W9ehRRuhBQvQ5aXyjTkF5NOKK1NJ4nD5CEetraFL1rqCUOzJq1KHE15lhj5Ve6Bkae5+szyXSEAEAvRrBQZSzoCOy0ejstIa/KCjJd0t3DYt5SsHj5jJJCqq1KXJJ4/M7Ve40+OxGf0zHrX2Wumf/IwMNKXjkhKT+8qQ41GXwWFDKyNbUJDq5mtuMxTO0v6QTCsY5774xWbHLYzZ4zevePk9mcBb1HTql1lbJM8hoPLvPiazG+paOOsHb5y41dh+h1pNRfxsdkKjj6yxKnM/nsD8XKUUAgN6M4MCUf5F8atLBqPxpN6uREXFn+qzUpuqSvdZd41us+RCKuzLmuz1uv7Uee36FWH0GOtLQpIM1kmeiL3zHPt+nURlmQzrN+59GwT/sV7l91z50TOaG78x3ixiNZkfcBm8sdnDmmTg+4lwWL4nsT5IKa4hS97oS9THogBmMuMS76w8AwNmC4CBCP/mvzur4sb+dghE3ReOsEh7utPwpK9Vj1Pc70cB2d9YssddXslPVNWbFZPSTZ6AkZanAaUzekhXdyVVK3/53hz11kcchd3T3BwhxBI+lcK3bd/WDu/ZGnMvQK8U7504n6cbfu9fzfuLvaCcFj6TwOQEA6IMIDtyGZWpE1N3laL4xWelLzUmrDtIaultDk7bYDezI9AyLb67VUI81SZvnikHyKKiDbyQ+9kkJ5c9HNkqjAwNDB/uv/Gwr0Egi1ceR1LWS33GfhMbn7QAhXr57BzpKb2o80CRlDJLPLO+or4IUI40ondehkwrUUR8gS+LPeUqNh2L3AbGuPzNdKlX9lJGRKJCyJik8rZO0AQCQIoIDF6cTZcJGiDNWfK/siGznfsfoWNkt8rOjGvpOI9/M1XYakFKMzrKhRp27g2k/+Rd1Mq2o6WT8Br5bSvvv5OUrdiM6lvxsFRjXivU5XZ2/87MjhvC09JN/kdmAtI9fgpSYhPZ8qsZEHXj3NOpgq0ejZroDH68KbsmSaj5OOLSrb+5oIxXvlAJvN0m5o6OOb+rsa9p9zIdlaWq8tCL73I+6PvYTluAfPlajslTgfgIzLEsFE9OQJmgHeXGfPoSCwBidsgEA6CWY5yAk9ljzptjj1PcmiecKiDnWvWu8/Oo9scaUd4k5br+7Zvxx3p2x5c0x5R3muhqd8ftd+xse4jPxXATmukK6sP+hhnysse5jHrPYcyZEbrMpNJb+iEPu4xI9dn/UcTPPmy3mOU6wPCzxtaOofbfFOh5K5pi4hpJNmGpk7leTqks+1Yh439eogMs8p9HH1kw5S/Y6c0vp+Hb4mQEA6BkEB478bBXfovgNQyn0n3tkIw69jTtHPeZEWt3RMIvTUO9V7H1UrAZ1knp/cNxDkjz/ca9NAAB6CdKKJDoi9zGeQZ4Yw212dvjLPiQ0ilPe6Uk7O2v0k39mEimJ9jDJyfafAACgJxAcSOERazq6m7ynTuUlyacZoGcEjwUj8/ptVm58xx3O+7LG5/dafQu+b/ZpQGf55o7XqAxjYrUIVv+ZYjsNKv48CQAA9DyCA/Q5wT/s15ZdQdfcBc6cCU2qTmbUoj7tlAJrrJmKzeAJnTAsS6NyzZmlTeHhcjubzgUAwOlCnwMAAAAAEk8OAAAAADgIDgAAAABIBAcAAAAAHAQHAAAAACSCAwAAAAAOggMAAAAAEsFBB4ZlaeqSSSroYDx439xJKl6UJY9Z0BF7/cVLJmnqTf3MUgAAAOC0IjhIwHPFIHla63Qw4aRZXo3IlRrf7sSspw1N2lKyU+VP1UkTxxMgAAAAoEcRHMTl1aiJHgUPtSRs9HtuGimfmlSfMIDoQEOTDtZInkEEBwAAAOg5BAfx5F8kn4Kqf/eUWeLST75LPVLNp2o0izpj4AWppyYBAAAAaUJwEFM/+a/Okmo+VqDBLHPJ92lURlAH32gzSwAAAIAzDsFBLMMyNSJDajyQuNHvG5MltR5TY6IAAgAAADhDEBzE0O0dkWMIHkvHWgAAAIDOIziIcho7IrsEj5yQMrI1qoNhUwEAAIDuQnBgyr9IPjXp4B867ogc3NWYno7IkrSnTuUle9V6tTXvQUdzKwAAAADpRnAQwemI3MHoQ3ZH5MQjGaUoP1vFS/KkzTtVXrJT1Wl6IgEAAAAki+DArQc7InfHOgEAAIBUEBy4+K7P7rgj8rAsjUpjR2QAAACgtyA4CLFGH+qwI/IVg+RJY0dkAAAAoLcgOHD0VEdkAAAAoJcgOJB6tiMyAAAA0EsQHEiSTimwZqfKn0/cEdkabnS/AunuNGz3Y+gopQkAAADoTgQHPWlYlqYumaTi72fLU/O+tiRMaQIAAAC6F8FBT2po0pYSa16DDp9aAAAAAN2M4AAAAACAJOmc0aNHf2UudPh8Ph0/flyff/65WZSydK5Lkm6++Wbt3LlTx48fN4sAAAAAdAJPDgAAAABIks7Jzs6O++QgNzdXDQ0NOnnypFmUsnSuS5JmzJihrVu3qrm52SwCAAAA0Ak8OQAAAAAgERwAAAAAcBAcAAAAAJAIDgAAAAA4CA4AAAAASAQHAAAAABwEBwAAAAAkggMAAAAADoIDAAAAABLBAQAAAAAHwQEAAAAAieAAAAAAgIPgAAAAAIBEcAAAAADAQXAAAAAAQCI4AAAAAOAgOAAAAAAgERwAAAAAcBAcAAAAAJAknTN69OivzIUOn8+n48eP6/PPPzeLUpbOdUnSzTffrJ07d+r48eNmEQAAAIBO4MkBAAAAAEnSOdnZ2XGfHOTm5qqhoUEnT540i1KWznVJ0owZM7R161Y1NzebRQAAAAA6gScHAAAAACSCAwAAAAAOggMAAAAAEsFBqu5RztIKXX7zNLMgjmnKuq9Ck5dWKGeCWYae1u/mDZq8dLW8ZkE8E1Zr8tIKTb5vhfqZZeh9hq9W5YzVWmAuDwl/P51X8t/tntazvy1fTf+TTv74OcXtsIYkzdeXP67VX6fPNwu6yFrvyeW1nCcAKSM4iJBq4x+9WcqNf/QdA1boxcl5Ch7YpFKzTLIb1/crJ/OwDqycrh32671XXjcrnl7DVujyHmrwJ63gVZ2a7NW5W+/QOWYZIkwordHSzevkMwtCyvT1rQF9OfkhfVFglnXe/9z5kP6qbeq3PEfn/xvnCUBqCA661etqesJqdNTuNstwxtl9r9WIfGKZTpll6EXu0dobr5SnfpNmvB+nsT9smgZnSsF3NqnNLDsj9NBvy/Dn9Ne/8+vrOx7VudVmITql+kb129GmL/7uT/pyuFnYGY/pf/JE8Aag0wgOAPQpN4z+X/LrsDbufNIsinKiKU7wgJj+p/AqfdmyTedWlJlF6IJzKp7Q37R49dfb05ACNPzirq8DwFmNeQ7s9JP8Kz3m4pDgO4/b6Qb3KGfpLPV/53EF9I+uvzmsAyvvdd2BdFIWQmtQ7ZO3qakhVCFs2Apdfs+VCm/dXFcKitbpvsVXKbRZtWnXqvGqqAxX8T2yV/OnHNHLhS/It3mJJmbYBa3bVDZznhpDNedrurvcpWV7iZ542GkcrNKdVXOUEyqN3ubpZZ2jLHNxSPj4Wue9SQdW7tFA19+Ez7dtwmpNvjUv/P6DTdqxLnbD0zuvQmMuCb+PWlcKJpTW6Fa/a0FgvVYuWOxaYB37zO0leqL+di2dHa5cuzFXz651VV1YGVEeFtDLhUVybj5b14crEStqm0lYeK+qZksbVh3X9MUT5FGdNhS+om9sXqDJGZICr6hwQZVd2a8SZ7ktuL1U33k4EHpf+MgyLRkbUMnMJt1edbOcT2HWs9yjtTNmyXfg8fhPDRT+3p14Ofadd++8Co0Z+I72uJ8SRf2Nda3p5elqyHL/hsT5Die4jszrxtQU2mYKvy1R3wWzbor7P/w5/fUfrtI5/5UT/6lB1HUWeX2FfleOrtfKjRdH/F5F/q7E+j1zhH9jJpTW6NYhxm+X/XctG3P17Fpre/79JXpryBLd6re3E/q+mL9X5u+eWW5957QxV5Uj3N8V1+eMu9+2qN9aW8GrOvl3fp2b6PgmI5nzBAAJ8ORA0qlXbrNzjjepyW7QOTnIsfKQPVfer/xLD2jPyunasfJx1bbkacy8e1w1wo/8d7x82LXcYDc25N7ek8d1ccS6krVKdy6UNhTmaqX9ejng1cTFezW9yKzr161V1n+YVt31qs24SvNLV9nl9n+Q2qYye11l262mQu3G3OjAILA+tM2VhRUavDBRjm13e1K19rHc807QbuiEz+WOqEZPnsbYDSTnfHmu/EdlDXNVcdKJVj6u2hbXcoPVwIvc3keDjHUlyffIXo3bEz6XK1dtU4t/jpaGzlFY5pQlWjpbetl1rnJmu8673WCr3eisb71qZTdSogIDadeq8HbLjk7XnQvD20reQE1fOFAVha8ooGxN33yHLt9fqpLt7ZJ/jH5g1/pB6R3S2p+psNB+bayTZ8oCvfSIEchkTNCSqpuljZH1Ss19G54vv4LaXx8rMLD6FE1eWqHJdkCedau7Q3Ln+qdk3Vqh/EH/x3WN5GmM0WndO69Ck2/NU5Nzna2crh3780N9C9rWOd//dxS0g4HwNesOYJL8bZmwWpPtGxnOOva8I+XcE92fIZn9l6Svxo/Tlwroa/EanEXrdF9+teu3oES7Wv26tapSUV0o/HO0dPE4BZxrbWNAmVOWhK81u4Gt7c5vVIl2tcpuhHfi5sPYe3XN0RKVbW9T5th7dd9s6eXC9aqVV/6pTmfgVbqzyg5cQt8lxfwNzZldo/lDKiI/p9O3oHKengj9BjvfM9d3OVZgIEnV1TpX0hdjHzNLAOC0IjjojBb3HcXX1XIoKF2Sn3rDwjdQHgXVvNfVkGlYpvfi3JVObLGeNf7T2b1xm1oi/vMLi2zkL9a+gKQhF1v/uRVdL3+GVFsZXl/jwxWqlZST72qcFl2sTEm1e9x3lqP3IxnXL3tB5eXlcV4vaPkN5l+kT/iurKTde9QkjwaPT7VT+jRdMFDSB3sigo+2dfHu6ibW+PD4yDv/lfP0VkCSvyC6oWU08hu37FOLvBpst68n5Pul1m2qDK1vsSq3t0kZ4zTB1egZNsQrte7TblfDK2o/kjZA2v+KfmO/8yigX4fu8g/UN+zt/mbBCi1xN/TWvqIdrZJn7CQVuhZLUmDjz7TA2Re7nj8/staCkXlS+wFVtUcstoUDx9iNcDNwTFLLO9oT+s7avweZA8ON62ErdPElxnUmK+iM9dSi66Yp65o86YNNETc2Tr3y/6i2Rcq6xmj4d7T/kqT5+p9RXulwdfz/NCrn6YmIp0xlqqgMSPJrnBnEmY38tdWqlZQ5wvqt8k0dp0wF9FboNyrRujqWmXEkvK4Mr1o2hr8vmUOspzm+R6YrRwG97PoMjQ+v1q5WrybONoLy1m0qC9Ur0+79bVLGUHXiPoDLA/raYUmDSAsC0LPi/s4jvuCh19PTIbXxuILyKOeeDZ26u9yhyo8U+0Z3m5qNbIzdC1x3tPxD4z4Sbznqultprz9ndk0n7y6HvbHidhUXF8d53a7lr5l/kS6HdTwtDbTX9Zfjki6ZpcmdevLTsYajcZquRz+KDMbsO5dWo36+fEPchW5H1OhqmDccbZMyrtL8hKOrJKtd721xXWRHm+QkEiUW0IdHzWWSVKfdEUGKXW9IliuImKZveCW1fahuu1xi6Oj3oN/4MfKk7TpLgtPZ+pj5ZCF2w7+j/bf49VWm9HXzh6MjgSOxf4NajygyZl6sZwvDNyyGDYl3qyX6tyspgWpXalOsdczXhLFeo54klanxqOvGia1l/xsp3wBJxjnNbVLm0C4FBx0+4QGADhAc9KSGZXpv5SY1yaOce7qW2iA7LWRpVY3r5e4LkIK1L2hXq5RTFG4kWnfV2hTY4u6IuFjP2o/7c2Y724x+BH+2aFtnpzJdMisN4+av0p0R57Imsi9A0uw7rhlXqSgUwK1S0ZTohlDjw+O1cqNVd76z3RhpTGlVdIdeqvq5qlyv22J1jTiD9RvkkVqOJ9EAT6/4na2zdEF33Ixwhu50X7eJcu8TsJ56+nXNI85Tz/maXuSPerKVPnkanGGnOxnfu4h+P73YV9P/pJPLa/WFntD5y2/kP3cAncbvR49zpTq8fNjOgU89QHA6kobzyl255Smz/6N0NRKtXPRYub5lqphpb2+VlcYUK0e3Iz2ZVpRO4f4rVv8Ez5X3dyJAsPtyGLnKTr+PVPlGDJXsJzyhoDFeR+O1RaHtvRywG0vdFSAU3aGXFk+QJ/BKuM9B4c+0Iequ7pnt1LHou/U9q0l/6USqW0esDvRtEX1WrN+ETrCfXmZOWWJfs3YfqE6kLCbnsJpb7Q747v4BHfUT6EXOqfimzl+eo3N1n04uf1X/Y1YAgCQRHEQ4rL+0SJ5BrhFFTqfd99oBQuw7e3c/YTWWX1h2vVFiPxKPyCvvvFDubcR/kLECA0PlPD1hBwhOvnuyuiOt6FRTU9xj2f1eV9MTdoAQ63q6YbleKC9XefmvdbdZtrBAOYrs89F51lOCllDHTvsVKzAw7F5gBwhGSoXUwf4nqXCqXx61a8fG5BKOIhVqgl8K7t/pSld6XR+2SfJ+Q90RS1rpQamzrsM8DYzqLBJDw4c6Ial/VqoBpUvD62pukbLGmult05R5qSeqX0xyAjqnRfoy7hd7lcb5JQUqOv6d6JD9lMBsqCfZQLf6K6QqdvpQV1mpesn3RfhqsFdqOdKl+QnO2btPX5df/5PGSdUAnF0IDiI4eeP/q3v6ABj63bwhauQQ79i8OHf27tZ4e6jD/mOuV2R4YP/H5u5gWrRO93Uyraix/oikofJ1dPd/YaXuCz32t1j/McfK6e0BTp+OG8xGUne4RznmCC9xc7+l668Zq/6SpDyNN/uL23na7s7fE0o7m1Zk3RF1Ol3GN1/TN5ujytgNPrNPQ0f7n6Sq+uOSBujyqU6D06+SzcmlFf2g9Gb5VacKYyjT0o8PSwPGqHBAxOKUWXf7xyjT/h3oaLjjhHZvsjoC32r0LZqwOur7H7pBceWslJ8ehr2uprcOS5fMilh/v5v/UTmZQdW+1pkBD8r0tYNtUl5BnDvS9p13d4f5hZWdTCtKvqFuNb7Dv3tRQ/GmYPfGbWqJGLWt66zfUnd6VCLW5GU69lGXggMA6CqCA0PbusdV2+LuA9CJvPFhK3S5MzzirXmSu0+BqwF56pXbdHyseyhFe2z1mKOm/FZ7P7D+deLAG3rDKN29oMQaVWOxk+s7VG91Nq1obZE9DKqRP2zmoK8t0gbdG1FuzaGQxFOG06Fhmd572WokdWW4Su8852/t8eVd6ws3vp5U7UbJ7zqXk+0x8c2hcCXpjbf264Qk6bD2mvNJVc7TExsDEfnPzjCMqStTxVp7GFTzXEb0DylTxcxqjYsot+ZQiPWUIeH+J2vtapVsb5dnygK7v8ECDaqMl1aUrdvc/RKG7FZJ4erQaEghn+xRQB6NHZHid9Zw6pXbdOCD8PfWGrrYGuo4ddbwo+71TV5aoclj98QYreh1NT2xSU3K0xjXtRS6zpL8bXGeQrqHarXm9Ojc6Fnq8I50mSpmrlet/LrVuX6Kjqisk2lFuxfYwytHXbORgx80Pjw+4rdq/th9Kuvs717lPD1RuF61Mb4rnR5wYW2RNXxqKD2qRkvjdfgvKNAXatPfVD1glgDAacUkaIgSzh02Gvn2ePlRkxWh93ImZIrqY+BM9mROUtX7FD6yTEumHNeGWMFADDeM3qAHx0g7X71ND8Uc0hSd9T931urzvIDO69YOr64+N0YqUdzfpjPefH3544f012Prdf6zXQwOmAQNQBd13+87zlD20JexRgWJNywhei+7Y2fkXBQKp270Qa+9/38UkEeTJq/olr4HZ7OvVW3T1+XX53d240Rd9vwpsYYLjTuc7xnuq+n36a+ZaXpq8AlpSQC6huAAhhj9FyTrTvPCq5QZNZwperUY/Rck6ynQrX5z/Pe+4kktfPUdBQdcqQcnnY7+JmeRT+7Q3/xXQMqbo79OTyaPvhPs+VMyx14fmX5TtE63TYmeqO+MV/CqTk326tz/+qa+/olZ2BlW5/Evrn2uS/MlADh7kVaEmKzH98bCGI/5cQZwUouMxbUbnYnSerdU04pChq9W5WRp44v3qtQsQ5d8Nf1POjVqn/r92x3ddJfaTi0ylva9lEYrneh/Dj6qv6lI5+ey05QyJbVs68bzBKAvIjgAAAAAIJFWBAAAAMBBcAAAAABAIjiw5Obm6vzzzzcXAwAAAGcVggMAAAAAEsEBAAAAAAfBAQAAAACJ4KC7TdH9dzyt5xY8rZIxZplhzAo9t8Cqa71WaJ5ZJyVf6rkX6vSn5V+aBel33Xflf+FXGv/CP8ljlknyPP4rjX8h/Bpxl1mj+/yg9Oeqqvq5XnrEnLQhzYru0EtVP1fpQrMgsdO2f50xfLUqZ6zWAnM5UrZgUoUqO5yQrbu+s9Z6a1+pU+0LJ9RNU5cBAPoIgoPeYMwKPXddtk7s+43uKL3Lfi3TOrNeCh5b87Gu8maqYvnXzaKkeR7/lcb/9rs6zyxIUfD+H2nv7T/S3tXVOmEW4vRINXgZsEIvTs5T8MAmJhDrgO+RvVpaVakJZoFL6YF3FBwxSy+OnmYWuXxdd7yaKe+3Ptar/2CWdd5jaz7WVRqsR2/OVs7t/ZXOqbYAAH0PwUG32q7Hn7Ma+0sOmGVh8y7JllSnN97ebhZ1yvzlRzUn70Jt+3mGHnAX2Hf4o+/cX6bBv/2Vxj9+k1mQnDefUeD2H2nv7f+qoFnWw36z4GcqLPyZvvNwwCxKjd24rgq97tUPzDqdkLb9S6t7tPbGK+Wp36QZ779uFqIz2pdpxo7D8oy5X2uHm4Uu/56hR//7QvlnHtVzhWZhZ5xSQZ4UeJWgAACQHIKD3qK9RbXmsk45pTnf+kxt/z1Qd1SZZeiMwkeWqWrxBDVutBryhYU/04ZAtm6rWqaSIrP2me+G0f9Lfh3Wxp1PmkXoik/u1cZ6yT85capW2fKB2tb2ma5akIYUoMIvNNRcBgBAAudkZ2d/ZS505ObmqqGhQSdPnjSLUpbOdUnSjBkztHXrVjU3N5tFKUv3vll9DX6g/AHO+8+0Z/NCPX40spZjXvHTKs7YqzXP/VJvm4Upmr/8qB761nlaf7Px1ED2k4N7C/SX8h+p/ml3wWUa/NtFGnGsXHtf9sl/b4H6u4vd2qt14O5n9LnC6wvVdZfFEnf7YZ7Hf6W8nPD7E9VrFHjsz+4qSflB6c91myuNP7DxZ1qw1l3DUajSqpsVrtquHatWaEllZLlve6lxd9+vks0LNFm7VTLzOVUV3aGX7ABid75r2612ubO2R5ZpyZTQhRESc/8W3quq2dnh94FXVLggVsRnfoY6bShcrd/EOA6m6O3eo7UzZsl34PH4Tw2K1um+xVcpM7SgTbtWjVdF6JhZqTbzpxzRy4UvyLd5iSZm2AWt21Q2c54aQzXna7q73KVle4meeLjMta4i7Q6VrtKdVXOUadeZUFqjW7VeZUena/4UrxRYr5UbLw7tZ+3GXD3r+pzWOr2h9862HM763OtQxHqs7bsuVUPA2F/bgBV68cYrpUTHV5L+oVW1M1sU2JytG//dLExB4Qn96WfNOtLV9QAAzho8OegW4XSiO96sMwslSVdfvTbU+bh4pKQB47XI1SG57Oop5p8k4UtNG/uZdPj86MAgWaEUoR/pcK3d4Lff7739R9rrbvybdbvICgxqddi1vcZBd2rwdWbNjjnpOoWrdidIdbIb1YFXQk8ECgvf1qCFd8jJ6Ch85Gr51a73tphpPwFV7W+XMvwqDD09aJev6Oe6Tc76XlEgY4KWlIbzQ6oeXuHaVvz9K3xkmapmD9SOVU7dVxTw36wq17okO4CI+gwHNMGuZx6HgOvpR2GhGRhIGp4vv4LaXx+v4bpKdy6UNhTmaqX9ejng1cTFezU96imKX7dWLZF/f4ldd71qM67S/NJVdrkdGGibyux1lW1vk+xGuLuxnpQh03XbkAqt3BiQ/NN138JxCqwq0a5WKSff2abV8LeCDfszrNomTVmi+x4x7tP752jp4qF6y7VvObOdz7lYz0bscyC8vsJcrYwVGEhS++va3y55Rk7TDWaZ27+fr4Ak//hTZgkAAN2K4KCHvP32wlDn4/KPJbXv1ZpQZ+S7NL8z/Q8KT2qcVwrs7WeWnAEu0/mDJNW+F9FYDt6/VM1vuhakU1GWfJICe9x346u0wHWn/9IhA6TWgKpcd8UdVfXHjSUD5DnqvrtfpRe2t0v+q1NMPyrU7VMGKLj9OdcTjCot2FhnrMuvkqLsGE8UqrQg5hOGji0YmSe1H1BVu1niWKxnI+78S7s3blOLvPJPjU6CiWzkL9a+gKQhF8snSUXXy58h1VaG19f4cIVqFdmYT1qGFNi42H7jlfavDj/NCG1zna7xS7UbXY33ynnasL1NmVNuNzoVt2nXqnC9xi371CKvBid4EtOx11X1cVAaMFCXmkUR+qn6sKQhX3Q9tQgAgBQQHPQleV/Iqwt15LBZcCb4s04ek5RT3PmO0amqbFKjJP/sFEbxiTJAg9zpSxGBhhNARNbp0MIxsZ9WBI4r6F5X0SRdnhG9zc6bpm94JbV9qNfMokQqP1KLuUyS1KZm4yPsXpCrlU5w4R/qSk2K1HK0Exdx6z7tdgVxLfXRTx58U8cpUwHtM56YNNYfkTRUPncQZ6wvXV5ra5KUpW9EZ5dFCBy9UPJ+4UoXS938az+TV5mqJqUIAJAkggP0GsH7f6QD1W1WgGDPieB/4DKzWhpVaUFhqXa0WgGCNQpRqp2M23XMzDhyCxyPmTaUSOGIgZIGaPJi9+hIP1fV4gmR80j4B8rT0fa7gTV0Z43rlSj3PoG1L1gpP0XrrLv6knyPTFeO2hTYEt2wT4dhQ7x2upN7/2u0dHZXmuC9z/zlR1X7Sp3u00DlxOp/BABAHAQH6FU+f2yp3d9gjerbpf4Fi7o5QAhoyUx3Xv4ATV4cDhAOHW2XMmKngFiN+OP6MNHd5U404K2nDe2u/gZx+gmYTxJOA6cjb+1Gd379+k6OtJWnwRmSMq7SfLuRPn+Kojo3p1PD0Vj9A5xX9233dCtbPkQ5N2frCR1X7SutesysAABAHAQHfcnhc9WmzzQ0zyyIdIHPbGznqN8A6cSxyCbe58fapAGDujwJWuf8Wc132wHCoBj3pef/WuXl5Sp/frmuN8s6q/I5fccOEJwGd9WWgILK1vSoGYz9Khw7QAoc0G+MErcf5Gd3HECYkm30O2lR+UkMiG/X9Y1ItNLX9WGbJO834nSWna8JY71S6zZVmh2ZO8F6SmA21JNsoC8s6NTTipjpQ12U6jpv8GZJatKHcft1WPxDPpPazlUKcWWUsq0Xqk0tKkjjpGoAgL6N4KAvqTpf+9oSjHDy5jNqrJX6FxRHpKd4Hi/WYNWq0Rgy9PPG45Jy5OvWO/eOmzTCnI35um8pM0bQIkl3f9OOgLxjdX3slmzHFt6rl4xGf+FUf+Sd/srnVBGQPFPuiEg3+kHpAk3OqNOGRB1/F96r2/xSYKM1rGjS7G36Z3eU4uR0eL7Z+ByFKjVHNVKdjrVKnik3J5y8rfTjw9KAMSqMmQ9fpsajkjLGaYKzX0XrdF8n04qSbVRb9fwa5/QLWVjZ+TSgtS9oV6tXExcnntE4JYEjapFXE2cn04l6mgpHeqT24zpkFkWwJi/T0XOZvAwAcFoxz0E37JuG/ERlM8fHniugPXo+g9M2z4HNnEsg0fwE5z2wUmMKwuPBu+tGlbmE5ye4SSNeKNZgs4IkqVaH3bMqm/MmSGqONyfC/F+r/P+XJ7W9o5/PXa43IgrNcf/dwnMAKOa8A5Hljqh6xvwFoXkPIsbrN+dMiME1P4I5rGjUNhVruzHmQ4jzGWIdl9TnOTDnJQjo5cJqjXPNOaBQ+lHHKUITSmt0a6wTFVivlQuckYfMeQkCofkT/Ptd8xwMsedQsIMHa04C13CprlGWYm7Xtc2I9Tnl9vwOLcacCVKsgCXxPAeNO6Zr4Sdmocs/tKp25ufa9vMhXZvMkHkOAAApIjjohn3rWaf06iuN8h/2KWfRmTik6VkmQXDQU24YvUEPjpF2vnqbHuog9aUrrAZ69ARqTkPbnJisL1gwqUKzve/on19dlmBEqC/13Asf66qjafgOExwAAFJEWlGf00/r//tCKa9Rr5Jn3OtFpTH1Aq+9/38UkEeTJq+I0/cgHebLNyTOcKGBI3GGRj3DDV+t2SOkwP5EgYE0f/lxXeW9UNs2dzEwkKSqc3XEXAYAQAIEB31Q2fIhWn9Y8s88qufM1HP0IL9KSsOzLzuTnSnwduLUo9PuSS189R0FB1ypByfdYxamSYz+C5KVtrTwKmV243CmPWLACr04OU/BA493mE700Lc+U2BzF9OJQs7VkTbJf+MJJlMDACSFtKJu2LfewUpNGLd/pL65/OtmIXqKnUYU6hAeNbtxLzJ8tSonSxtfvFelZlmaxMz9bzVy/fuABZMqNFubVLTzSbPIpbu+s3aakldS22A9ent/OjkDAOIiOOiGfQMAAADORKQVAQAAAJAIDgAAAAA4SCtK876lc13A6VI4+DNz0VmtqvlCcxEAAGcFnhwAAAAAkAgOAAAAADgIDgAAAABIBAdA7+Z5/Fca/8Kv5H/gMrNI0mUa/Fur3Hqt1ODrzDqpK3xsjZasX6Of3D/KLDqL3aO1Myq0dri5HCkbsEIvztigRweYBQCA3oDgAGeeonW6r6pGdy40C84UN2lE3AZ/Kv6s5rt/pL23/0h7y2vNQiRQ+NgaLXnye7rcLIhpmh69cZb87e9oQ6LZjZHcd7N9mV6p92jSjau1wCwDAPQ4ggOgFwvebzX+A4/92SzqNlUPLFLJnEX65eMHzaKz0oJJ92vSgMPa+OoyvWYWolNKdz6une15mn3jCt1gFgIAehTBAQDEM2CFbh4hBXbcq1KzDF3wuh7a8Y6CA67UfaOnmYUAgB7EPAdp3rd0rsttQmmNbvW7FgTWa+WCxeH3Cyu1dPZQ7Vo1Xo2z3XUDermwSLvDNe267pU57LpF63Tf4qvUsjFXz64Nl04ordGtQ7apbOY8NRat032LxymwqkKDF89Rjtoit91q13P+2Nymuf+h9Rn771pP1DEw1Br7e1pd91357y3QX8p/pPqnw4s9j/9KeYOqdeDuZ6QHVmpMgdf9VxFOVK8JPSHwPP4r5eWEy5qN9Ua56580vnig6lcvVfObZmHHCgd/psLH1miya5tN5Yv022fctaTL7/9nfeeyg3rpnkZ9a/3fKctefrL619FPGq77nn6y6EqdH1pQox1zfqGqiPJRql/zoJqLXdtuf0cv3fM7vRf6O0kapTlP/lB5oTz1Nh1e86DWR33WBPWi9sfg2q4zz8GCSRWa7X1H/5zgqUHUdWle23w34343F0yq0OwRh7XxxTjB19SH9MwP/1b9a/5Ts36a6AsAAEgXnhycAXyP7NW4PblaWWi/Vm1Ti3+OlpauMmp6NXFxjW7VertuiXa1+nXr5nXyOVXshkDtRmd961Ur+z96s6GSBP/C6WpeVaJdrV75F+61tr0xIGWM04Qiq47vkb1248i1zQT7f83RknC9jKs03663e4Hr89sNjtAxKYzd+OhNPn9sqdU/4PZyNdvBgPU+OnXISSfau7paJyLW0n2cdKKSNe8oYWg74Ep9Z/1UBdfY9ctrdH7BD3X3d1117Ia4qn9t1ZmzSCVrmjX+sZtdlSTJq7xFazRZ/2XX+y81DbhS34mod7PuXv9D5R1z6izSS9VS3qJ/1hx3B+zrvqefrP+h8vSOXnK2Oed3UrHdt+DN3+mX9vIdtXYwEKq3SCVRAck9yh8hBT9+PW5gwHeza9/N0o8PS8pTfpyO3tdeNUr9JSn3Ct1lFgIAugXBwRmg8eHxkf+5Vs7TWwFJ/gJNcC2WpJbtJa67fmXavb9NyhiqYfaSCfl+qXWbKkPrW6zK7W0RDYbkeZV5tEIVlda7zIwjejm0ba8G+yVplYqmeNWyfXWonrRYz24MSP7pmm5uM7BeTzxcFqq3LyBpyMXhBlTaXK/lz5ervDzO6/nlut78E4Q0lbvu2j+zT02SMnyu0Y1yBut8tan+v11PE978nX75wCvh947a/1JJaPkr+u/qNilnnArtJZffP1VZqtEO19++9/jvdLjdq7zicBBRWHylzo966nBQ6x8wG/1JGp4vv4LaX/+6WRLCd7OL381P9iggyeeNnVq0ddtBKziueVc8NwCA04Pg4AzVcLTNXCRJaql3/vO2ND48XitDdx3nyzckotjliBpDDYTk1e5xpR+0HlGDu1CSFhYoR20KbIncLwWOqCXUSAmLWF+3ekPL5xaruDjOa+5yvWH+CWw1qjXSjaLUNuukvNF392Noei8yYHiv8ZikQfawrKM07jKvVLsvnI4kSTqo5mOSBvnsEYduVk6OdPLP2zsXCMRwgzdLUpM+bDdLEuO7mYrDOt4uebx5ZoFly6P67qxZpBQBwGlEcHBGWKU7q2q01PWaPyV+7np8ZaqoDEgZV6koNNSgdfdQgeqU0xaS4RsxNJSS4N7/pYuvUqZZGX3Hm7/TL+f8l5rstKEl69doyfqfhp4GJC9XngGScv7OXkf45e4foet8ypDU2ni6R1jiuwkA6FsIDnq9Vbqzao5yWrepzJXDW7Y99t3JjlgNAilnttMYmKMcswNiGjXWH5HU5sppTi4XufuRVtT9XtFvnXz+8hpJuZqccoBQo2C7nXrk7h9g9hN4s1GtZmpTt+O7CQDoewgOeruFBcqRVFvpGl2k05wcY6dTof1KqvGxSuMSjEYSV5wUhS6p/EgtkjJHzDdLUnA60opuUob77nZIrU61S/0HxSzsPvN/3XOBzzO/sAMEJ10ovsLLc6X2g9r3pmKkD8VjBRHnXzalg3qWxmNt0oDBCfPlX2trkpSlb8SbyZfvZrSUv5t5GjhACrYdNgtsd+kXmzZp06Zf0CEZAE4TgoPeLnBELZJy8sOjh0wo7WzqwmE1t0qZQ+Lk9zrs/+DD27TvkBrVkmJ30MyZvTe6g2On2Z9jyu1RnT57zJuN+oukwZffZC+4SSNeKNZgo5rlzzp5TFLOtR02lNPp7m/a5907Vtd388xTl9//z5GjFzmNfh1LPNTqd3+qyTlS05vhTsRV5e/oZNQIRqaDWv9mjTWSUkS9UZrzWPRMyFa/hlyNvz/Bk4ZP9iggj8aOiN1Zlu9mLCl+N4fnyy+psS1Op+/vXaFcSVKuCh+81iwFAHQDgoPernKentgYkPxzQjnB1xwt6WTqQpkq1tpDLRp50kur3A2ExXrWGZLRTm/Qxs6nS+xekKuy7YrObXYP45iSMlXMXK9a+XWra313hnK1e8IfVL+6WidyijX+hV9p/AvFUvmPdKA69jEL3r9G9e1ejbj3V3b9X8n/wGV26U0aYS8bf2+B+ksaXOzU+yd5nJVc9135nXrFOZJc6/vtd3VeeHOSpN/+yb4727Zfb0SNzXmz7nby+e25ALKKO99X4L3HH1Tt5UYfgUHv6CX3PAe28HbWaEnxIB1eY8yv4PRfiNHvICIAeeYX1jCsEfW+J5XHGK3omV/opeo2nV/ww3DdJ80g4kntqZc8I6fFnsWX72YMqX03F4zMk9rf0YZPzBLb717SH+2P1n/QJWYpAKAbMAlamvctnetKO3sCpcyoPOb5mr55iSZmxJiUCWeFwsGfmYu6nz0XQmuMydZ6mjMJmgas0Is3XikdeFwz3o9zdzsdzsbvpn1sG3dM18J4wYGkax98Rj+e2F81/zVLP/2dWQoASDeeHJxN/EOVGXNIwjI1HjUWAZDal+mVeskz5h/1aLy+B+lw1n03p+nRyVfKk+ipgSTpLn1nYn+p7Y96icAAAE4LgoOzSYwcacmamfVWv7ptyETgTFa683HtbPdo0o2rtcAsTJez7Lu5YNL9mjTgsDa+uizO7NPX6qGnNmnTpm9r6K5/06zvP6qtZhUAQLcgrSjN+5bOdXULJ33BWFy7kaELz2akFUUKpRWF3KO1M2ZJHaTAdMnZ8t0csEIv3jhG+1+9TQ+lOMEcAKD7ERyked/SuS7gdOmR4KAXiw4OAAA4O5BWBAAAAEDiyYEl3fsGAAAAnIl4cgAAAABAIjgAAAAA4CA4AAAAACARHHSfx9bUqfaVOtW+0qrHzEIAAACgFyI46CYPLMpWzs3ZWn+4RXMIEAAAAHAGIDjoZg9sHqw2fa6LC80SAAAAoHchODgtPtPQPHMZAAAA0LsQHAAAAACQCA4AAAAAOAgOulvVuTpiLgMAAAB6IYKDbneujrRJ/htPaL5ZBAAAAPQiBAfd7uu64/Zs5bz6hR56pU61LxAkAAAAoHciOOh2X+q5F+pUO/585dycrZzb+6vMrAIAAAD0AgQH3a3wpMZ5pcDefmYJAAAA0KsQHAAAAACQCA4AAAAAOAgOAAAAAEgEBwAAAAAcBAfd7LGZzfIqU9X/bpYAAAAAvQvBQTd5bE2dal+p05y8C7Xt5xl6wKwAAAAA9DIEB93kgUXZ1rwGNw/RHVVmKQAAAND7EBwAAAAAkAgOAAAAADgIDgAAAABIBAcAAAAAHAQHAAAAACSCAwAAAAAOggMAAAAAEsEBAAAAAAfBAQAAAACJ4AAAAACAg+AAAAAAgERwAAAAAMBBcAAAAABAIjgAAAAA4CA4AAAAACARHAAAAABwEBwAAAAAkAgOAAAAADgIDgAAAABIBAcAAAAAHAQHAAAAACSCAwAAAAAOggMAAAAAEsEBAAAAAAfBAQAAAACJ4AAAAACAg+AAAAAAgERwAAAAAMBBcAAAAABAIjgAAAAA4CA4QJ/mefxXGv/Cr+R/4DKzqNvNX35UtS+c0HyzACl7bE2datecMhcDAIA0Izg4Q1x99Vo9t2CF5pkFfYzn8V9p/G+/q/PMgjPNP7TqoW99psCr/VVmliHChNIaLd28Tj6zwOWBzYPVlteoPy3/0iwCAABpRHCA08K5gx96PX6TWaVbBO//kfbe/iMFHvuzWdR9Ck/oTzNb1PbfI3Xjv5uF6JSq/vrm5kx5v/WxXv0HsxAAAKQLwQG62WUa/NtfKS+nVodvtxrqe2//kfa+d3mPpPqcDo/NbJa3bbCeWP51swhd8e8ZWn9Y8s9s1WNmGQAASItzsrOzvzIXOnJzc9XQ0KCTJ0+aRSlL57okacaMGdq6dauam5vNopSle9+kv1fJgukasu83mn98up67LjtUUvvmXVpyILpuTuh9ncpLl2ldzDJTuO7VV6/VonFHXX+ryP14e7sUUa9CI+74gfIH2FXb92rNc7/U25I05Ccqm3mpDm1eqPpJT6t4ZIw6ybrrnzS+OEfN5T9S/dNmoe2678p/b4H6m8sd7dU6cPcz+lzSeQ+s1JiC4zp8e7nO/+0ijQjtf7iO7CcVea4DF2v75z2wUmMuO6QDdzdqyAvFGmwvP1G9JvpJg/05otXq8O3/qqDztvCE/vSzZh3ZnB3/qUHROt23+Cplhha0adeq8aqodN7P1/TNSzTx6Hqt3HhxRN2W7SV64mF3opJdN8O1yObUnVBao1uHbFPZzHlqdArtfWjZmKtn11qpPbdqvcqOTtf8KV4pELntWruexdymuf/h9Zn7H1pP1DEwtBr767CPr/57pL4ZJ/i66xeb9O3cE/rjr7+rR7eYpQAAIBGeHHSj/uN+oOeuk8pL79IdpXdpzb7PlHPdWt0/xK4w5Ccqsxvvd9h1yj/OVnGob8F/aInrb61gwHpvvdyBQCqyVbzgB7q0ztluhWoHjNei4r931blQ+TOf1vUtieok7wJfgqcEbz6jgP1E4XCt3dB3P2VwNfotOcp7YZEy/7zGrlOu5gEFGuNKVXLSifaurtaJiL81DCjQmBeu1anVdv3yWvUvWKQRd7nquAKc0Pbk7KcrMJA0/9rP5FWmquMFBlqlOxdKGwpztdJ+vRzwauLivZpeZFT1z9HSxeMUWGXX3RhQ5pQlunOhU8FupGubyux1lW1vk+xGeGQQkYQh03XbkAqt3BiQ/NN138JxCqwq0a5WKSd/lV1ple6ssgOX0DaVYP+H6i3XvuXMtutVztMToc9vBwOuY7IyVmAgSVXna1+b5B17Mk5H77t0Ra4k9deoq641CwEAQAcIDrpT+16tcTXg3/7zIZ3Qhcq0b1HPmzRe/dv36nf2XX1JWldeoVpl6/qrp4SWdYfaN+8KPU2Q/kPvfSwpY7iudlf6uKLjOh15ulz17VL/gkUa/8JKDb7OrNA5zeXufgR/UGutpEG+TnVkbi5fquY37TdPv6dmI5jxXJ4jtVfraOjJwx90tLpNGnCpvBGf50tNG/uZdPh8PeBeHGGxnjUavrs3blOLvPJPNZu7Ab1c6Lojv7ZatZIyR9j1iq6XP0OqrQyvr/HhCtXK3ZhPQYYU2LjYfuOV9q8Ob3vIxfJJ8j0yXTkK6OUFTj2p8eHV2tXq1cTZ5jbbtGtVkXY79bbsU4u8Guw3qqXk63p9/4WS9wvFXs3TerdGkk7o4LatZiEAAOgAwUF3av0kMgXn6C81v9RJK/p7XT5SOlG33UjTqVNLu9Q/M5yKlH6fqcXIxlpXfpfuMFKGaj/4D9e7zvqzmu+27shLXo24Nx1Di7bpVE3kkuD9sZ4wJKNWrfHSnSRJl+n8QeYyx3GddIIKSdIXGuqV2o6e617YscqP1GIuk6TWI2qIWLBYzxa6ngj4h8ZNy2k5ethc1LHWfdrtSg1qqTefPMzXhLFeKVAdavBbytR4NBxAhBjrS5eyT86T9LkuLjRLLE//dJZmzSKlCACAziA46ClDhmuIk3q04GnXy9UPoC95+l/tlJw14ScJZ8SQpX9W85u10oACDQmlGt2kIQVeqfa9iJSiZPke2aulVTWu15wE/UoSWPuClfJTFB4G1Lqz36bAFrNhnw55GpxhpwtF7H+Nbo19Gx8AAJxhCA56ytFPdFTSCVd/g4hXeTru2vdG1pOEA9VtRoO79zrPN1CSNLjYGYq1WINry7X3/j+YVTvke2Sv5k/xqnajK7++cL1qzYpJsRvrGVdpvt1Inz9FUZ2D0+ewmltldVZ29w/oqJ8AAAA4YxAc9JjU0ofePn5U0hCNcDozJ2PM2M7dke5Bnx9rkwYM6kVPFKynBCeqnc7P9itmYHCujrRJ3iFfmAU2Oy2ndZsqQyP/dF4o/z+ikZ5cYOCbOi5uSlJ8cdKHuqjhaJuUMVTDzII45g//XNJ5+qjKLLFc++Az2rRpk555kA7JAACkiuCgx2zX47vrpJHTVZZM5+PmFp3QhcqfFHu0ICt4yNblY+wFY1ZEDKHaU857YGXkyD9SOC0nopOv5fPG45Jy5OtSn4R0qtWpdqn/oGTCLLuzbN7JOOPw243rjHGa4IzsU7RO93Uyraix/oikofKZowQZrMZ3eJvO04vO2L1xm1oyrtL8UrPzcedZn8Ovax4xO2THYnf6bjtXAbNIknStrrvMGhS3/8TvKOrSAwAACREc9KQDy3TH5r1SVL8D13CnjqO/1Pw3rWAiXM8Z8tRalzVUql12nVRe+hvtaY9czen2+WNL1Xq5MTvyC8W6oHpN7A7ET/+rDlS32aMb2fVT7ptwk0Y4f2vPnxBOCfoneczqCf1ZzU9X60ROsfEZfhVz9KWyrReqTS0qiDOL7+4FJdbIPovtfP3FQ/VWZ9OK1hbZw6BG5v8vrarRUlfjvfHh8RH15o/dp7LObrNynp4oXK/aGP0OwkOspmhtkcq2tylzypLw+jaH+1FEKDypcV4p8Gp/xe5VsVWPbnF6qw/VyKlGMQAASIhJ0Lph39CHOBO0RfUxuEyDf7tIIwYYk6BJemxNnebkZWr9zRkJhjTtugmlNbrVHz0BmRZWaulsf4wJ0858j62p05whg/Xo7fGCA0m6S7/Y9G3ltv1R//b9R8WApgAAJI8nB0AiuYPUX1Lze2Yfgz/r5DFjke2BzYPVphbNWXPKLEqj+fINiTNcaOBI7KFRz3T/0Ko5eYmeGliufbBQuZJqthAYAACQKoIDIJGaYzohafDl4dmXJWvW5LwcxR7OtKq/vrk5U8pr1J+Wf2mWpkmM/guSNWvywquU2W3DmfaQwhP608wWtf33SN0Yb/bp7/1CmzZt0o8nHtF/zpqln/7OrAAAADpCWlE37Bv6GCe1yFjcXP4j1SeYQG3+8qN6aOyFHaTAdI2VWmQsbN2msj42rOhja+o0Rz7lLOpnFgEAgDQiOOiGfQMAAADORKQVAQAAAJAIDgAAAAA4CA4k1dTUkFIEAACAsx7BAQAAAACJ4AAAAACAg+AAAAAAgERw4PaYvlheq5PLa3XyzsfMwrABK/TijA16dIBZAAAAAJzZCA5CHtC5y3N0/vL1OjdvTvwAoX2ZXqn3aNKNq7XALAMAAADOYAQHUR7Q13e0SYMuVrzZ4Up3Pq6d7XmafeMK3WAWAgAAAGcogoN4MofGDQ6k1/XQjncUHHCl7hs9zSwEAAAAzkgEB53Vvkyv1EueMbMSpBddq4ee2qRNm36hu8wiAAAAoJchOOiC0o8PS8pT/nCzxDb1Oo3ySlKurvieWQgAAAD0LgQHMZxz5Ii5KLZP9iggyeeNk1q05U0dbJOkGr37O7MQAAAA6F0IDmJpOKKvy68vp883SwyHdbxd8njzzALbVj36/VmaNeunetosAgAAAHoZgoNYPrlDf7M8R18f/JBOLq/VXzsMEgAAAIAzH8FBLMOf01+X1+p/9ufo/OU5+puKMrMGAAAA0OcQHMTw1fhx+lIBfa3aLDHlaeAAKdh22CwIuesXm7Rp0yb9gg7JAAAA6OUIDrpieL78khrbXjdLbHfpilzrX7lTH9K1ZjEAAADQixAcdMGCkXlS+zva8IlZ4nhaL+06Yf3Te5EuMYsBAACAXoTgoLMGrNDNI6TA/mV6zSxz2brtoE5IUs27jFgEAACAXo3goFOm6dHJV8qT8KmB5a6/+1v11wn98b8IDQAAANC7ERxEeUxfTvZKh6vjHpwFk+7XpAGHtfHV+E8Nrn3wGW3atEnfHvRH/dus7+rRLWYNAAAAoHc5Jzs7+ytzoSM3N1cNDQ06efKkWZSydK5LkmbMmKGtW7equbnZLOqkx/TF8jn6QpJatqnfv92hc8wqstKJXrxxjPa/epseajcLAQAAgDMXwQEAAAAAibQiAAAAAA6CAwAAAAASwQEAAAAAB8EBAAAAAIngAAAAAICD4AAAAACARHAAAAAAwEFwAAAAAEAiOAAAAADgIDgAAAAAIBEcAAAAAHAQHAAAAACQCA4AAAAAOAgOAAAAAEgEBwAAAAAcBAcAAAAAJIIDAAAAAA6CAwAAAAASwQEAAAAAB8EBAAAAAIngAAAAAICD4AAAAACARHAAAAAAwEFwAAAAAEAiOAAAAADgIDgAAAAAIBEcAAAAAHAQHAAAAACQCA4AAAAAOAgOgDPVsBW6fGmFciaYBXFMWK3JSys0+b4V6meWIQG/Sjb/XFVVP1fpQrMsBUV36KWqn6uq6l79wCzrghtGb1DljSt0g1kgSbpY//KTuXrxJ9foe2ZRJ3xv1ly9+JO5+pcrzBJJmqZHb6zQi6OnmQUAgDMIwUE3mlf8tJ674ye62iwAktDv5g2avHS1vGYB4Bi+Wg+O8Siwf5leM8tOu9f10P7D8oy5X2uHm2UAgDMFwQFwtth9r3asnK4dTyzTKbMMCQS0ZObPVFj4My1Ya5aloPI5fafwZyosXK3fmGWdMWCFXpycp+CBx7XwE7PQ0apP2yS1faoPzKJO+OB4m6Q2fXrELLF9cq/++UBQ/skb9OgAsxAAcCYgOACAM9CCMVfK0/6Onnj/dbOoR732/v+jne0eTZocL9UJANCbnZOdnf2VudCRm5urhoYGnTx50ixKWTrXJUkzZszQ1q1b1dzcbBZ1zpgVeu66IdqzeaHqJz2t4pFOQZ3KS5dpXVTd7PD7jyt0R/l/WP8e8hOVzRyv/uHSSO17tea5X+ptO+2oOCP8Xgr//dE379KSA5I0Rfff8QPlt1bojp3DI9Z9Yt9vNP/t7ZKkq69eq0XZh7TmuU9UvGC6cmLUSc58Td+8RP79JXpryBLd6pdatpfoifrbtXS2X1Kbdq0ar4rKyPoTM5z3ZrnF98hezZ/iSpAJrNfKBYvdVSRJE0prdKs//L5le4meeLjMXUVaWGnviyOglwuLtNu1RDHWFRKx7eT2PxXXL3tBP5vcqM3FP9RvzcIO3aOcpbOUZS4OOawDK+9Vm+w+B/dcqRMvT9fxsRUac4ldpeUd7XE/HZiwWpNvzQutQR9s0o51T4bfu/S7eYPyr/SEFySo26EOz9Mq3Vk1R5kR15eldmOunnXfpS9ap/sWX6VM1yJL5PlK9jrryA9Kf67boq6ddu1YtUJLjGuj8JFlWjLFdZs88IoKF1SF3xfdoZcWT1DoqLbuVsnM5+SqITnb1Csq3JgVUT+wMcYTiwEr9OKNV6pxx/QETw160PDVqpycp0CC/bvrF5v07dwT+uOvv6tHt5ilAICewpODCBcqf+bTKlaF7ii9S3eU/kZ72rNV7Oo3cPXVa+0g4i67ToVqR07Xc8V/b1U4+kvNL7XKyj+2gwH7/R2ld+kOdyCQipHT9dzMS3XI2e6bdeo/7gcqGeOqM2C8Fi2YqpZEdZI19l5dc7REZdvblDn2Xt03W3q5cL1q5ZV/6ny70irdWbVEE4+u18rCXK0szFXZdmni4r2aXhReldVgk3atsuqsLMxV2dHputPo3Gk15gN62a6zsjBXbw25N2JdKlqn+/KrQ+UrC0u0q9WvW6sq5e6XG7WujQHJDjbCjcXk9v/0elK1K6drx8rp2vNO0A4GrPfWyw4MXLJurdAYbbLLN6kp80r5b3Z1CnXSiVY+rtoW919GsgIDqfbJ8Pb2HPtfyXd4dkvyPElS5pQlWjpboXNVtr1NObNd58AODLS9xLUu2cGGGRh0fJ0l4zcLrDSi0GtjnVkl1FF5yZTj2hCq+4oC/ptVtfkOFTrVQulEP9MG6zKMz3+zqhYPVIVdv2R7u/yzl6nEuB5vGDFGHh3WnjgN7x73yR4FJPlH3mOW2O7SFbmS1F+jrrrWLAQA9CCCA8OJfb8JPwXQdr1d95k0INO+E//3Kh53oU7se0aPH3X+4j+05M06aeRU3T/EWdYd6lReujC83QP7VStpyMApEbVq3+y4TjIyM47oLeeOfYZXLRvDd3wzh1h3oX2PTFeOAnrZdWe28eHV2tXq1cTZq0LLhg3xSq37tNt1x7Xx4fGRd4Y1X74hkgLVEU8Adi8w7uJXztMTEXeCy1RRGZDk17hQI3CVxvmllu0vhNe19gXtapUyx14vn70o2f3v9SLu7j+p4x9InkunpTwiUb9BHqnlgFoawstOvXKbas1HMslI6jzZWrepzPVEoXHLPrXIq8H2nXvf1HHKVCB8PcZZV3LXWRotvFmTM9q1Y5W7D0GVFmyskzIm6HbzcyYlcn1VWwIKaoAGRTzFmKbCkR6pfo9K3Yt7lSe1p16S9xtxUoue1rs1knRCB7dtNQsBAD2I4MBw9HhkCs7bby/UHU5a0ZixytFnOvRnI02nuUUndKEyB0cuTqv2FtVGLPgPLSm9y0gZqtN7B1xvuyKikd6m5qg7nvM1Yaw3qjEvlanxqKQhF4ca4Q1H26SMqzR/87rQsmj23/nnaGlpig3zwBFF3BAvujhG+ont6EdqlFLa/96uaX8n034Mp44Fpcwrld9dQ52a58kROie2ynl6ojCcVjRsSLzxmiKvy+Sus/T5QX62pOP60ExBW3tAAUm+EVF5SR1rDajKXF+UPA0cIAXbDpsFvcqhtqA0YKAuNQtsT/90lmbNIqUIAHobgoMUXD1wSCj16LkFrleiPgZ9Vp4GZ9iN+aqaiJeZ59/48HgrrSfjKs136sUIAHYvsFJK3Ou87xEnhSlsQmnk9paaueiV8/RWQMqccns4hWXh7ZqYIdXuce5mJ7//Hbtbvy4vV7n9+tnk/pLyNNO17IVl15t/1OuceuU27Xj5sBUgLK2w5kSYFy8tpGMdnqck7d64TS3y65rQtTBf04v8MZ8SJHOdpVXrcR0yl9k8Q1z9kgAAOEMQHKTg7eNHJX3m6m8Q+bI6EJ8tDqu51e7w6eojEHrNnBd5N3htUajs5UD8JwSND4+PyCvPnLIkIkCw+hK0ReSVr1y1zbgjbacoya9bnUbibL/RyTXF/U/ot/phcbGK7dfPd5yQdFibXctuX/GG+Ue9U6h/wnQd+EDSJbM6FSAkd56S5B+qTKdvQlWNllYt0URtU1msc5TkdXY6BI/G6qcAAEDvRnCQihTTh2pb3P0VknP1ZZeeIU8hOp9+s3uB3XBL+LdlqphpBwh2HwenL4ECFYlHE1p4uyZmGA1TV5qKpfP7f7qcamqSlKULhpklp0fbOjtAGPiN6DSjG5brhfJylZf/WnebZcmep6TYTwnMIC5WYGBIfJ1dr+XPW091fh39cCopv9lTJ2X4VWh2Xl84Rn61670tUbl4aXJYx9slj9c1AlUvdKnXI7XHf7Jy7YPPaNOmTXrmQTokA0BvQnCQiqO/1BsfSznXrU2q87H1pCFb118du0OwFTxcqqvtdV199VotGnehWa3X2r1xm1oyrtL8hHdm52v6ZnOEGrvxGJFrvkp3mrniRdfLnyG1HHVyq+27/f4CV7pQZXS6SuBIRIfWeJLb/x7UeFxBeZRzQ+p37lM3TVn3mbMx36OBl0g6/mHUpGnXXzPWDmLzND6qcZ3keUpKskFcsteZ7YbrNdb+sHnfjA5vkrL2Fe1oHaDJC10jE6lQpbOzpcDbUUOeps/rqvo4KI3I1wKzqNe4R/kjJLV9GGfm5mt13WXWFdR/4nd0l1kMAOgxBAcpWld+l9bsU3S/A9dwpyEHlmnNvs/Uf9wPYtZ7++2FKv843IdhUfYhrSmtMDoe92KV8/RE4XrVxsjbDw8fWaaKmdUaF1FujW0fOf78Yj27VrrNyFFv2ZjrmuegTBUz16vWnS5UdERlZrpK5Txt2N6mnNlGzntVjZa6A5Ck9r8HNSzTey8ftlJ7nD4AS80GfMe885y/vV85mXaqkL2+8DClr6vpiT0aGNpOhSYvnaX+7zwec56DN97arxOSpMPaa0xDkfR5StLuBetV6+5HEPM8JXud2V57Q/vtMWEP/yn12SgsAS2ZWaodmqAlVT9XVdXPVVV1s3zbSyPmOSh8ZJldZs+dkBGu/9IjHUSwcbxWf0BB5Sl/uFnSSwzPl19B7TwQfe1YturRLTX2v4dq5FSjGADQY5gEDX2OMxFW3Im0OjkxFnqCNVFaTmt0H4Nwv4auTVqXlIX3qmr2wJiToPWUBZMqNHvEYW188d5eNqTpND164/2a1LZJRTvjBQeSdJd+senbym37o/7t+4+KAU0BoHfgyQH6HGvoy4D2mePbV37UqTvX6EH2sLQt+9+ISg1qOGpOB9d94g5b2oNKD7yjoPI0e9LpSDtL3g2j/1GTBiR6amC59sFC5Uqq2UJgAAC9CcEB+hyr0Rg92daE0jnKkXs4U/R6dkDnnrxOsp4C3TYletKz9ChUaWm4F4GK7tB0vxTc/oprsrNeoH2ZZuw4LI2YpRdHu2bE7knDV+vBMR4Fdtymh9rNQtv3fqFNmzbpxxOP6D9nzdJPf2dWAAD0JNKK0Cc5qUWRAnrZNRMvzhR2apGxtGV7ias/SpotvFdVs8PzFAS3l+o7D3fX6ENdc8PoDXpw5AH986vL4nT+PV2sdKKxHz+uGe+/bhYCAM4QBAcAAAAAJNKKAAAAADgIDgAAAABIZ3Ja0cKFyQ1Ev3atOWQNAAAAgFjO6OBg9f+72lwc4d7/fS/BAQAAAJAk0ooAAAAASAQHAAAAABxndnAw7TO999LH+uilj/Xew1+apQAAAABScGYHB69fqMu/M1IX/9tA6coGAgQAAACgC87s4MDx+oX6fY3kHUxwAAAAAHRW3wgOHIO+0D+YywAAAAAkpW8FBwAAAAA6jeAAAAAAgNSXgoNDzReYiwAAAACkoM8EB//e8DeS97j+/m6zBAAAAEAy+kxwoN96dfF3hunI9da8B68RJAAAAAAp6TvBwd1t+uilFun/HamLvzNSN/zWrAAAAAAgkT4THPz8ijap7QK99rpZAgAAACAZfSY4AAAAANA1BAcAAAAAJIIDAAAAAA6CAwAAAABSnwkOpn2mW3KltoP99O9mGQAAAICknNnBwbTP9N5LH+ujHx+Xt2aoLn/k62YNAAAAAEk6s4OD1y/U5d+x5jW4+MfnmaUAAAAAUnBmBwcAAAAA0uac7Ozsr8yFjtzcXDU0NOjkyZNmUcrSuS5JWrhwobkoprVr15qLAAAAAMRwxgYHAAAAANKLtCIAAAAAEsEBAAAAAAfBAQAAAACJ4AAAAACA4/8PXQ12pLKEO9cAAAAASUVORK5CYII=;" vertex="1" parent="1">
          <mxGeometry x="210" y="190" width="110" height="76.15" as="geometry" />
        </mxCell>
        <mxCell id="9iWDFektB7QEEFaRxru2-11" style="edgeStyle=orthogonalEdgeStyle;rounded=0;orthogonalLoop=1;jettySize=auto;html=1;entryX=0.409;entryY=0.001;entryDx=0;entryDy=0;entryPerimeter=0;" edge="1" parent="1" source="9iWDFektB7QEEFaRxru2-1" target="9iWDFektB7QEEFaRxru2-8">
          <mxGeometry relative="1" as="geometry" />
        </mxCell>
        <mxCell id="9iWDFektB7QEEFaRxru2-13" value="" style="shape=image;imageAspect=0;aspect=fixed;verticalLabelPosition=bottom;verticalAlign=top;image=data:image/png,iVBORw0KGgoAAAANSUhEUgAAA4AAAADGCAYAAACD3e67AAAAAXNSR0IArs4c6QAAAARnQU1BAACxjwv8YQUAAAAJcEhZcwAADsMAAA7DAcdvqGQAAEHaSURBVHhe7d1NbNxWoif6f2I77kaIFwlIqwOMYQM1BmQvtCpvvKiZ+ywtZlHoQgYQrhaNB2TBlRra1qIXSi2yqG2htSpgAryXRV0ImKAuuOiFFdw3teiNa6UBbAEa4jlPD3itDmB5wCBObDmzOCSLPPw6JE9Vsar+PyBAVKTJ88VDHvJ8fPDZZ5/9CiIiIiIiIlp6H8o/EBERERER0XL6gF8AiYiIiIiIFtfff3iNf/qP/0H+Gf/2f/83+Sd+ASQiIiIiIlp06598HPnv959+EvmPDUAiIiIiIqIVwQYgERERERHRiuAYQCIiIiIiogX29x9e47Pfrck/49dfo009fgEkIiIiIiJacL/++mvkvzir1wBsdDCwLFhWD6a8rWLe73+OH795Iv88HQ+38OabL/Cj999ftuQ94rn/7pemvIFiFU3nAmZafuLIZWOGcV9azSf48ZvP8e6hvCHdu798gTf7n4R+u/7yC/z45d3QbyTxy+wcryMiIiLNVq8BSPGen+I3f/waH//xa/zmXN5I6u7il2+iD9u+VU7npY57Rr7P0fWXX+DntZf4zdHr0O83/uUZbtzfrmSYp6+6+UVERDRtU2sANjoDWJYl/TdApyHvOWOjQ+w1m2g2D9CXtxERLZH3+5/jzf0r3P7qO3mTaJAPXuL68X/mF/wk/kuLmPQjIiJaUFNrAAo2hs0mms0mms0uxo6BersCjUAioqV3F+8er+HG377DzefyNpf1HX5zDrzdYxdHIiKiVTG1WUAbnQHa9UsMg1/azB6sVg3OuIu9w1H8PjDRs1rYCO6zeYbu3gV2rRZq7l7eMeCdK2MfNDoYtOsw3G1wxujuHcLd6u6icByxY/hYPgfj7h6Cu6a7i1++2cZb/+8r3P7qW/9h7f3+5/jp8Wv85o/nuA7sd+Nv/1XqzqV2nPBbbPFv3keOJbqMvfn0GT7+02nod0E+l3Br8DU+sqQfszSf4Me9e5O/z0/w8ZffB3aQzxWOl/j3n+D2V9/ig3/+Am/ue/u9nMRVZR/Xu798gZ/9yZOkc3kSwizSODrzkieaZwnp7B4/cf/70XAnUS4/D7fw5s+PcO3/EFN+Hp7jt396jXdpx4nklxBXNmLjHqCUFyUVj9ckPEXyPV3yuYBweQ5f32uRMh1/3cdw8x+5w+rKKD9CRryU98koGxnXu3J+yXG6Siqr6WHWUcbCHuDzP+3g3/3P/46//J//Jm8kIqIV9vcfXuP3n6oNbZjyF8B4lxfKLSTBqKNtbeNV1/2aOLRh1NvoBWdxydrH7/rZxNAO/DtZ1nHcxh/G3cCXTbhfOws0/s5P8LE7LurjP47xfl+eGOMe3nyzDQzcfQYvcf34yWQSiOYT/Og25Lzj/PZvwM9/nsLELA+38EY618dfPcMNeT8F119+gR/37uGWF68/fo2Pn92fhFk5Xmv4+c9f4A0m6Xj76p40wUjWPmI80M8/TLaLc4Un20gL84dH37q/neCW+4Dn7/PHr9UfrK3vcPsKuH4oT85xF9f3AZznHTyXUX5wF7/swx+b9/Efv8ZvztciccfaI/z0TR0ffhU8TqDroLayoZYX2mTFK6Mcast3ZJ8rjtegEecNN/TeP1xTKy/PT3EztsypUCk/KnWd6j4qZSP5elfOL5Xxqqr5lVXGlOLuevAQ/w4A/re7+KdP5Y1ERERqZtgANNFr1QDYOC0w+M4eBhpX/VPYADbuhPuSquyjIu04jZ1NGLBx4u8wwuGJDaCGrTzTij78BO8B3HoW/OL1PT6Kecsc+oJineMW1vDuiWjhv/tP94Dzk9CD5odH3+L2FfD2P8U8QJRw/c+PcH31LN9DbZyHW3h7P+bLkPWd/3eeeN34238NfTn88PkVsPY75X3e79fxFi/D24++xe2rNfz8z+5DsUKYdRFhux9+qG3ex1tc4fa/BMuLmrTyE1fmbvzLM9wI7SPcGgS+SFjnuAXg/T2xj66yoZQXmqXFK085LCv3uZpP/MZfJN0fbuHdmly/JIu7ZtQolB+Vuk5hnzxlI+161yVPfqWVMZW4+148x/8HAP/ze/zbD/JGIiIiNVNuANbQ8ieAaaFmDwtOvqLSaFTZR0X6cR6sRzt+Cg5evZB/S/H8NT4E8HYv+e2+8DK5geE+5N34R/ShW/8Dj/gCdeO52gNlmvdP7uNaY7w+fBneT7zlD38NSdsn6UvJBz8AcD+lZ4ZZow+/O480wK4f3QOuzmO6hGUpEGa3bIalHUdj2VDIC71S4pWzHJaS91xPkrsKAwD+/e9wjSt8+D/kDfHE9fGJnq+scvlRqesU9slTNtKudy1y5VdKGYNa3Cde4Nu//IXdP4mIqJToc55W3iQwbjfJ2vbCTwDTPx7DQQ3bfkQa6GzXAOcMT5W7f0K84f3j1+Jt8Z63NprclUmN/LAzoemBTrNff7cGXP1D/jliNvG6i/drAO5vT9anc/+bjB9SD7MWz09x6zzYJU80sG79NeaLgAZivcBg3KPj+GZDLS9mbTblUFA71xp+fizGoSbvPzvZ5UelrsvaZ5nLRlbciYiI9JpyA9AzwuHRGA4M1Hfz9JOsoAfrMAAY9bb7ZbONOqITyqi6+Sd3zMdXottUdDxLGa8LfDGavg/+Ib8hz0tnvL7Hh1fuZC6BsUD+f243rPJhzufGs5eTbqDN+3ib9RWhIG8MWWhcozs+avbU8qI6dJbDLMFzXeH2V2JsmtpXo+nJU35U6rrkfZa/bCTHnYiISK8ZNQDFJCxiqFzGV0Bzy599s3rcr3320J0Axv2vYOMv5PkpfuPe+N//e3ljAnfyhrePomOjkrpL+Zr3c37lEQ9g178Ld7W6/ufg7H9qxFvze8kPrmXiVUBcFzJZZph98emUm/Udbl+JbqDXj+5pj7Pn/cM14OpZycZlfJyLlA2VvMjl4RbefPMFfvymwDIHucphfBpEJIUn17mEG196X41iGgr/4x+56hIxHi1/o6VQ+VGp62L20Vs2FPMrSYH8UhYT94kH+PxPf8Kf/o9/kjcQEREpm10D0O8+OfkKOLq4DE+e4i4TUV0jXFwC2LiDtDaskuYTvNkPP3yIcWbq43YA4OZfXwL3t0MNk/f7n+PntcmEIZHGi7yUgaIPn18B9+v+w+b7/c/x5tOr/DM9ujNdRh5cm0/8MKrES5cb//IMN9Ye4ccvow9zPoUwez74AaF0KurD51e4fvyfxULemuPs+eAHhCeccWfzzPdyQF/ZUMqLHMQ1BcXGe1SecqiS72nhyXMuz80/neAW1vDzn9UblHFEQy5/F2el8qNS1ynso7tsqORXmiL5FUsh7j7OAkpERBrMdh1AAGbPQqs2WS9P7OdNrGJj2DzGnUEbm2c51wpU2id+Apc86xJ6f8c1U+1hEwcpE8jIomtSqazjJaYMD63fF2nQRdeKC59LbH/3ly/w7rk4TjQsE8GJJsRadO6G8xN8/CXwi7vMQK6vAPKxELMOYFa83O2RmTmDVPYBJlOxS7/K/y4zzK7wWmWTNFRNZ8B9mP6zmF2zSBc31fITDutLf91Abx/V42SVDfW4q+WFEn89t6RrIjtemeUwICnffSnhARTOFbMO4OSYMWvQReIXw/33HxZJ30ico+UHkfpH7CeHS2WfzLKhfL0LSfkVDctEKE8z8is+D6JlLHq+uLiD6wASEVGiPOsATq0BuJzcxl/MIvJyw5aotLILdNOKC6wvF/OSwnP95Rd482mxlwxERERUDXkagDPtArrwGnewAcA5exoZ8/filSP9QlSOt/QEG39UzPe4+berSDfFkOYTvJniDLNERERUPWwA5jG6wCUAY3MnPAaw0cF+3SiwFARRAneR71uDuG5gRGo+PPrWnS00ZqKYh1t4464lqNJdkoiIiJYDu4DmFj8G0BtHSFRGcCyQ6jgmoizB8b6e6y+/wBukdw8lIiKixZCnCygbgERERERERAssTwOQXUCJiIiIiIhWBBuAREREREREK4INQCIiIiIiohXBBiAREREREdGKYAOQiIiIiIhoRbABSEREREREtCLYACQiIiIiIloRbAASERERERGtCDYAiYiIiIiIVsQHn3322a/eH7/97W/DW4mIiIiIiKjS/p//9//H7z/9RP45VqgB+Ic//CG8lYiIiIiIiCqt/1/+r2INQH4BJCIiIiIiWiyFvwASERERERHRYvn7D6+VG4CcBIaIiIiIiGhFsAFIRERERES0ItgAJCIiIiIiWhFsABIREREREa0INgCJiIiIiIhWBBuAREREREREK4INQCIiIiIiohXBBiAREREREdGKYAOQiIiIiIhoRbABSEREREREtCLYACQiIiIiIloRbAASERERERGtCDYAiYiIiIiIVgQbgERERERERCuCDUAiIiIiIqIVwQYgERERERHRimADkIiIiIiIaEWwAUhERERERLQiPvjss89+9f747W9/G94a46effpJ/IiIiIiIiojn5+w+v8ftPP5F/jhVqAP7hD38Ib43xr//6r/JPRERERERENCeFG4D8AkhERERERLRYCjcAiYiIiIiIaLHkaQByEhgiIiIiIqIVwQYgERERERHRimADkIiIiIiIaEWwAUhERERERLQi2AAkIiIiIiJaEWwAEhERERERrQg2AImIiIiIiFYEG4BEREREREQrgg1AIiIiIiKiFcEGIBERERER0YpgA5CIiIiIiGhFsAFIRERERES0ItgAJCIiIiIiWhEffPbZZ7/KP05V8wl+3LuHW4Ov8ZElb1xijQ4G7Touh00c9OWNaUz0rBZqgV/s3MeoGLMHq7WBcXcPhyN540SjM0C7bkx+cMbo7h0i5Z8sF7fMGLAxbB6gylku8uqy8uEM8dPXtULlayHza0lVPy8a6Aza2DzrYi+twl4k8rUPJ/N+5JP/7ZTrDbNnoYUhmgt90yeiWfj7D6/x+08/kX+ONfMvgNeP7gF4uVqNPw2ccRfNZhPN5jQbfyZ6loVBpyFvmIvR4Z4f56Etb11k1UpnNYsY5gyjQ+xVrnwtYTprpSt9dB1HxSzPpZ/Za6Nu2DhRah1Ni8Y09Bpw9tC/vzSbio0/zL7e6B+P4dRaeuJOROSaeQPw108BnJ/LPycyexYsS/5vANaFpIXZiylfFSlr/oNGVb8MENEya3QGaNUcjLvLUwc1djZhwMH4eEFiNDrE3tCGUW+jZ8obiYiKmW0D8OEW3q0BN/7xWt6Szhmj67+pa2JoG6i3Nb0NpNXWPwi8Be5i7AAo+maYiGhpmNitG3DGR0tYB17iYpHi1D/A0AZqrR7YBiQiHWY6BvD9/uf46TFw+6tvcfO5vDWe2bPQ2pD72IsxCXUjMDZK7pcf26dfHk9XdB/v/Gn7yMcR8o/fE8fZGMePv2h0BmhvnqG7d4HdwPmcyP5yeCZhjoy1k0SPlSX5XGJzdAzgJAzx493iy4G/VZyv9FgMN18vk8ZbFMn3Auksl+WYeCnnu3wsX1zYo1TDPBnHdIqttPAopWEKNz6IHNcLKybHi8Q9+VxJ5St+fFbcNVkuXqrpLCSXMVUzy688ZTUlXvnSJ5nycQJ11MWuhZYfqEn9lFU2jrCvdK7MvDB7sFq12DiaPQutmlxn6qkP4+Onrkr5HpQZLw31hrs1MV4TOa6vlLqPiAiVGAP4cAtvvvkCvzTDP79/uAZcnSs3/pKNcHEZ/NtEbx84inwlDHbfcyvj0NedE6zvdzD5jqi6j9tIcPfpjhE+V6ODgfsQ4B+nO4bjH0Mzo462tY1XXfdccncRswdLCo8Is4WeGRxrN4Tt3lQn8W/mu9lknCuOd5MX5024Kacxt8RN1tjEztQ+Civke0b5UU5n1TEmWfkeeGAQ53C/cMLGUPHLpnKYAQA1tKwWMAyGZ19Kn6w0zDB6ijMHMDZ3AtckADSws2kA9okbL5U6QZfy8VJO5wLXVyJnA9uR/Ap2MysfL19WWc2Il3L6ZMh3HNHTpAUv/l2MnRpag+D9IFm+c6VcO/1jjGPLvImtGgD7NFxnaqkPvetJOnZeFcn3YFd/0aCsoRXs6j8JkKZ6I/1eMNknx/WVWPcREeU3nQag6+2ju4G/7uL9GnDj+feB34pq4M4GAOcVXgAA+jiQ3sD1j8dwYGDTuwM27mADgH0avJ1J/05hn0ZnGzXYGAa+EI0OjzB2DNR3xU3E3K3DcMY4Ur05aWAPAw/0/VPYADbuNMQbxu0aYA9DN0sRZqC2rfYwo6bAucye3/hTvpnL3PjCOcPTgofIopLvKuVHt+R898a6BCdvGOHwxAZQw1bexoKi0Bfu/inswDWolIaZRngqnoLCD7eNHYjnVf/kkXSP1Ama6ImXigLXVxrDCM9K7DY0vOPojldyWdUcL42ccTfQG8Are+t4IO2nQ/K1k1DmzS3UEDOWTUd9GLmeiqtEvge6+ndFP38MA428SR5rqjcU7gX5r6/plj8iWi3TaQA+P8WtcwD363j30P2teR9vcYWb3+Uc/xdDzErmYHyU8mA9ukDoI6H7d62V8qY8c5+kt6LuF8mNO/5bWefsaXLYtLOReJ92b+TOK9FUnpjCzSTvuXaSuzbl08dBs4nm1Bpa2fnegEr50S0l3wE8WE/qOuUgkkVapIVHMQ0VjA5PQg1LBBq7yeePqRO00BevTHmvr0xyerlhNtYx0h4v+VwB2uOlz6U0UEx8kSrQSyFTSvoAGD09izRCTHGjiWnkaagPH6zD0FJPpMSrwvkeUqTeyLwXFLu+RmIj3Hd8RESFTacBCODGs5cA1vDuieiLKpZ/eF2s+6dRRzvQXaO1MUZX6sLW6Ayk2Rvl8Xd9HLhd4GqtpBkes/Z5gHUDQK0VmS1yMkakmuQHmQn9NxO1cxmo10WiJe9fFar5nlV+Zku8ua5he9I3Wbxxj31onDbVNFTRx6kd7AolHqac8XHoYSq7TtBBZ7zUJF8v5a/lF6+8jurLFa+FNzrESajMixeN9kmJRl5FVC3f9dQbWfeC2V9fRERBU2sAwvoOt6+A68d1XOMuru/nW/4hRJoFVH6z6Y0hs73xE83JmIGwEQ733O1d0a0j2t8+bZ8XeBWZJTIcrsUzy9nQgudyMO6KMW7Jb0mrIjvfJ0mYVn5m7ME6DABGve0+XLRRR9KEBdOWJw2z9UULUHSJa+xg03BwFmjVqtcJZemNVznlr+UH6wbgvFq6eC2DUJk3t1BL+7q2FGaf73rrjbR7QZWuLyJaRdNrAAK4+deXAO7hev8TvAdw65mO8X8ytyuFM4Y8FCLV6BB7bqW8ntTPJLJPevcMQVTshnRQczduJsYZcAeO1yKDvuK6oMSHPaLRwcCyYFnSlNS5ziX0D7y3pGUaSSZ6lgVLcXKG/FTyPUak/HgU07mUyfgaPQ8WZcNcMA2T9I8xdkSXuMbOJozQV82CdYIqb5INQH+80tK5wPWVjzupyOXFFOKVIle8UtInF13HkYTKhkfTuQJl3tyqpeS3hvrwxauYekuzueR7minWG5F7QbHrq3FnYy4NYyJaPlNtAMI6xy0Abx8/wjVe4iNL3kEHb9xKYIC8Owtn6EZs9iLrBnoLwvpDEBT26R+P4Rh1tBM/WbnjF2rbfoOm0RmgteFMbxbQVO7EH7VW6Ctbo7MvxlGG7nRuWgbCHkekCWImE8lzLs8Ih3tD2DBQbxdc40jLrHfpsvNdrfwIaulcTrEHjGTlw6yUhsrEdWZs7mJ305C6winWCQrEmJtAOXen5A/SHa/kdC5yfakze63QpBR645UmT7zS0ieP8sdRKRtC+XMJbpmvt8Xi7En5raM+TGyc6TSPfE+jr95QuRfkv768Bqo3+R0RUXFTXwdQrP23Bpyf4OMv838BTF9nxyOvpWP7ayoF1+qKrikkr5+kto8/xXPot/AsbmJ9Jn8DmgdAz53mO3aJuUTiXKnrAEbWNIr5N5GHk7h4ISYtY9Za8tdJSjhG1rli1gGcHDN+HaT0cuDmR8l1r/y4J64DmJ3vauUHqekcPcZEeJ+sfI8PL6Qwq8sKc1Z4Jr/JYSoUntRyKIc1WieopDMieWpj2DzGnUEbm2dTilck7NI1mHV9qYisdeZ2tY9cP+XjpVw2lOOVkT7KUo7jhiUrnmplA6nnUk4fBPItNq88eurD+HCpi//3MfGacb7Hh8vfOqV6AwnxynF9uXkfmrmXiCggzzqAU28AUlkxN8wVlN4ApKjkh0DxciK+oU1EFTbTxcDdOsROeiFGs8R7IBFlydMAnG4XUCKaD3cdqrjlSCYzPRLRIomu7TlNfRyLAdoVn6RrBZg9tJZk1lciqgY2AImWkbsO1WTaeFejg/26MaelIIioMLPnzlApdyOcntHhnjtTc5lJuqiURgcDd71cfoglIl3YBbTyomMEYscHLKHIGIqY7oyUJlp2UHDcDBHNR7AenE/dL8bFRcc10iyYPQstsBsuEWXL0wWUDUAiIiIiIqIFlqcByC6gREREREREK4INQCIiIiIiohXBBiAREREREdGKYAOQiIiIiIhoRcx+EpjmE/y4dw+3Bl/jI0veuMTcBXwvc8/iFp3JcT4zwWlk9mC1NjIXIl/5WUDdMmPAxrA5u6nfixB5dVn5cIb46etaofK1kPm1pKqfF5wFNESl3lDZZ5ZUwqOyjyYzLfNF41X4ma06ZprOFaMz7os0E2+lJ4G5fnQPwMvVavxp4Iy7aDabaDanWRmZ6FkWBhVZ8Gl0uOfHeWjLWxdZtdJZzSKGOcPoEHuVK19LmM5a6UofXcdRMctz6Wf22qgbs1p8PkmF0lCl3lDZZ5ZUwqOyzyJa2HhVqMwrm2WYZ3eu/vEYTq01k3PN0swbgL9+CuD8XP45kdmzYFnyf1yUljQxezHlqyJlzb9xlX+DRUSUV6MzQKvmYNxlHTR74gHXsiz0TGlLz4I16GBetyailTI6xN7QhlFvR67FRTbbBuDDLbxbA27847W8JZ0zRtd9gyPe4hiot2fT8qcl1z/wy1Wz2cXYAWAPA7+ld1MlIlpOJnbrBpzxEevAeXIcbGyzsUc0V/0DDG2g1uphWdqAMx0D+H7/c/z0GLj91be4+VzeGs/sWWhtyH22xZiEuhEYGyX384YTM8ZMHk9XdB/v/Gn7yMcR8o/fE8fZGMePv2h0BmhvnqG7d4HdwPmcyP5yeCZhjoy1k0SPlSX5XGJzdAzgJAzx493iy4G/VZxPtW9/IjdfL5P6ehfJ9wLpLJflmHgp57t8LF9c2KNUwzzpb3+KrbTwKKVhCjc+iBzXCysmx4vEPflcSeUrfhxB3DVZLl6q6SwklzFVM8uvPGU1JV750ieZ8nECddTFroWWH6hJ/ZRVNo6wr3SuzLwwe7Batdg4mj0LrZpcZ+qpD+Pjp65K+Q7F8MTHOe56d7ck1BtBKvvEc9PFHmO8sQkcTa674DFRqTB7kvMUueof1ePoiLt8LiHPM5tKGRPkc02xzCulc7l6XjnMC12vAmnPH1Ux/zGAD7fw5psv8Esz/PP7h2vA1bly4y/ZCBeXwb9N9PaBo8hXwmD3Pa8yDX7dOcH6fvDNmuo+biPB3ac7RvhcjQ4GbmH1j9Mdw/GPoZlRR9vaxquuey75U7XZgyWFR4RZdC2ZjLUbwnYvkEn8m/kKesa54niVhzhvgYcNc0tc3MYmdqb2mlQh3zPKj3I6q45ZyMr3QGUlzuF+4YSNoeKXTeUwAwBqaFktYBgMz76UPllpmGH0FGcOYGzuSG/EG9jZNAD7xI2XSp2gS/l4KadzgesrkbOB7Uh+Bbu4lI+XL6usZsRLOX0y5DuO6GnSghf/LsZODS3Frnf5zpVy7fSPMY4t8ya2agDs03CdqaU+9K4n6dh5VSTffVnhqaQLPD0D6ruVDmRA+n1wIqXMI7tsaKXzmS2rjGXES3uZn0E9ny/MC1qvIu35YzFNpwHoevvobuCvu3i/Btx4/n3gt6IauLMBwHmFFwCAPg6kNzr94zEcGNj07oCNO9gAYJ8Gs1T6dwr7NDrbqMHGMPBKaHR4hLFj+BW0uVuH4YxxlPdCLcEeBh7o+6ewAWzcaYg3O9s1wB6GLgwRZqCmtWtJgXOZPb/xl7ti87jxhXOGpwUPkUUl31XKj27J+Q40djZhIDh5wwiHJzaAGrZ030Bdobel/VPYgWtQKQ0zjfBU1MDhh9vGDsTzqn/ySLpH6gRN9MRLRYHrK41hhGe4c2+I3nF0xyu5rGqOl0bOuBvoDeCVvXU8kPbTIfnaSSjz5hZqcDA+lh5TdNSHkeupuKrle3J4qmt0eAK7trUYXc9y3AeTy/xsy4buZ7bkMjbbeAGzr+dVLGS9Ckw9rLM2nQbg81PcOgdwv453D93fmvfxFle4+V3O8X8xxKxkDsZH0QrFN7pA6COh+3etlfL2KHOfpLei7hfJjTv+2wPn7Gly2LSzkXifdm/kzivRVJ6YQkHOe66d5E/w+fRx0GyiGXOD0SM73xtQKT+6peQ7gAfrSd0kHESySIu08CimoYLR4UmoYQlMGrvJ54+pE7TQF69Mea+vTHJ6uWE21jHSHi/5XAHa46XP5UW4RhFvnwv0UsiUkj4ARk/PIi8vTHGjiWnkaagPH6zD0FJPpMRrLvmeEp5K6+N4vIFt1U8y86R8H0zJi5mWDd3PbFWJl0cOzzTreTWLWa8KI5EwqPg7IyXTaQACuPHsJYA1vHsi+qKK5R9eF+v+adTRDszM2NoYoyt1YWt0BtLsjXJf7j4O3C5wtVbSDI9Z+zzAugGg1orMFjnpy1xN8gU3ob8gq53LQL0uEi15/6pQzfes8jNb4otXLfDQ4L59TKncpkc1DVX0cWoHu2GIm5gzPg7dQLLrBB10xktN8vVS/lp+8crr9LRc8Vp4o0OchMq8eGi1T0o08iqC+a5mJPqBLsBXQH33wWUtG/OO1zzr+UpZ4npVxdQagLC+w+0r4PpxHde4i+v7+ZZ/CJFmAZXfbHpjyGyvn2+gf3DYCId77vau6A4W7eects8LvIrMEhkO1+K5RGJdpF3wXA7GXTHGLftN4bxl5/skCdPKz4w9WIcBwKi33Uq9jTqSBsBPW540zNYXLUDRdaOxg03DwVmgVateJ5SlN17llL+WH6wbgPNq6eK1DEJl3txCLePt9uJjvoeMDnFiT6/7vl7Tvg8ua9mYTbyqWc/Px+rVqxPTawACuPnXlwDu4Xr/E7wHcOuZjvF/MvcTtjNGbJfdJKND7LkV03rSN/fIPiqfxcUFZUgHNXfjZmKcAXfQai1y14j79B8f9ohGBwPLgmVJ0+HmOpfQP/DeFJa5OZhivSTFQcT5qeR7jEj58SimcymTsQZ6KvSyYS6Yhkn6xxg7outGY2cTRuirZsE6QZU3yQagP15p6Vzg+srHHfx+eTGFeKXIFa+U9MlF13EkobLh0XSuQJk3t2op+a2hPnzxKqbe0mwu+V5AbJ7OR//UjkmvGBUKc/J9MEWusiHJHff4sjWVZ7Zc8YoPV3nTrOenFObYPNV0LuV6VWjc2ZhZQ33aptoAhHWOWwDePn6Ea7zER5a8gw5ef+bAQE53RqdQgTF7kXUDxbihwDgHhX36x2M4Rh3txE9Wbl/u2rbfoGl0BmhtOMVmlCrNnfij1gp9ZWt09sU4ytATspuWgbDHEWmCmMlE8pzLM8Lh3hA2DNTbBddX0TLrXbrsfFcrP4JaOpeju2IvH2alNFQmrjNjcxe7m4bUZUOxTlAg+vsHyrk7dXSQ7nglp3OR60ud2WuFJgPQG680eeKVlj55lD+OStkQyp9LcMt8vS0WZ0/Kbx31YeKDqk7zyPd06nk6J/1jjDe2sb0x+alyYVa+D6ZRKxt64j7LZza1eHn7TqPMT7eeLx9m9Twtfy5BsV4FMHm57E1Audim2wDE97j5tyvxv0W7fyoQX5HE1LKWZcFqr+NE7u7VP8AR9kN9nMUaIcHZmhT2GR1irzmEHdNn2rt+Rod7/mL1lmWhvX6C5t7JFCagUNQ/QHNoB/rjx8TL31VKS8uKVOZi4CziB9jmONdEHwddMV6tVWSsgI5Z77Io5LtS+fF3TU7n4Ni1Vi08BlbOizT9gyFsafxsJMw5pIVZiUoa5jB6egbHqKFmRMthJKwxdYJSOvcP0B07k/LcAob+chouzfGKhF0KT/7rK0pcwzW0AmEVY6sDA/E1xytVjnilpk8OpY+jUjb8XUuey+XXvWl1nZb60HsonvLMk3PI91QKeapSb6jsU8wIT88AI/hpqmphznEfTKVSNjTFfabPbCrx8nctV+bnUc+XDbNKnk52LXkul1K9CkxmR16SMYIzXQieikhe1HSVpC/gSlHuWkwxi0GLRU7zLfRKRBUw04WIA+u5BaaIJyJaKor16iI8h85/IXgimi93Laa4qa0nM4AR0SKJru05TX0ciwHahb4EEBEtAqV61eyhtWQzhLIBSLSM3LWYJtMbuxod7NeN7K4ORFQtZs+d2XYa62XFE13jyk7SRURUUSr1aqODgbtm9TJ1hmAX0Mpzu+EEfrGHzaUqhEm8qfx9Md0ZKU207ACAk9HNgYiqI1gPzqfub6AzaGPzjPUGES2HPPWq2bPQwmJ0hc/TBZQNQCIiIiIiogWWpwHILqBEREREREQrgg1AIiIiIiKiFcEGIBERERER0YpgA5CIiIiIiGhFzL4B2HyCH7/5Ar805Q1LrtHBwLIKrKdkomdZsAL/5T9GxZg9WFb2tOKNziAUb2vQCS9psOzcMmNZPVQ9y0VeVT+cIX76rl75Wsj8WlLVz4sGOgMLg6wKe5UVvr+75LpIvj/O615QNl66lQ3PiqXzTOsWOW1V76dTivsszTSdNZp5A/D60T0AL/GRJW+hNM64i2aziWYzfbrackRjsyo3+tHhnh/noS1vXWTVSmc1ixjmDKND7FWufC1hOmulK310HUfFLM+ln9lro25kLJI8dYudhqkaHQzadRj20L/fNZt7mGtyLyOm83RV8n6qYhHrFj1hnnkD8NdPAZyfyz8nMnvBtzUJb22IijJ7MeWrImXNr1BTFiglIpqSRmeAVs3BuMs6aFoaO5sw4GB8nJLCC3MvSH4wNXs5vgpNwXKlM1F5s20APtzCuzXgxj9ey1vSOWN0/Tc2TQxtA/V2fCVDlEv/IPA2sIuxA4BvCIlo5ZnYrRtwxkesA6fuEhdM4xlgOhN5ZroQ/Pv9z/HTY+D2V9/i5nN5azyzZ6G1MUZ37xCT67aBzkB0Sxl6b2q8z/v+Pg7GXfnh3UTPaqFWeh/v/Gn7yMcR7GHeLpziOBvjLvZi7sKNzgDtzTN09y6wGzifE9lfDs8kzI3OAO1JZCKix8qSfC6xuQertRH6bRKGQJ4GxJcDf6s4n5O0XZWbr5dDNGMzqUi+F0hnuSzHxEs53+Vj+eLCHqUaZrHfJYbNU2ylhUcpDVO48UHkuF5YMTleJO7J50oqX5N4Bctk3DVZLl6q6SwklzFVM8uvPGU1JV750ieZ8nECddTFroWWH6hJ/ZRVNo6wr3SuzLwwe7Batdg4mj0LrZpcZ+qpD+Pjp65K+Y7E+ISv5eJhFsL3d7VrJz5c/kZ99wKl8KjEK01c3ehuCdSxUA6zSnhU4rVs6eyRjxM+V2bd4lM9TvK1E5R0P3W3lo67el7I55p23ZKVziplI5lKmP/3fWvOC8E/3MKbmIle3j9cA67OlRt/yUa4uAz+baK3DxxFvhIGu++5BSH0decE6/vBLgmq+7iNBHef7hjhczU6GLgXhn+c7hiOfwzNjDra1jZedd1zDW0Y9fZkUK3ZgyWFR4RZDLydjLUbwnYL0ST+TeWLAMg+VxyvUIvzxlTOWcwtccEZm9iZ2kdhhXzPKD/K6azalz4r3wONJXEO9wsnbAwVv2wqhxkAUEPLagHDYHj2pfTJSsMMo6c4cwBjc0fqStTAzqYB2CduvFTqBF3Kx0s5nQtcX4mcDWxH8itQfjTEy5dVVjPipZw+GfIdR/Q0acGLfxdjp4aWYje2fOdKuXb6xxjHlnkTWzUA9mm4ztRSH3rXk3TsvCqS77lkhVnp/p5x7QSGHogHuhpawaEH3sl03QuywgPVeGmUFWal8GTEa6nTOf15YyKlbkH2NaiVtrgr5EVGvLTXLTO4n+oO83QagK63j+4G/rqL92vAjeffB34rqoE7GwCcV3gBAOjjQHrT0D8ew4GBTe8O2LiDDQD2afB2Jv07hX0anW3UYGMYeFUxOjzC2DFQ3xU5be7WYThjHOXMjDLsYeCBvn8KG8DGnYZ447BdA+xhqHCIMAO1bbmyKKPAucye3/jLW3h9bnzhnOFpwUNkUcl3lfKjW3K+e2MegpM3jHB4YgOoYUt3xe4KvcXrn8IOXINKaZhphKeiBRh+uG3sQDyv+iePpHukTtBET7xUFLi+0hgGLkP5JRoa3nF0xyu5rGqOl0bOuBvoDeCVvXU8kPbTIfnaSSjz5hZqiBnTpKM+jFxPxS1ivieHWe3+nnntBIYedMW4AwwDD3LxPVDSpYU5MzyK8dItLcwq4cmM1zKnc47njeS6ZbbXoLa4u5LzYrbxAmZ/P9VhOg3A56e4dQ7gfh3vHrq/Ne/jLa5w87uc4/9iiFnJHIyPogXdN7pA6COh+3etlfJWI3OfpLei7hfJjTvw3so6Z0+Tw6adjcT7tHsjd16JpvLEFB5m8p5rJ7lrUz59HDSbaMZUfHpk53sDKuVHt5R8B/BgPamrgINIFmmRFh7FNFQwOjwJNSyBSWM3+fwxdYIW+uKVKe/1lUlOLzfMxjpG2uMlnytAe7z0uZQGDIk3sAV6KWRKSR8Ao6dnkZcXprjRxDTyNNSHD9ZhaKknUuJV2XxPCbPS/V33taMiLczZ4VGLl25pYVYJT3a8ljqdlZ83UsI802tQY9yBCsXLI4dnmvdTPabTAARw49lLAGt490T0RRXLP7wu1v3TqKMd+Gzf2hijK3Vha8hrxkX6GPdx4HaBq7WSZnjM2ucB1g0AtZZ0ruAYkWqSH2QmNuC+vNJG7VwG6nWRaMn7V4VqvmeVn9kSX7xq2J70PRFvxWIfGqdNNQ1V9HFqB7vEicrVGR+HKtfsOkEHnfFSk3y9lL+WX7zyOuMsV7wW3ugQJ6EyLx6m7JMSjbyKWL58n/21k65q4dGlavGadXj0PW8s3zUozDte87yfqphaAxDWd7h9BVw/ruMad3F9P9/yDyHSLKDym01vDJnt9b1tTvrIho1wuOdu74ruYNH+t2n7vMCryCyR4XAtnlnOihU8l4NxV/S3z36DNW/Z+T5JwrTyM2MP1mEAMOptt7Jpo46kgdnTlicNs/VFC1B0iWvsYNNwcBZo1arXCWXpjVc55a/lB+sG4Lxaungtg1CZN7dQi7xxXjaLmu9VunagFJ7FlB2v5U/naT9vLOo1mGU28arm/XRieg1AADf/+hLAPVzvf4L3AG490zH+T+Z+WnXGkIdCpBodYs+9YNaTvgVH9lH5XCsy2pAOau7GzcQ4A+6kGbXIoK+4T9LxYY9odDCwLFhWD6Gj5jqX0D/w3mCVqbRM9KxprjGkku8xIuXHo5jOpUz6wOupaMqGuWAaJukfY+yILnGNnU0Yoa+aBesEVd4kG4D+eKWlc4HrKx93UpHLiynEK0WueKWkTy66jiMJlQ2PpnMFyry5VUvJbw314YtXMfWWZnPJd0lsfqWJD0f4/j7Da0eJSnhU4qVOPg68eRsuLxTvPyrhUYnXLKmERyVeBSU+b6TIdQ1KpnLtaJIrXvHhKm+a91M9YZ5qAxDWOW4BePv4Ea7xEh9Z8g46eP1sAwPk3ZmGQoXT7EXWDfQWBvW7CSvs0z8ewzHqaCd+snL7GNe2/QZNozNAa8MpNtNRae7EH7VW6Ctbo7MvxlGGnpDdtAyEPY5IE8RMJpLnXJ4RDveGsGGg3pYalKq0zHqXLjvf1cqPoJbO5eiucMqHWSkNlYnrzNjcxe6mIXWFU6wTFIxEpCfl3J2SP0h3vJLTucj1pc7stUKD1PXGK02eeKWlTx7lj6NSNoTy5xLcMl9vi8XZk/JbR32Y+ACl02zzXT2/0qjd32d37ajJDo9avLL1cSxmvgjlU3yeplELT3a8Zis7PGrxUqL8vJFG7Rqc5bWjh1q8vH3L1i1xpns/1RPm6TYA8T1u/u1K/G/R7p8KxFckMWW3ZVmw2us4kbt79Q9whP1Q31uxbkdwFiGFfUaH2GsOYcf05fXydXS45y9Wb1kW2usnaO6dTGECCkX9AzSHdqCfeEy8/F2ltLSsSCUjJiRAzKDXfOea6OOgK8artYr0Ydcx610WhXxXKj/+rsnpHBy71qqFx8DKeZGmfzCELY2fjYQ5h7QwK1FJwxxGT8/gGDXUjGg5jIQ1pk5QSuf+AbpjZ1KeW8DQX07DpTlekbBL4cl/fUWJazg8JboYWx2Y4ERzvFLliFdq+uRQ+jgqZcPfteS5XH7dm1bXaakPvYe1rWIv5VTNMt9z5Fcapfu7pmtHqY5SoRAepXgpGB3u+dPte+dIytM0SuFRiJeKRUznPM8bqVSuQYVrRyUNtcVdhUq8/F3L1S3zuJ+WDTNmvRA8FSHWeolbbHOVpC8sSlHuGkExC9qKxaPzLUBKRBUQWNtz+veDwDpjBabLJyKi2fr7D6/nvBA8Ec2Xu0ZQ3JTLk5mpiGiRRNf2nCavO1+4GxURES0+NgCJlpG7RtBk2nhXo4P9ulGyexgRzZzZc2e2ncY6hPFEl62yk3QREVHVsAto5bndcAK/2MMmVqFHjjeVvy+mOyOliZYdAHBm0n2MiHQI1oPzqfsb6Aza2DxjvUFEVGV5uoCyAUhERERERLTA8jQA2QWUiIiIiIhoRbABSEREREREtCLYACQiIiIiIloRbAASERERERGtiLk2ABudASyrBx1LDJk9CxYXKyIiIiIiIko05QagiZ5lYTCDBYT6x2M4tdZMzkVERERERLSIptwAnKHRIfaGNox6G/wQSEREREREFLU8DUAA6B9gaAO1lp5upURERERERMskuhC82YPV2sC4u4eLXQutmrfBxrB5gL47dq9dv/T/dv8helYLG+MujrCPdt3wt8iccRd7h6PAcU6xZbXgncrbLsJSm/wdYPYstGqTMPkaHQzadSDm3xARERERES0bDQvBG6i3LbQwRLPZRLPZxdipoTXoQGWE3ehwz/13Q9hug078Lf4LN8xqaFktYOhuH9ow6vvoNAD0jzF2AGNzRzqvia0aAPs03PgDgNFTnMX+GyIiIiIiotWW0AB0G20HXvNqhKdnDmCs44G0nw72sAn/VP1T2DCwudMInHcTO8HWnLmFGhyMjyPNv6mHlYiIiIiIaFElNgAvL8LdJ8VXPam7pRY2TlMOOnp6BsdvEArmVg1wzvA0oYfn6OISwAbu8BMgERERERGRL7EBWBmjQ5zYwS6dovunfXKIhPYfERERERERxah+AxBA/9SedAM1t1DL+GpIREREREREUfoagOaWP4vnxAu8cgBjveRovP4xxo7oBmpu1eInfwlo3NkAcAmpFysREREREdFKK9QAFGPsatjyFttzl2uIGkHsui1m9SxMTOxi1Nto1ZImf/E0sLNpAM4rvJA3ERERERERrbBCDUD0D9AdO6i1LFiWBbGKQxdjR94R6B90MXbEshKWJf4bFGgNislgkDr5CwCgsYNNg2MEiYiIiIiIZNGF4KtKcYF3s2ehtTFGd48NQCIiIiIiWn4aFoKvnsbOJgzYOElp/MHsocUZQomIiIiIiGItRgPQ7KFdN2APU9YhbHQwaNXgjLuTReWJiIiIiIjIV+kGYKMzcMcY1mAPm6kNO3O3DsMepnYPJSIiIiIiWmWLMwaQiIiIiIiIIpZyDCARERERERGVwwYgERERERHRimADkIiIiIiIaEWwAUhERERERLQiZt8AbD7Bj998gV+a8oYl1+hgYFnomfKGLCZ6liVmQ3X/y3+MijF7sKwBOg15Q5g/C6z336CDjH+yXNwyY1k9VD3LRV5VP5whfvquXvlayPxaUtXPiwY6AwuDrAqbKIj3r3hF7zuFnyGrY6bpXDE64272LFgaCsLMG4DXj+4BeImPLHkLpXHGXTSbTTSb6cthlCMam1W50Y8O9/w4D2156yKrVjqrWcQwZxgdYq9y5WsJ01krXemj6zgqZnku/cxeG3XDxslcl1ha7DRMVrV4VS08S6iS9x0Vi1g2Zhnm2Z2rfzyGU2uVPtfMG4C/fgrg/Fz+OZHZC3/9Ev9lfz0iUmL2YspXRcqaf6M4wNTa/ERECRqdAVo1B+PuitRBKfcDDS/cVwvvX0TTMTrE3tCGUW+Xqpdm2wB8uIV3a8CNf7yWt6Rzxui6b0zEWxMD9fZsWtq05PoHfrlqNrsYOwDsYeC3Pcz1xTcR0VyY2K0bcMZHK1cH2sPJ88b0e94QEeXUP8DQBmqt4t1KZ7oQ/Pv9z/HTY+D2V9/i5nN5azyzZ6G1MUZ37xCTe1ADnYHoljL03i41Ohi06zD8fRyMu/LDu4me1UKt9D7e+dP2kY8j2MO8NxJxnI1xF3sxd+FGZ4D25hm6exfYDZzPiewvh2cS5kZngPYkMhHRY2VJPpfY3IPV2gj9NglDIE8D4suBv1Wcz0narsrN18shmrGZVCTfC6SzXJZj4qWc7/KxfHFhj1INs9jvEsPmKbbSwqOUhinc+CByXC+smBwvEvfkcyWVr0m8gmUy7posFy/VdBaSy5iqmeVXnrKaEq986ZNM+TiBOupi10LLD9SkfsoqG0fYVzpXZl6YPVitWmwczZ6FVk2uM/XUh/HxU1elfFfmpnXifbrRwaC9ibPuCdbbLdTcsPplxE1zZMRdKV4XuznzPYuGdFa4LiL1bkw5VC4b8rF8eeuh5LgjV32oepzo9Rj3DJd033G3ln6GVE7nyLkKlA0F6ulc7r6jHGaF8pyVp/Or5yfXR/B5aP4LwT/cwpuYiV7eP1wDrs6VG3/JRri4DP5torcPHEW+Ega777kFPPR15wTr+8EBuKr7uI0Ed5/uGOFzNToYuIXDP053DMc/hmZGHW1rG6+67rnkT8NmD5YUHhFm0a1lMtZuCNstkJP4NyOFMVXGueJ4F6s4b54bmsvcEheTsYmdqX0UVsj3jPKjnM6qYwSy8j1QOYhzuF84YWOo+GVTOcwAgBpaVgvw3p4PbRj1fSl9stIww+gpzhzA2NyRBs43sLNpAPaJGy+VOkGX8vFSTucC11ciZwPbkfwKdikpHy9fVlnNiJdy+mTIdxzR06QFL/5djJ0aWoqTNuQ7V8q10z/GOLbMm9iqAbBPw3WmlvrQu56kY+dVkXzXbXN/G6+6XYwdA5v7A1FGhnY4zY062pE8FXFXilfefE+l6d4EZF8XFbp/Celxn0i5BpFdVrXS+QyZlc4Z8cpXNhTM4L6TL8wZ5TlDvnOllLEi13vi85Ca6TQAXW8f3Q38dRfv14Abz78P/FZUA3c2ADiv8AIA0MeB9AalfzyGAwObXm3cuIMNAPZpMAmlf6ewT6OzjRpsDAOvYEaHRxg7Buq7ogSbu3UYzhhHeS+MEuxhoELsn8IGsHGnId6kbNcAexgqiCLMQG1brZCrKXAus+c3/nJXJB43vnDO8LTgIbKo5LtK+dEtOd+Bxs4mDAQnbxjh8MQGUMOW7huWK/R2sn8KO3ANKqVhphGeihov/HDb2IF4XvVPHkn3SJ2giZ54qShwfaUxDFyG8kvcgLzj6I5XclnVHC+NnHE30BvAK3vreCDtp0PytZNQ5s0t8QXqWHos0FEfRq6n4hYx39MZMC69F02AYVwGrhED64HCEc5T9/pSrnxz5nsazfcmXddFctnQeP/KEffka3C2ZVX3M2RyOs82XsDs7zsqdJVnFcllrMj1Xi6s02kAPj/FrXMA9+t499D9rXkfb3GFm9/lHP8XQ8xK5mB8FL2AfaMLhD4Sun/XWilvazL3SXor6n6R3Ljjt9ads6fJYdPORuJ92r2RO69EU3miXMGJlfdcO8mfvPPp46DZRDOmQtcjO98bUCk/uqXkO4AH60ndEhxEskiLtPAopqGC0eFJqGGJwMNC8vlj6gQt9MUrU97rK5OcXm6YjXWMtMdLPleA9njpc3kRrlHE294CvRQypaQPgNHTs8jLC1PcaGIaeRrqwwfrMLTUEynxqnC+11ryJDDhrw+hxoT/Ilomxz3/tZMv31NovjfpuS7k9AnTdv9SjntKeGZaVnU/Q1YlXh45PNO876jRU55VyHEPK3K9j0TCwH1vkst0GoAAbjx7CWAN756Ivqhi+YfXxbp/GnW0A5Vxa2OMrtQFoCGvGRfpO93HgduFYFK5y5+Us/Z5gHUDQK0VmSFs0ne4muQCPlGs4KRRO5eBel0kWvL+VaGa71nlZ7bEF68atid9k8XbvpTKZHpU01BFH6d2sNuDuGk44+NQhZ1dJ+igM15qkq+X8tfyi1deJ6PlitfCGx3iJFTmxUOifVKikVcRVcz36CQwebocaqQt36t1b1Kh7/6lL+5VLKs6zDte87zvVIq2613N1BqAsL7D7Svg+nEd17iL6/v5ln8IkWYBld9semPIwpW26I8bNsLhnru9K7qDRfsVp+3zAq8is0SGw7V4LpF47WsXPJeDcVeMEch+Mzdv2fk+ScK08jNjD9ZhADDqbbcSbaOOpAHn05YnDbP1RQtQdJVo7GDTcHAWeCpQrxPK0huvcspfyw/WDcB5tXTxWgahMm9uoZbxNnnxMd+hNd8rdG9SofX+Ne24L2tZnU28qnnfmQ9913u26TUAAdz860sA93C9/wneA7j1TMf4P5n7ydgZI7aLbJLRIfbciiDYZz8kso/KZ2hRgA3poOZu3ExWM+AOEo2OO4j71B4f9ohGBwPLgmVJ08/mOpfQP/DezJWpjE30LAuW4qDd/FTyPUak/HgU07mUSd9+PRVo2TAXTMMk/WMxAcNOQ3T/DL0VLlgnqPIm2QD0xystnQtcX/m4g80vL6YQrxS54pWSPrnoOo4kVDY8ms4VKPPmVi0lvzXUhy9exdRbms0l3+cprmufQryU8z2Hud6bVOi+fwUkxj1FrrIqia0T0sTnwVSeIXPFKz5c5U3zvjOlMMfmqaZz5bzeG3c2CjfUp9oAhHWOWwDePn6Ea7zER5a8gw5e/+HAwEl3BqVQBpm9yLqBYtxQoD+5wj794zEco4524icrt+90bdtv0DQ6A7Q2nGIzOJXmDpyutUJf2RqdfTGOMvSE7KZlIOxxRJogZjB2nnN5RjjcG8KGgXq74HomWma9S5ed72rlR1BL53J0V6Tlw6yUhsrEdWZs7mJ305C6SCjWCQpE//pAOXenag7SHa/kdC5yfakze63Q4Hu98UqTJ15p6ZNH+eOolA2h/LkEt8zX22Jx9qT81lEfJj4Y6jSPfJ8f7/qaTGoCxXgp5nuaSt2bVGi8fynHPY1aWVWvE9LM8hlSLV7evtMoG9O975QPs3qelj+XkOd69152J41DTjfdBiC+x82/XYn/Ldr9U4H4iiSmcrUsC1Z7HSdyd6/+AY6wH+pTLNbkCM6OpLDP6BB7zSHsmD7KXnkdHe75i9VbloX2+gmaeydTmIBCUf8AzaEdGtgeiZe/q5SWlhWpPMVAVcQPaM1xrok+Drqiv3+rSN98HbPeZVHId6Xy4++anM7BsWutWngMrJwXafoHQ9jS+NlImHNIC7MSlTTMYfT0DI5RQ82IlsNIWGPqBKV07h+gO3Ym5bkFDP3pyF2a4xUJuxSe/NdXlLiGa2gFwirGVgcGvmuOV6oc8UpNnxxKH0elbPi7ljyXy6970+o6LfWh9xC6VeylnKo55LuK6CQwRcp8xvXlUomXUr6n0XRvUqFUryrQdv/KEfdUKmVVoU5QSZ+ZPkOqxMvftVzZmMd9p2yYVfJ0smvJc7mUr3dvtuaCYwRnuhA8FTFZcLLcTJmLLX3BVIpy1z6KWYRXLCqab2FVIqqAmIV/pyewflpgSnbKFr94dAkzzfcq4P2LVpji9R73XDz/heCJaL7ctY/ippKezLhFRIskujbaNPVxLAZoF3rzTvrMNt8rgPcvWmFK17vZQ6vkDKFsABItI3fto8l0wq5GB/t1I7trARFVi9lzZ7bV9FVJgeiKVnaSLiplDvk+d7x/0apSud4bHQzcNbTLdM5gF9DKc7tCBH6xh81Smb4ovKn8fTHdQShNtOwAgJPRrYCIqiNYD86n7m+gM2hj84z1hiodXUDnn+/zxvsXrY4817vZs9BCfNf8PF1A2QAkIiIiIiJaYHkagOwCSkREREREtCLYACQiIiIiIloRbAASERERERGtCDYAiYiIiIiIVgQbgERERERERCuCDUAiIiIiIqIVwQYgERERERHRimADkIiIiIiIaEWwAUhERERERLQi2AAkIiIiIiJaEWwAEhERERERrQg2AImIiIiIiFYEG4BEREREREQrgg1AIiIiIiKiFcEGIBERERER0YpgA5CIiIiIiGhFsAFIRERERES0ItgAJCIiIiIiWhH/C58/1iQ5gR3VAAAAAElFTkSuQmCC;" vertex="1" parent="1">
          <mxGeometry x="220" y="319.38" width="160" height="35.38" as="geometry" />
        </mxCell>
        <mxCell id="9iWDFektB7QEEFaRxru2-14" style="edgeStyle=orthogonalEdgeStyle;rounded=0;orthogonalLoop=1;jettySize=auto;html=1;entryX=0.35;entryY=0.082;entryDx=0;entryDy=0;entryPerimeter=0;" edge="1" parent="1" source="9iWDFektB7QEEFaRxru2-4" target="9iWDFektB7QEEFaRxru2-6">
          <mxGeometry relative="1" as="geometry" />
        </mxCell>
      </root>
    </mxGraphModel>
  </diagram>
</mxfile>
